<?xml version="1.0" encoding="utf-8"?>
<!-- Generator: Adobe Illustrator 22.1.0, SVG Export Plug-In . SVG Version: 6.00 Build 0)  -->
<svg version="1.2" baseProfile="tiny" id="Слой_1"
	 xmlns="http://www.w3.org/2000/svg" xmlns:xlink="http://www.w3.org/1999/xlink" x="0px" y="0px" width="128px" height="128px"
	 viewBox="0 0 128 128" xml:space="preserve">
<circle fill="#FFF8D1" cx="64" cy="64" r="64"/>
<g>
	<g>
		<g>
			<polygon fill="#EBF0CE" points="53.2,118.3 19.9,118.3 28.5,110.2 56.4,110.2 56.7,109.3 26.1,109.3 14,119.7 52.6,119.7 			"/>
			<path fill="#EBF0CE" d="M100.4,110.6H73.5l2.8,7.2h31.5L100.4,110.6z M90.9,114.8c-1.9,0-3.7-0.5-4.1-1c-0.3-0.5,0.9-1,2.7-1
				c1.8,0,3.6,0.4,4,1C94,114.4,92.8,114.8,90.9,114.8z"/>
			<path fill="#EBF0CE" d="M22.1,117.7h31.3l2.8-7.2H29.5L22.1,117.7z M43.9,115.9H33.1l0.4-0.5h10.6L43.9,115.9z M45.8,115H32.4
				l0.4-0.5H46L45.8,115z M38.1,112.4c0.3-0.4,1.8-0.8,3.2-0.8s2.5,0.3,2.2,0.8c-0.3,0.4-1.7,0.8-3.3,0.8
				C38.8,113.2,37.8,112.8,38.1,112.4z M31.8,113.6h16.5l-0.2,0.4H31.4L31.8,113.6z"/>
			<polygon fill="#EBF0CE" points="101.4,110.2 110,118.3 76.5,118.3 77.1,119.7 115.9,119.7 103.8,109.3 73,109.3 73.4,110.2 			
				"/>
			<polygon fill="#9CA78E" points="101.4,110.2 73.4,110.2 73.5,110.6 100.4,110.6 107.8,117.7 76.3,117.7 76.5,118.3 110,118.3 			
				"/>
			<polygon fill="#9CA78E" points="22.1,117.7 29.5,110.6 56.2,110.6 56.4,110.2 28.5,110.2 19.9,118.3 53.2,118.3 53.4,117.7 			
				"/>
			<path fill="#9CA78E" d="M89.5,112.8c-1.8,0-3.1,0.4-2.7,1c0.3,0.6,2.1,1,4.1,1c1.9,0,3.1-0.5,2.7-1S91.4,112.8,89.5,112.8z"/>
			<path fill="#9CA78E" d="M40.3,113.2c1.5,0,3-0.4,3.3-0.8s-0.7-0.8-2.2-0.8s-2.9,0.3-3.2,0.8C37.8,112.8,38.8,113.2,40.3,113.2z"
				/>
			<polygon fill="#9CA78E" points="48.3,113.6 31.8,113.6 31.4,114.1 48.1,114.1 			"/>
			<polygon fill="#9CA78E" points="32.4,115 45.8,115 46,114.5 32.8,114.5 			"/>
			<polygon fill="#9CA78E" points="33.1,115.9 43.9,115.9 44.1,115.4 33.5,115.4 			"/>
			<rect x="14" y="119.7" fill="#9CA78E" width="38.6" height="8.3"/>
			<rect x="77.1" y="119.7" fill="#9CA78E" width="38.8" height="8.3"/>
			<polygon fill="#EDECEC" points="75.7,119.7 77.1,119.7 76.5,118.3 76.3,117.7 73.5,110.6 73.4,110.2 73,109.3 72.1,109.3 			"/>
			<polygon fill="#EDECEC" points="55.9,119.7 73.8,119.7 70.8,109.3 58.9,109.3 			"/>
			<polygon fill="#EDECEC" points="56.2,110.6 53.4,117.7 53.2,118.3 52.6,119.7 54.1,119.7 57.7,109.3 56.7,109.3 56.4,110.2 			
				"/>
			<polygon fill="#F4AF25" points="54.1,119.7 55.9,119.7 58.9,109.3 57.7,109.3 			"/>
			<polygon fill="#F4AF25" points="73.8,119.7 75.7,119.7 72.1,109.3 70.8,109.3 			"/>
			<rect x="52.6" y="119.7" fill="#CECECD" width="1.4" height="8.3"/>
			<rect x="75.7" y="119.7" fill="#CECECD" width="1.4" height="8.3"/>
			<rect x="55.9" y="119.7" fill="#CECECD" width="17.9" height="8.3"/>
			<rect x="54.1" y="119.7" fill="#DA800C" width="1.9" height="8.3"/>
			<rect x="73.8" y="119.7" fill="#DA800C" width="1.9" height="8.3"/>
		</g>
		<g>
			<polygon fill="#EBF0CE" points="51.2,108.9 17.9,110 26.3,101.7 54.1,100.8 54.4,99.9 23.9,100.9 12.1,111.6 50.7,110.4 			"/>
			<path fill="#EBF0CE" d="M98.2,99.7l-26.9,0.9l3,7.1l31.4-1L98.2,99.7z M88.8,104.2c-1.9,0.1-3.8-0.3-4.1-0.9
				c-0.3-0.5,0.9-1,2.7-1.1c1.8-0.1,3.6,0.3,4.1,0.8C91.9,103.7,90.7,104.2,88.8,104.2z"/>
			<path fill="#EBF0CE" d="M20.1,109.4l31.3-1l2.6-7.2L27.3,102L20.1,109.4z M41.8,106.9l-10.7,0.3l0.4-0.5l10.6-0.3L41.8,106.9z
				 M43.7,105.9l-13.4,0.4l0.4-0.5l13.2-0.4L43.7,105.9z M36,103.5c0.3-0.4,1.7-0.8,3.2-0.9c1.5,0,2.5,0.3,2.2,0.7
				c-0.2,0.4-1.7,0.9-3.2,0.9C36.6,104.3,35.7,104,36,103.5z M29.6,105l16.5-0.5l-0.2,0.4l-16.7,0.5L29.6,105z"/>
			<polygon fill="#EBF0CE" points="99.2,99.3 108,107.1 74.6,108.2 75.2,109.6 114,108.3 101.5,98.3 70.8,99.3 71.1,100.2 			"/>
			<polygon fill="#9CA78E" points="99.2,99.3 71.1,100.2 71.3,100.6 98.2,99.7 105.8,106.6 74.3,107.6 74.6,108.2 108,107.1 			"/>
			<polygon fill="#9CA78E" points="20.1,109.4 27.3,102 54,101.1 54.1,100.8 26.3,101.7 17.9,110 51.2,108.9 51.4,108.4 			"/>
			<path fill="#9CA78E" d="M87.4,102.3c-1.8,0.1-3,0.5-2.7,1.1c0.3,0.5,2.2,0.9,4.1,0.9c1.9-0.1,3.1-0.6,2.7-1.1
				C91,102.6,89.2,102.3,87.4,102.3z"/>
			<path fill="#9CA78E" d="M38.2,104.3c1.5,0,3-0.5,3.2-0.9s-0.8-0.7-2.2-0.7c-1.5,0-2.9,0.4-3.2,0.9
				C35.7,104,36.6,104.3,38.2,104.3z"/>
			<polygon fill="#9CA78E" points="46.1,104.5 29.6,105 29.3,105.4 46,104.9 			"/>
			<polygon fill="#9CA78E" points="30.3,106.3 43.7,105.9 44,105.4 30.7,105.9 			"/>
			<polygon fill="#9CA78E" points="31.1,107.2 41.8,106.9 42.1,106.4 31.5,106.7 			"/>
			
				<rect x="12.2" y="111" transform="matrix(0.9995 -3.238655e-02 3.238655e-02 0.9995 -3.7129 1.0806)" fill="#9CA78E" width="38.6" height="8.3"/>
			
				<rect x="75.3" y="108.9" transform="matrix(0.9995 -3.238655e-02 3.238655e-02 0.9995 -3.6117 3.1264)" fill="#9CA78E" width="38.8" height="8.3"/>
			<polygon fill="#EDECEC" points="73.7,109.6 75.2,109.6 74.6,108.2 74.3,107.6 71.3,100.6 71.1,100.2 70.8,99.3 69.8,99.4 			"/>
			<polygon fill="#EDECEC" points="54,110.3 71.9,109.7 68.6,99.4 56.6,99.8 			"/>
			<polygon fill="#EDECEC" points="54,101.1 51.4,108.4 51.2,108.9 50.7,110.4 52.1,110.3 55.4,99.8 54.4,99.9 54.1,100.8 			"/>
			<polygon fill="#F4AF25" points="52.1,110.3 54,110.3 56.6,99.8 55.4,99.8 			"/>
			<polygon fill="#F4AF25" points="71.9,109.7 73.7,109.6 69.8,99.4 68.6,99.4 			"/>
			
				<rect x="50.8" y="110.3" transform="matrix(0.9995 -3.238655e-02 3.238655e-02 0.9995 -3.6797 1.728)" fill="#CECECD" width="1.4" height="8.3"/>
			
				<rect x="73.9" y="109.6" transform="matrix(0.9995 -3.236860e-02 3.236860e-02 0.9995 -3.6429 2.4744)" fill="#CECECD" width="1.4" height="8.3"/>
			
				<rect x="54.1" y="110" transform="matrix(0.9995 -3.236803e-02 3.236803e-02 0.9995 -3.6619 2.1007)" fill="#CECECD" width="17.9" height="8.3"/>
			
				<rect x="52.3" y="110.3" transform="matrix(0.9995 -3.238655e-02 3.238655e-02 0.9995 -3.6788 1.7847)" fill="#DA800C" width="1.9" height="8.3"/>
			
				<rect x="72" y="109.6" transform="matrix(0.9995 -3.238598e-02 3.238598e-02 0.9995 -3.6457 2.4223)" fill="#DA800C" width="1.9" height="8.3"/>
		</g>
		<g>
			<polygon fill="#EBF0CE" points="53.2,98.6 19.9,98.6 28.5,90.6 56.4,90.6 56.7,89.7 26.1,89.7 14,100.1 52.6,100.1 			"/>
			<path fill="#EBF0CE" d="M100.4,90.9H73.5l2.8,7.2h31.5L100.4,90.9z M90.9,95.2c-1.9,0-3.7-0.5-4.1-1c-0.3-0.5,0.9-1,2.7-1
				c1.8,0,3.6,0.4,4,1C94,94.7,92.8,95.2,90.9,95.2z"/>
			<path fill="#EBF0CE" d="M22.1,98.1h31.3l2.8-7.2H29.5L22.1,98.1z M43.9,96.3H33.1l0.4-0.5h10.6L43.9,96.3z M45.8,95.4H32.4
				l0.4-0.5H46L45.8,95.4z M38.1,92.8c0.3-0.4,1.8-0.8,3.2-0.8s2.5,0.3,2.2,0.8c-0.3,0.4-1.7,0.8-3.3,0.8
				C38.8,93.6,37.8,93.2,38.1,92.8z M31.8,94h16.5l-0.2,0.4H31.4L31.8,94z"/>
			<polygon fill="#EBF0CE" points="101.4,90.6 110,98.6 76.5,98.6 77.1,100.1 115.9,100.1 103.8,89.7 73,89.7 73.4,90.6 			"/>
			<polygon fill="#9CA78E" points="101.4,90.6 73.4,90.6 73.5,90.9 100.4,90.9 107.8,98.1 76.3,98.1 76.5,98.6 110,98.6 			"/>
			<polygon fill="#9CA78E" points="22.1,98.1 29.5,90.9 56.2,90.9 56.4,90.6 28.5,90.6 19.9,98.6 53.2,98.6 53.4,98.1 			"/>
			<path fill="#9CA78E" d="M89.5,93.2c-1.8,0-3.1,0.4-2.7,1c0.3,0.6,2.1,1,4.1,1c1.9,0,3.1-0.5,2.7-1C93.2,93.6,91.4,93.2,89.5,93.2
				z"/>
			<path fill="#9CA78E" d="M40.3,93.6c1.5,0,3-0.4,3.3-0.8S42.9,92,41.4,92s-2.9,0.3-3.2,0.8C37.8,93.2,38.8,93.6,40.3,93.6z"/>
			<polygon fill="#9CA78E" points="48.3,94 31.8,94 31.4,94.5 48.1,94.5 			"/>
			<polygon fill="#9CA78E" points="32.4,95.4 45.8,95.4 46,94.9 32.8,94.9 			"/>
			<polygon fill="#9CA78E" points="33.1,96.3 43.9,96.3 44.1,95.8 33.5,95.8 			"/>
			<rect x="14" y="100.1" fill="#9CA78E" width="38.6" height="8.3"/>
			<rect x="77.1" y="100.1" fill="#9CA78E" width="38.8" height="8.3"/>
			<polygon fill="#EDECEC" points="75.7,100.1 77.1,100.1 76.5,98.6 76.3,98.1 73.5,90.9 73.4,90.6 73,89.7 72.1,89.7 			"/>
			<polygon fill="#EDECEC" points="55.9,100.1 73.8,100.1 70.8,89.7 58.9,89.7 			"/>
			<polygon fill="#EDECEC" points="56.2,90.9 53.4,98.1 53.2,98.6 52.6,100.1 54.1,100.1 57.7,89.7 56.7,89.7 56.4,90.6 			"/>
			<polygon fill="#F4AF25" points="54.1,100.1 55.9,100.1 58.9,89.7 57.7,89.7 			"/>
			<polygon fill="#F4AF25" points="73.8,100.1 75.7,100.1 72.1,89.7 70.8,89.7 			"/>
			<rect x="52.6" y="100.1" fill="#CECECD" width="1.4" height="8.3"/>
			<rect x="75.7" y="100.1" fill="#CECECD" width="1.4" height="8.3"/>
			<rect x="55.9" y="100.1" fill="#CECECD" width="17.9" height="8.3"/>
			<rect x="54.1" y="100.1" fill="#DA800C" width="1.9" height="8.3"/>
			<rect x="73.8" y="100.1" fill="#DA800C" width="1.9" height="8.3"/>
		</g>
		<g>
			<path fill="#80B43C" d="M64.9,15.7L64.9,15.7c-0.2,0-0.3,0.1-0.3,0.3l-2.5,77.6h5.6L65.2,16C65.2,15.9,65,15.7,64.9,15.7z"/>
			<g>
				<path fill="#95C24C" d="M54.4,56.4c5.9,5.9,3.1,10-1.1,14.2s-8.3,7-14.2,1.1S32,49.3,32,49.3S48.5,50.5,54.4,56.4z"/>
				<path fill="#80B43C" d="M34.8,52.1L34.8,52.1c-0.2,0.2-0.1,0.6,0.2,1l29.4,30.3l1.6-1.6L35.8,52.3C35.4,52,35,51.9,34.8,52.1z"
					/>
				<path fill="#80B43C" d="M42.9,73L42.9,73c0.1,0.2,0.2,0.3,0.3,0.2l8-4.2l-0.8-1.3l-7.6,4.9C42.8,72.7,42.8,72.9,42.9,73z"/>
				<path fill="#80B43C" d="M39,69.8L39,69.8c0.1,0.1,0.2,0.2,0.3,0.2l8.5-4.5l-0.6-1l-8.2,5C38.9,69.6,38.9,69.7,39,69.8z"/>
				<path fill="#80B43C" d="M37,65.5L37,65.5c0.1,0.1,0.2,0.2,0.2,0.1l7-3.7L43.7,61L37,65.2C37,65.2,37,65.4,37,65.5z"/>
				<path fill="#80B43C" d="M35.5,60.9L35.5,60.9c0.1,0.1,0.1,0.2,0.2,0.1l5.1-2.7l-0.4-0.8l-4.9,3.1C35.4,60.7,35.4,60.8,35.5,60.9
					z"/>
				<path fill="#80B43C" d="M33.9,57L33.9,57C33.9,57.1,34,57.1,33.9,57l3.7-1.8l-0.3-0.5L33.9,57C33.9,56.8,33.9,56.9,33.9,57z"/>
				<path fill="#80B43C" d="M55.7,60.2L55.7,60.2c0.2,0.1,0.3,0.2,0.2,0.3l-4.2,8l-1.3-0.8l4.9-7.6C55.4,60.1,55.6,60.1,55.7,60.2z"
					/>
				<path fill="#80B43C" d="M52.5,56.3L52.5,56.3c0.1,0.1,0.2,0.2,0.2,0.3l-4.5,8.5l-1-0.6l5.1-8.2C52.3,56.2,52.4,56.2,52.5,56.3z"
					/>
				<path fill="#80B43C" d="M48.2,54.3L48.2,54.3c0.1,0.1,0.2,0.2,0.1,0.2l-3.7,7L43.7,61l4.2-6.7C47.9,54.3,48.1,54.3,48.2,54.3z"
					/>
				<path fill="#80B43C" d="M43.6,52.8L43.6,52.8c0.1,0.1,0.2,0.1,0.1,0.2L41,58.1l-0.8-0.4l3.1-4.9C43.4,52.7,43.5,52.7,43.6,52.8z
					"/>
				<path fill="#80B43C" d="M39.7,51.2L39.7,51.2C39.8,51.2,39.8,51.3,39.7,51.2l-1.8,3.7l-0.5-0.3L39.7,51.2
					C39.5,51.2,39.6,51.2,39.7,51.2z"/>
			</g>
			<g>
				<path fill="#95C24C" d="M55.9,30.8c5.1,5.1,2.7,8.6-1,12.2c-3.6,3.6-7.2,6-12.2,1s-6.1-19.3-6.1-19.3S50.9,25.7,55.9,30.8z"/>
				<path fill="#80B43C" d="M39.1,27.1L39.1,27.1c-0.2,0.2-0.1,0.6,0.2,0.8L64.5,54l1.4-1.4l-26-25.3C39.6,27,39.2,26.9,39.1,27.1z"
					/>
				<path fill="#80B43C" d="M46.1,45.1L46.1,45.1c0.1,0.2,0.2,0.2,0.3,0.2l6.9-3.6l-0.7-1.1L46,44.8C46,44.8,46,45,46.1,45.1z"/>
				<path fill="#80B43C" d="M42.7,42.4L42.7,42.4c0.1,0.1,0.2,0.2,0.2,0.1l7.3-3.9l-0.5-0.9l-7,4.4C42.6,42.1,42.6,42.2,42.7,42.4z"
					/>
				<path fill="#80B43C" d="M41,38.6L41,38.6c0.1,0.1,0.2,0.2,0.2,0.1l6-3.2l-0.4-0.8L41,38.4C40.9,38.4,40.9,38.5,41,38.6z"/>
				<path fill="#80B43C" d="M39.6,34.7L39.6,34.7c0.1,0.1,0.1,0.1,0.2,0.1l4.4-2.3l-0.4-0.7l-4.2,2.7C39.6,34.5,39.6,34.6,39.6,34.7
					z"/>
				<path fill="#80B43C" d="M38.3,31.3L38.3,31.3c0,0.1,0.1,0.1,0.1,0.1l3.1-1.6l-0.3-0.5l-2.9,1.9C38.3,31.2,38.3,31.2,38.3,31.3z"
					/>
				<path fill="#80B43C" d="M57.1,34.1L57.1,34.1c0.2,0.1,0.2,0.2,0.2,0.3l-3.6,6.9l-1.1-0.7l4.2-6.6C56.8,34,56.9,34,57.1,34.1z"/>
				<path fill="#80B43C" d="M54.3,30.7L54.3,30.7c0.1,0.1,0.2,0.2,0.1,0.2l-3.9,7.3l-0.9-0.5l4.4-7C54.1,30.7,54.2,30.7,54.3,30.7z"
					/>
				<path fill="#80B43C" d="M50.6,29L50.6,29c0.1,0.1,0.2,0.2,0.1,0.2l-3.2,6l-0.8-0.4l3.6-5.8C50.4,29,50.5,29,50.6,29z"/>
				<path fill="#80B43C" d="M46.6,27.7L46.6,27.7c0.1,0.1,0.1,0.1,0.1,0.2l-2.3,4.4l-0.7-0.4l2.7-4.2C46.5,27.6,46.5,27.6,46.6,27.7
					z"/>
				<path fill="#80B43C" d="M43.3,26.3L43.3,26.3c0.1,0,0.1,0.1,0.1,0.1l-1.6,3.1l-0.5-0.3L43.3,26.3C43.1,26.3,43.2,26.3,43.3,26.3
					z"/>
			</g>
			<g>
				<path fill="#95C24C" d="M75.9,56.4c-5.9,5.9-3.1,10,1.1,14.2s8.3,7,14.2,1.1s7.1-22.4,7.1-22.4S81.7,50.5,75.9,56.4z"/>
				<path fill="#80B43C" d="M95.5,52.1L95.5,52.1c0.2,0.2,0.1,0.6-0.2,1L65.8,83.4l-1.6-1.6l30.3-29.4C94.8,52,95.2,51.9,95.5,52.1z
					"/>
				<path fill="#80B43C" d="M87.3,73L87.3,73c-0.1,0.2-0.2,0.3-0.3,0.2L79,69l0.8-1.3l7.6,4.9C87.4,72.7,87.4,72.9,87.3,73z"/>
				<path fill="#80B43C" d="M91.2,69.8L91.2,69.8C91.2,70,91,70,91,70l-8.5-4.5l0.6-1l8.2,5.1C91.3,69.6,91.3,69.7,91.2,69.8z"/>
				<path fill="#80B43C" d="M93.2,65.5L93.2,65.5c-0.1,0.1-0.2,0.2-0.2,0.1l-7-3.7l0.5-0.9l6.7,4.2C93.3,65.2,93.3,65.4,93.2,65.5z"
					/>
				<path fill="#80B43C" d="M94.8,60.9L94.8,60.9c-0.1,0.1-0.1,0.2-0.2,0.1l-5.1-2.7l0.4-0.8l4.9,3.1C94.8,60.7,94.8,60.8,94.8,60.9
					z"/>
				<path fill="#80B43C" d="M96.3,57L96.3,57C96.3,57.1,96.2,57.1,96.3,57l-3.7-1.8l0.3-0.5L96.3,57C96.4,56.8,96.4,56.9,96.3,57z"
					/>
				<path fill="#80B43C" d="M74.5,60.2L74.5,60.2c-0.2,0.1-0.3,0.2-0.2,0.3l4.2,8l1.3-0.8l-4.9-7.6C74.8,60.1,74.7,60.1,74.5,60.2z"
					/>
				<path fill="#80B43C" d="M77.7,56.3L77.7,56.3c-0.1,0.1-0.2,0.2-0.2,0.3l4.5,8.5l1-0.6l-5-8.2C78,56.2,77.9,56.2,77.7,56.3z"/>
				<path fill="#80B43C" d="M82.1,54.3L82.1,54.3c-0.1,0.1-0.2,0.2-0.1,0.2l3.7,7l0.9-0.5l-4.2-6.7C82.3,54.3,82.2,54.3,82.1,54.3z"
					/>
				<path fill="#80B43C" d="M86.7,52.8L86.7,52.8c-0.1,0.1-0.2,0.1-0.1,0.2l2.7,5.1l0.8-0.4L87,52.8C86.9,52.7,86.7,52.7,86.7,52.8z
					"/>
				<path fill="#80B43C" d="M90.6,51.2L90.6,51.2C90.5,51.2,90.5,51.3,90.6,51.2l1.8,3.7l0.5-0.3l-2.2-3.4
					C90.7,51.2,90.7,51.2,90.6,51.2z"/>
			</g>
			<g>
				<path fill="#95C24C" d="M74.3,30.8c-5.1,5.1-2.7,8.6,1,12.2c3.6,3.6,7.2,6,12.2,1s6.1-19.3,6.1-19.3S79.4,25.7,74.3,30.8z"/>
				<path fill="#80B43C" d="M91.2,27.1L91.2,27.1c0.2,0.2,0.1,0.6-0.2,0.8L65.7,54l-1.4-1.4l26.1-25.3C90.6,27,91,26.9,91.2,27.1z"
					/>
				<path fill="#80B43C" d="M84.2,45.1L84.2,45.1c-0.1,0.2-0.2,0.2-0.3,0.2L77,41.7l0.7-1.1l6.6,4.2C84.3,44.8,84.3,45,84.2,45.1z"
					/>
				<path fill="#80B43C" d="M87.6,42.4L87.6,42.4c-0.1,0.1-0.2,0.2-0.2,0.1L80,38.6l0.5-0.9l7,4.4C87.6,42.1,87.6,42.2,87.6,42.4z"
					/>
				<path fill="#80B43C" d="M89.3,38.6L89.3,38.6c-0.1,0.1-0.2,0.2-0.2,0.1l-6-3.2l0.4-0.8l5.8,3.6C89.3,38.4,89.3,38.5,89.3,38.6z"
					/>
				<path fill="#80B43C" d="M90.6,34.7L90.6,34.7c-0.1,0.1-0.1,0.1-0.2,0.1L86,32.5l0.4-0.7l4.2,2.7C90.7,34.5,90.7,34.6,90.6,34.7z
					"/>
				<path fill="#80B43C" d="M92,31.3L92,31.3c0,0.1-0.1,0.1-0.1,0.1l-3.1-1.6l0.3-0.5l2.9,1.9C92,31.2,92,31.2,92,31.3z"/>
				<path fill="#80B43C" d="M73.2,34.1L73.2,34.1C73,34.2,73,34.3,73,34.4l3.6,6.9l1.1-0.7L73.5,34C73.5,34,73.3,34,73.2,34.1z"/>
				<path fill="#80B43C" d="M75.9,30.7L75.9,30.7c-0.1,0.1-0.2,0.2-0.1,0.2l3.9,7.3l0.9-0.5l-4.4-7C76.2,30.7,76.1,30.7,75.9,30.7z"
					/>
				<path fill="#80B43C" d="M79.7,29L79.7,29c-0.1,0.1-0.2,0.2-0.1,0.2l3.2,6l0.8-0.4L79.9,29C79.9,29,79.8,29,79.7,29z"/>
				<path fill="#80B43C" d="M83.6,27.7L83.6,27.7c-0.1,0.1-0.1,0.1-0.1,0.2l2.3,4.4l0.7-0.4l-2.7-4.2C83.8,27.6,83.7,27.6,83.6,27.7
					z"/>
				<path fill="#80B43C" d="M87,26.3L87,26.3c-0.1,0-0.1,0.1-0.1,0.1l1.6,3.1l0.5-0.3L87,26.3C87.1,26.3,87.1,26.3,87,26.3z"/>
			</g>
			<g>
				<path fill="#95C24C" d="M55.5,17.9c0,7.2,4.2,8,9.3,8c5.2,0,9.3-0.8,9.3-8S64.8,0,64.8,0S55.5,10.8,55.5,17.9z"/>
				<path fill="#80B43C" d="M64.9,3.4L64.9,3.4c0.3,0,0.5,0.3,0.5,0.7l0.5,36.3h-2l0.5-36.3C64.4,3.7,64.6,3.4,64.9,3.4z"/>
				<path fill="#80B43C" d="M72.6,21.1L72.6,21.1c0,0.2,0,0.3,0,0.3l-7.4,2.3l-0.3-1.3l7.6-1.7C72.5,20.8,72.6,21,72.6,21.1z"/>
				<path fill="#80B43C" d="M73.1,16.8L73.1,16.8c0,0.1,0,0.2-0.1,0.3l-7.9,2.4l-0.3-1l8-1.9C73,16.6,73,16.6,73.1,16.8z"/>
				<path fill="#80B43C" d="M71.6,12.9L71.6,12.9c0,0.1,0,0.2-0.1,0.2l-6.5,2l-0.2-0.9l6.6-1.5C71.5,12.8,71.6,12.8,71.6,12.9z"/>
				<path fill="#80B43C" d="M69.8,9.2L69.8,9.2c0,0.1,0,0.2,0,0.2L65,10.9l-0.2-0.7L69.7,9C69.7,9,69.8,9.1,69.8,9.2z"/>
				<path fill="#80B43C" d="M68.4,5.8L68.4,5.8C68.4,5.9,68.4,5.9,68.4,5.8L65,7l-0.1-0.5l3.4-0.8C68.3,5.7,68.3,5.8,68.4,5.8z"/>
				<path fill="#80B43C" d="M57.1,21.1L57.1,21.1c0,0.2,0,0.3,0,0.3l7.4,2.3l0.3-1.3l-7.6-1.7C57.2,20.8,57.1,21,57.1,21.1z"/>
				<path fill="#80B43C" d="M56.6,16.8L56.6,16.8c0,0.1,0,0.2,0.1,0.3l7.9,2.4l0.3-1l-8-1.9C56.8,16.6,56.7,16.6,56.6,16.8z"/>
				<path fill="#80B43C" d="M58.1,12.9L58.1,12.9c0,0.1,0,0.2,0.1,0.2l6.5,2l0.2-0.9l-6.6-1.5C58.2,12.8,58.1,12.8,58.1,12.9z"/>
				<path fill="#80B43C" d="M59.9,9.2L59.9,9.2c0,0.1,0,0.2,0,0.2l4.7,1.5l0.2-0.7L60,9C60,9,59.9,9.1,59.9,9.2z"/>
				<path fill="#80B43C" d="M61.4,5.8L61.4,5.8C61.4,5.9,61.4,5.9,61.4,5.8l3.3,1.1l0.1-0.5l-3.4-0.8C61.4,5.7,61.4,5.8,61.4,5.8z"
					/>
			</g>
		</g>
	</g>
</g>
</svg>
