<?xml version="1.0" encoding="utf-8"?>
<!-- Generator: Adobe Illustrator 22.1.0, SVG Export Plug-In . SVG Version: 6.00 Build 0)  -->
<svg version="1.2" baseProfile="tiny" id="Слой_1"
	 xmlns="http://www.w3.org/2000/svg" xmlns:xlink="http://www.w3.org/1999/xlink" x="0px" y="0px" width="128px" height="128px"
	 viewBox="0 0 128 128" xml:space="preserve">
<circle fill="#FFF8D1" cx="64" cy="64" r="64"/>
<g>
	<g>
		<rect x="18.1" y="53" fill-rule="evenodd" fill="#76AA60" width="91.7" height="43.1"/>
		<rect x="23.5" y="58.2" fill-rule="evenodd" fill="#90C67B" width="81.1" height="32.7"/>
		<path fill-rule="evenodd" fill="#76AA60" d="M33.6,58.2c0,5.6-4.5,10.2-10.2,10.2V58.2H33.6z"/>
		<path fill-rule="evenodd" fill="#76AA60" d="M94.4,58.2c0,5.6,4.5,10.2,10.2,10.2V58.2H94.4z"/>
		<path fill-rule="evenodd" fill="#76AA60" d="M33.6,91.7c0-5.6-4.5-10.2-10.2-10.2v10.2H33.6z"/>
		<path fill-rule="evenodd" fill="#76AA60" d="M94.4,91.7c0-5.6,4.5-10.2,10.2-10.2v10.2H94.4z"/>
		
			<ellipse transform="matrix(2.050220e-03 -1 1 2.050220e-03 -10.6873 138.4032)" fill-rule="evenodd" fill="#76AA60" cx="64" cy="74.6" rx="12" ry="12"/>
	</g>
	<rect x="18.1" y="31.9" fill-rule="evenodd" fill="#76AA60" width="91.7" height="20.6"/>
	<g>
		<rect x="18.1" y="51.5" fill="#90C67B" width="91.7" height="2"/>
		<rect x="18.1" y="46.2" fill="#90C67B" width="91.7" height="2"/>
		<rect x="18.1" y="40.9" fill="#90C67B" width="91.7" height="2"/>
		<rect x="18.1" y="35.6" fill="#90C67B" width="91.7" height="2"/>
	</g>
	<rect x="59.8" y="43.4" fill-rule="evenodd" fill="#FFD573" width="8.5" height="52.7"/>
	<rect x="59.8" y="31.9" fill-rule="evenodd" fill="#F2A900" width="8.5" height="21.1"/>
</g>
</svg>
