<?xml version="1.0" encoding="utf-8"?>
<!-- Generator: Adobe Illustrator 22.1.0, SVG Export Plug-In . SVG Version: 6.00 Build 0)  -->
<svg version="1.2" baseProfile="tiny" id="Слой_1"
	 xmlns="http://www.w3.org/2000/svg" xmlns:xlink="http://www.w3.org/1999/xlink" x="0px" y="0px" width="128px" height="128px"
	 viewBox="0 0 128 128" xml:space="preserve">
<circle fill="#FFF8D1" cx="64" cy="64" r="64"/>
<g>
	<path fill-rule="evenodd" fill="#873834" d="M35.3,25.9h57c7.3,0,13.2,5.9,13.2,13.2v28.5H22.1V39.1C22.1,31.9,28,25.9,35.3,25.9z"
		/>
	<path fill-rule="evenodd" fill="#873834" d="M105.5,67.7v28.5c0,7.3-5.9,13.2-13.2,13.2h-57c-7.3,0-13.2-5.9-13.2-13.2V67.7H105.5z
		"/>
	<path fill-rule="evenodd" fill="#A35450" d="M31.9,36.7h63.9c5.4,0,9.8,4.4,9.8,9.8v21.1H22.1V46.5C22.1,41.2,26.5,36.7,31.9,36.7z
		"/>
	<path fill-rule="evenodd" fill="#C9928F" d="M105.5,67.7v21.1c0,5.4-4.4,9.8-9.8,9.8H31.9c-5.4,0-9.8-4.4-9.8-9.8V67.7H105.5z"/>
	<path fill-rule="evenodd" fill="#873834" d="M33.8,40.8h60c4.6,0,8.4,3.8,8.4,8.5v18.4H25.4V49.3C25.4,44.6,29.1,40.8,33.8,40.8z"
		/>
	<path fill-rule="evenodd" fill="#A35450" d="M102.2,67.7V86c0,4.7-3.8,8.5-8.4,8.5h-60c-4.6,0-8.4-3.8-8.4-8.5V67.7H102.2z"/>
	<g>
		<path fill-rule="evenodd" fill="#873834" d="M53.6,9.6H74c4.4,0,8,3.6,8,8v14.7h-3.7V21.9c0-3.1-2.6-5.7-5.7-5.7H55
			c-3.1,0-5.7,2.6-5.7,5.7v10.4h-3.7V17.6C45.6,13.2,49.2,9.6,53.6,9.6z"/>
		<path fill-rule="evenodd" fill="#A35450" d="M53.6,13.1H74c4.4,0,8,3.6,8,8v11.2h-5.4v-8.4c0-3.1-2.6-5.7-5.7-5.7h-14
			c-3.1,0-5.7,2.6-5.7,5.7v8.4h-5.5V21.1C45.6,16.7,49.2,13.1,53.6,13.1z"/>
	</g>
	<g>
		<g>
			<rect x="54.4" y="57.8" fill-rule="evenodd" fill="#76AA60" width="44.5" height="20.9"/>
			<rect x="57" y="60.3" fill-rule="evenodd" fill="#90C67B" width="39.3" height="15.8"/>
			<path fill-rule="evenodd" fill="#76AA60" d="M61.9,60.3c0,2.7-2.2,4.9-4.9,4.9v-4.9H61.9z"/>
			<path fill-rule="evenodd" fill="#76AA60" d="M91.4,60.3c0,2.7,2.2,4.9,4.9,4.9v-4.9H91.4z"/>
			<path fill-rule="evenodd" fill="#76AA60" d="M61.9,76.6c0-2.7-2.2-4.9-4.9-4.9v4.9H61.9z"/>
			<path fill-rule="evenodd" fill="#76AA60" d="M91.4,76.6c0-2.7,2.2-4.9,4.9-4.9v4.9H91.4z"/>
			<path fill-rule="evenodd" fill="#76AA60" d="M76.6,62.5c3.2,0,5.8,2.6,5.8,5.8c0,3.2-2.6,5.8-5.8,5.8c-3.2,0-5.8-2.6-5.8-5.8
				C70.8,65.1,73.4,62.5,76.6,62.5z"/>
		</g>
		<rect x="54.4" y="53.1" fill-rule="evenodd" fill="#76AA60" width="44.5" height="4.7"/>
		<g>
			<rect x="54.4" y="57.6" fill="#90C67B" width="44.5" height="0.4"/>
			<rect x="54.4" y="56.4" fill="#90C67B" width="44.5" height="0.4"/>
			<rect x="54.4" y="55.2" fill="#90C67B" width="44.5" height="0.4"/>
			<rect x="54.4" y="54" fill="#90C67B" width="44.5" height="0.4"/>
		</g>
		<rect x="74.6" y="53.1" fill-rule="evenodd" fill="#FFD573" width="4.1" height="25.6"/>
		<rect x="74.6" y="53.1" fill-rule="evenodd" fill="#F2A900" width="4.1" height="4.7"/>
	</g>
	<g>
		<g>
			<rect x="29.8" y="69.1" fill-rule="evenodd" fill="#76AA60" width="44.5" height="20.9"/>
			<rect x="32.4" y="71.7" fill-rule="evenodd" fill="#90C67B" width="39.3" height="15.8"/>
			<path fill-rule="evenodd" fill="#76AA60" d="M37.3,71.7c0,2.7-2.2,4.9-4.9,4.9v-4.9H37.3z"/>
			<path fill-rule="evenodd" fill="#76AA60" d="M66.8,71.7c0,2.7,2.2,4.9,4.9,4.9v-4.9H66.8z"/>
			<path fill-rule="evenodd" fill="#76AA60" d="M37.3,87.9c0-2.7-2.2-4.9-4.9-4.9v4.9H37.3z"/>
			<path fill-rule="evenodd" fill="#76AA60" d="M66.8,87.9c0-2.7,2.2-4.9,4.9-4.9v4.9H66.8z"/>
			<path fill-rule="evenodd" fill="#76AA60" d="M52,73.8c3.2,0,5.8,2.6,5.8,5.8c0,3.2-2.6,5.8-5.8,5.8c-3.2,0-5.8-2.6-5.8-5.8
				C46.2,76.4,48.8,73.8,52,73.8z"/>
		</g>
		<rect x="29.8" y="64.5" fill-rule="evenodd" fill="#76AA60" width="44.5" height="4.7"/>
		<g>
			<rect x="29.8" y="68.9" fill="#90C67B" width="44.5" height="0.4"/>
			<rect x="29.8" y="67.7" fill="#90C67B" width="44.5" height="0.4"/>
			<rect x="29.8" y="66.5" fill="#90C67B" width="44.5" height="0.4"/>
			<rect x="29.8" y="65.3" fill="#90C67B" width="44.5" height="0.4"/>
		</g>
		<rect x="50" y="64.5" fill-rule="evenodd" fill="#FFD573" width="4.1" height="25.6"/>
		<rect x="50" y="64.5" fill-rule="evenodd" fill="#F2A900" width="4.1" height="4.7"/>
	</g>
</g>
</svg>
