<?xml version="1.0" encoding="utf-8"?>
<!-- Generator: Adobe Illustrator 22.1.0, SVG Export Plug-In . SVG Version: 6.00 Build 0)  -->
<svg version="1.2" baseProfile="tiny" id="Слой_1"
	 xmlns="http://www.w3.org/2000/svg" xmlns:xlink="http://www.w3.org/1999/xlink" x="0px" y="0px" width="128px" height="128px"
	 viewBox="0 0 128 128" xml:space="preserve">
<g>
	<circle fill="#FFF8D1" cx="64.2" cy="64.2" r="64"/>
	<path fill="#C8B283" d="M91.3,39.4H47.4c-4.1,0-7.5,3.4-7.5,7.5c0,3.1,1.5,6.2,4.4,7.7l7,4.4h36.6l7-4.4c2.6-1.8,4.4-4.6,4.4-7.7
		C99,43,95.4,39.4,91.3,39.4z"/>
	<path fill="#C8B283" d="M78.1,35.8c0,3.4-2.6,5.9-5.9,5.9c-3.4,0-5.9-2.6-5.9-5.9s2.6-5.9,5.9-5.9C75.6,29.9,78.1,32.5,78.1,35.8z"
		/>
	<path fill="#99603B" d="M88.5,66.8c4.6-2.6,5.9-11.6,5.9-11.6c0-0.8,0-1.8,0-2.6c0-4.1-4.4-7.2-8.8-7.2H52.8
		c-3.9,0-7.7,3.1-8.3,7.2c-1,6.2-3.4,5.9-7,10.8l2.1,3.6C39.9,66.8,83.8,69.6,88.5,66.8z"/>
	<path fill="#4D4D4F" d="M73.7,65.7c-12.1,0-27.9-0.8-32.5-1l-0.8-1c0.8-0.8,1.3-1.3,1.8-2.1c2.1-1.8,3.6-3.6,4.4-8.5
		c0.5-3.1,3.1-5.4,5.9-5.4H85c3.1,0,6.5,2.1,6.5,4.9c0,1,0,1.8,0,2.6c-0.5,3.1-2.1,8.3-4.6,9.8C86.9,65,84.8,65.7,73.7,65.7
		L73.7,65.7z"/>
	<path fill="#99603B" d="M99.6,66.3c-3.6-5.4-4.9-8.3-5.2-11.1c0,0.3-1.3,9-5.9,11.6s-48.5,0-48.5,0l-2.1-3.6
		c-0.3,0.3-0.3,0.5-0.5,0.8l0,0c-3.4,4.9-3.9,10.8-1.8,16.3l0,0c2.3,5.6,7.4,10,13.6,10.7l2.1,0.3c12.4,2.1,24.8,2.1,37.2,0l2.1-0.3
		l4.4,10.8C102.1,91.3,105,74.3,99.6,66.3z"/>
	<g>
		<g>
			<circle fill="#F6C840" cx="66.3" cy="32.2" r="16.3"/>
		</g>
	</g>
	<path fill="#99603B" d="M96.7,84.1h-1.3c-0.5-1-1-2.1-1.8-3.1l0,0c-3.9-5.7-6.5-11.9-7.5-18.6c-0.8-4.1-4.4-7.2-8.5-7.2H45.1
		c-4.1,0-8,3.1-8.5,7.2c-1,6.7-3.6,12.9-7.5,18.6l0,0c-0.8,1-1.3,2.1-1.8,3.1H26v9.5l0,0c0,2.1,0.5,4.1,1.3,5.9l0,0
		c2.3,5.7,7.5,10.1,13.7,10.8l2.1,0.3c12.4,2.1,24.8,2.1,37.2,0l2.1-0.3c6.2-1,11.4-5.2,13.7-10.8l0,0c0.8-2.1,1-3.9,1.3-5.9l0,0
		v-9.5H96.7z"/>
	<g>
		<path fill="#E9CD95" d="M83.3,50.3H39.4c-4.1,0-7.5,3.4-7.5,7.5c0,3.1,1.5,6.2,4.4,7.7l7,4.4h36.4l7-4.4c2.6-1.8,4.4-4.6,4.4-7.7
			C91,53.6,87.7,50.3,83.3,50.3z"/>
		<path fill="#AF6C45" d="M77.6,55.9H45.1c-4.1,0-8,3.1-8.5,7.2c-1,6.7-3.6,5.9-7.5,11.6l0,0c-3.4,4.9-3.9,10.8-1.8,16.3l0,0
			c2.3,5.7,7.5,10.1,13.7,10.8l2.1,0.3c12.4,2.1,24.8,2.1,37.2,0l2.1-0.3c6.2-1,11.4-5.2,13.7-10.8l0,0c2.1-5.4,1.3-11.6-1.8-16.3
			l0,0c-3.9-5.7-6.5-4.9-7.5-11.6C85.6,59,81.7,55.9,77.6,55.9z"/>
		<circle fill="#E9CD95" cx="58" cy="46.4" r="5.9"/>
	</g>
</g>
<path fill="#FFFFFF" d="M73.2,30.4v-1.6h-3.1c1.1-1.2,1.6-2.4,1.6-3.6c0-2.6-1.8-4.6-5.2-4.6c-3.1,0-5.4,1.9-5.6,4.6
	c0.3,0.7,0.8,1,1.4,1c0.7,0,1.5-0.4,1.9-2.1l0.4-1.8c0.6-0.1,1.1-0.2,1.6-0.2c1.9,0,3,1,3,2.9c0,1.3-0.5,2.5-1.8,3.7h-8.6v1.6h6.8
	l-2.3,1.9h-4.5v1.6h2.9c-0.7,0.9-0.9,1.9-0.9,3.1c0,2.9,1.7,5,6,5c3.5,0,5.9-1.7,6.1-4.6c-0.3-0.6-0.7-1-1.4-1
	c-0.8,0-1.5,0.4-1.8,2.1l-0.4,1.8c-0.8,0.2-1.6,0.2-2.4,0.2c-2.4,0-3.6-1.5-3.6-3.3c0-1.4,0.3-2.4,1.1-3.2h8.8v-1.6h-7.1l2.3-1.9
	H73.2z"/>
</svg>
