<?xml version="1.0" encoding="utf-8"?>
<!-- Generator: Adobe Illustrator 22.1.0, SVG Export Plug-In . SVG Version: 6.00 Build 0)  -->
<svg version="1.2" baseProfile="tiny" id="Слой_1"
	 xmlns="http://www.w3.org/2000/svg" xmlns:xlink="http://www.w3.org/1999/xlink" x="0px" y="0px" width="128px" height="128px"
	 viewBox="0 0 128 128" xml:space="preserve">
<circle fill="#FFF8D1" cx="64" cy="64" r="64"/>
<g>
	<g>
		<g>
			<g>
				<rect x="74.2" y="86.8" fill="#D3614E" width="12.9" height="18.9"/>
				<rect x="47.2" y="86.8" fill="#D3614E" width="12.9" height="18.9"/>
			</g>
			<polygon fill="#424241" points="74.2,111.6 80.5,109.7 87,111.6 87,105.7 74.2,105.7 			"/>
			<polygon fill="#424241" points="47.2,111.6 53.7,109.7 60.1,111.6 60.1,105.7 47.2,105.7 			"/>
		</g>
		<g>
			<g>
				<rect x="67.7" y="89.8" fill="#E96A57" width="12.9" height="18.9"/>
				<rect x="40.8" y="89.8" fill="#E96A57" width="12.9" height="18.9"/>
			</g>
			<polygon fill="#585856" points="67.7,114.4 74.2,112.6 80.5,114.4 80.5,108.7 67.7,108.7 			"/>
			<polygon fill="#585856" points="40.8,114.4 47.2,112.6 53.7,114.4 53.7,108.7 40.8,108.7 			"/>
		</g>
	</g>
	<path fill="#D3614E" d="M90.2,47.5h12.5V29c0-1.1-1.3-1.5-2.1-0.8C95.1,33.7,91.4,40.1,90.2,47.5z"/>
	<ellipse fill="#E96A57" cx="63.9" cy="63" rx="44.2" ry="34.4"/>
	<rect x="94.6" y="53.8" fill="#E96A57" width="21.1" height="23.6"/>
	<path fill="#E8A296" d="M115.7,53.8c3.2-0.1,5.8,5.1,5.8,11.7c0,6.5-2.5,11.8-5.8,11.9c-3.2,0.1-5.8-5.2-5.8-11.7
		S112.5,53.9,115.7,53.8z"/>
	<path fill="#B55344" d="M113.4,63.4c0.6,0,1.1,1,1.1,2.2c0,1.3-0.4,2.2-1.1,2.2c-0.6,0-1.1-1-1.1-2.2S112.7,63.5,113.4,63.4z"/>
	<path fill="#B55344" d="M118.8,63.4c0.6,0,1.1,1,1.1,2.2c0,1.3-0.4,2.2-1.1,2.2s-1.1-1-1.1-2.2C117.6,64.4,118.1,63.5,118.8,63.4z"
		/>
	<path fill="#994739" d="M90.2,53.8c0,1.6,1.3,3,3,3s3-1.3,3-3c0-1.6-1.3-3-3-3S90.2,52.2,90.2,53.8z"/>
	<path fill="#E96A57" d="M14.1,68.9c1.5,0,3-0.4,4.3-1.2c2.1-1.2,3.5-3.1,4.1-5.3c0.2-0.6-0.2-1.3-0.8-1.4c-0.6-0.2-1.3,0.2-1.4,0.8
		c-0.4,1.6-1.5,3-3,3.9c-1.4,0.8-3.2,1.1-4.9,0.6c-2.6-0.7-4-3.4-3.3-5.9c0.3-0.9,0.9-1.7,1.7-2.2c0.8-0.4,1.8-0.6,2.8-0.4
		c1.4,0.4,2.2,1.9,1.9,3.3c-0.2,0.4-0.4,0.9-0.9,1.2c-0.4,0.3-1,0.3-1.4,0.2c-0.6-0.2-1.3,0.2-1.4,0.8c-0.2,0.6,0.2,1.3,0.8,1.4
		c1.1,0.3,2.2,0.2,3.2-0.4c1-0.5,1.7-1.4,2-2.6c0.7-2.7-0.8-5.5-3.5-6.2c-1.7-0.5-3.3-0.3-4.7,0.4c-1.4,0.8-2.4,2.1-2.9,3.6
		c-1.1,3.9,1.2,7.8,5,8.9C12.6,68.8,13.3,68.9,14.1,68.9z"/>
	<path fill="#D3614E" d="M85.9,47.5h9.2V29c0-1.1-1.3-1.5-2.1-0.8c-4.7,4.7-8.1,10-9.7,16C82.8,45.8,84.1,47.5,85.9,47.5z"/>
	<g>
		<g>
			<path fill="#994739" d="M51,39.4c8.5-1.3,17.4-1.3,25.9,0c0.3-1.8,0.5-3.7,0.9-5.5c-9.2-1.4-18.5-1.4-27.7,0
				C50.3,35.7,50.7,37.5,51,39.4z"/>
			<path fill="#FFCC31" d="M74.6,24.5c0,6-4.9,11-11,11s-11-4.9-11-11s4.9-11,11-11S74.6,18.5,74.6,24.5z"/>
		</g>
		<path fill="#F9B510" d="M63.6,16c4.8,0,8.5,3.9,8.5,8.5c0,4.8-3.9,8.5-8.5,8.5c-4.7,0-8.6-3.8-8.6-8.5S58.9,16,63.6,16L63.6,16z
			 M63.6,13.6c-6,0-11,4.9-11,11s4.9,11,11,11s11-4.9,11-11S69.7,13.6,63.6,13.6L63.6,13.6z"/>
	</g>
</g>
</svg>
