<?xml version="1.0" encoding="utf-8"?>
<!-- Generator: Adobe Illustrator 22.1.0, SVG Export Plug-In . SVG Version: 6.00 Build 0)  -->
<svg version="1.2" baseProfile="tiny" id="Слой_1"
	 xmlns="http://www.w3.org/2000/svg" xmlns:xlink="http://www.w3.org/1999/xlink" x="0px" y="0px" width="128px" height="128px"
	 viewBox="0 0 128 128" xml:space="preserve">
<path fill="#B5322E" d="M90.8,70.8l27.3,27.3c6.2-9.9,9.9-21.6,9.9-34.1c0-35.3-28.7-64-64-64S0,28.7,0,64s28.7,64,64,64
	c8.4,0,16.3-1.6,23.6-4.5L62.9,98.7L90.8,70.8z"/>
<path fill="#29324F" d="M118.1,98.1L90.8,70.8L62.9,98.7l24.8,24.8C100.3,118.4,111,109.5,118.1,98.1z"/>
<path fill="#EAAD73" d="M74.6,65.8l-0.3-5.7l-9.1-21l-5.6-7.2L50.2,36l0,0l-15.4,6.7L30,44.9l-3-6.8l-2.5-5.7l-0.3-0.7l-0.3,0.1
	l-5.5,2.4l-1,0.4l0,0l-4,1.8l1.5,3.4l0,0v0.1l0,0l0,0l4,9.1l0.1,0.2l2.1,4.9l1.7-0.7l-0.2,5.4l0,0l-0.3,8.5h0.1
	c0.3,0.2,1.6,0.9,3.5,2c2.2,1.3,5.3,3,8.8,4.8c1.9,1,11.6,8.9,18.4,8.3c0.4,0.5,0.9,1,1.5,1.6c0.2,0.2,0.4,0.4,0.6,0.6
	c0.1,0.1,0.2,0.2,0.3,0.3c2.1,2.2,4.4,4.6,4.4,4.6L75,83.6l0.5-0.2L74.6,65.8z M49.7,58.7c-0.2-0.4-0.4-0.9-0.5-1.3l13.6,13.8
	C57.3,69.3,52.4,64.9,49.7,58.7z"/>
<g>
	<path fill="#EE7B6B" d="M26.9,49.1l21.6-9.5c1.5-0.7,2.2-2.4,1.5-3.9L35.2,1.8c-0.7-1.5-2.4-2.2-3.9-1.5L9.7,9.7
		c-1.5,0.7-2.2,2.4-1.5,3.9L23,47.5C23.6,49,25.4,49.7,26.9,49.1z"/>
	<path fill="#B2925A" d="M19.6,10.7l2.8,6.3c0.2,0.4,0.7,0.6,1.1,0.4l4.2-1.8c0.4-0.2,0.6-0.7,0.4-1.1l-2.8-6.3
		c-0.2-0.4-0.7-0.6-1.1-0.4L20,9.6C19.6,9.8,19.4,10.3,19.6,10.7z"/>
	<path fill="#E96A57" d="M44.4,22.8l4.1,9.3c-9.4,3.1-23.7-5-33.2-2.1l-1.4-3.2C22.5,21.8,36.1,28.5,44.4,22.8z"/>
	<path fill="#CE4A41" d="M50,35.5c-8.7,4.6-21.5,0-30.3,4.6L15.3,30c9.5-2.9,23.8,5.2,33.2,2.1L50,35.5z"/>
	<path fill="#B5322E" d="M50,35.5l0.1,0.2c0.7,1.5,0,3.3-1.5,3.9L27,49.1c-1.5,0.7-3.3,0-3.9-1.5l-3.3-7.5
		C28.5,35.5,41.2,40.1,50,35.5z"/>
	<polygon fill="#3C3C3B" points="20.2,12.2 20.4,12.7 26.2,10.2 26,9.7 24.4,10.4 23.4,8.1 22.9,8.3 23.9,10.6 22.3,11.3 21.3,9.1 
		20.8,9.3 21.8,11.5 	"/>
	<polygon fill="#3C3C3B" points="23,14.4 24.2,17.1 24.7,16.9 23.7,14.7 25.4,13.9 26.4,16.2 26.9,16 25.9,13.7 27.4,13 27.2,12.6 	
		"/>
</g>
<path fill="#FBCE9E" d="M9.5,36.2c1.2,2.9,4.1,4.3,6.4,3.3s3.2-4.1,1.9-7c-1.2-2.9-4.1-4.3-6.4-3.3S8.3,33.3,9.5,36.2z"/>
<path fill="#FBCE9E" d="M17.1,49.3c1,0.1,4.1-0.1,4.1-0.1c3,0,5.4-2.2,5.4-4.9v-0.1c0-2.7-2.5-4.8-5.5-4.8L17,39.5
	C8.8,40.1,9.5,49.7,17.1,49.3z"/>
<path fill="#FBCE9E" d="M19.5,58.9l7-0.1c3,0,5.4-2.3,5.4-5v-0.1c0-2.7-2.5-4.9-5.5-4.8l-7,0.1C13.3,49.3,12.7,58.1,19.5,58.9z"/>
<path fill="#FBCE9E" d="M23.6,67.6l5.6-0.1c2.4,0,4.3-2,4.3-4.4V63c0-2.4-2-4.3-4.4-4.3l-5.6,0.1C17.9,58.8,17.5,67.2,23.6,67.6z"/>
<path fill="#FFFFFF" d="M69.4,97.7c0.9-0.8,2.2-0.8,3.1,0c0.8,0.9,0.8,2.2,0,3.1c-0.9,0.8-2.2,0.8-3.1,0
	C68.5,99.9,68.5,98.5,69.4,97.7z"/>
<path fill="#FFFFFF" d="M74.1,102.5c0.9-0.8,2.2-0.8,3.1,0c0.8,0.9,0.8,2.2,0,3.1c-0.9,0.8-2.2,0.8-3.1,0
	C73.3,104.7,73.3,103.3,74.1,102.5z"/>
<path fill="#FFFFFF" d="M78.9,107.3c0.9-0.8,2.2-0.8,3.1,0c0.8,0.9,0.8,2.2,0,3.1c-0.9,0.8-2.2,0.8-3.1,0
	C78.1,109.6,78.1,108.2,78.9,107.3z"/>
<path fill="#FBCE9E" d="M77.1,63.2c-1.7-1.8-2.9-3.1-2.9-3.1c1.1-10.5-8.6-22.2-9.7-23.3l-3.7-3.7c0,0-2.3-2.7-4-6.2
	c-2-4.1-4.1-8-5.9-12.2c-1.1-2.6-4.1-3.9-6.7-2.9h-0.1c-1.5,0.6-2.6,1.9-3,3.5c-0.3,1.1-0.2,2.3,0.3,3.4c0.7,1.5,1.3,3,2,4.6
	c1.4,3,2.9,6,4.5,8.9c0.6,1.1,1.2,2.2,1.8,3.3c0.1,0.2,0.2,0.4,0.3,0.5l0,0c0,0,0.1,0.1,0.1,0.2c0.4,0.9,0.4,1.9-0.1,2.8
	c-2.9,5.2-3.4,12-1,18.4c0.2,0.4,0.3,0.9,0.5,1.3c2.7,6.1,7.6,10.5,13,12.5c1.8,0.6,3.6,1,5.4,1.1c0.7,0,1.3,0,2,0
	c0.1,0,5.2,11.2,5.4,11.2L86,72.4C83.5,69.9,79.7,66,77.1,63.2z"/>
<rect x="53.9" y="72" transform="matrix(0.7071 -0.7071 0.7071 0.7071 -35.2246 73.8632)" fill="#EDECEC" width="35.3" height="15"/>
</svg>
