<?xml version="1.0" encoding="utf-8"?>
<!-- Generator: Adobe Illustrator 22.1.0, SVG Export Plug-In . SVG Version: 6.00 Build 0)  -->
<svg version="1.2" baseProfile="tiny" id="Слой_1"
	 xmlns="http://www.w3.org/2000/svg" xmlns:xlink="http://www.w3.org/1999/xlink" x="0px" y="0px" width="128px" height="128px"
	 viewBox="0 0 128 128" xml:space="preserve">
<path fill="#FFF8D1" d="M128,64c0-35.3-28.7-64-64-64S0,28.7,0,64c0,21.6,10.7,40.6,27,52.2V24.8c0-5.8,4.7-10.5,10.5-10.5h53
	c5.8,0,10.5,4.8,10.5,10.5v91.4C117.3,104.6,128,85.6,128,64z"/>
<path fill="#585856" d="M90.5,14.3h-53c-5.9,0-10.5,4.8-10.5,10.5v91.4c2.7,1.9,5.5,3.6,8.4,5V25.7c0-1.2,0.9-2.1,2.1-2.1h53
	c1.2,0,2.1,0.9,2.1,2.1v95.5c2.9-1.5,5.7-3.2,8.4-5V24.8C101,19.1,96.2,14.3,90.5,14.3z M64,21.9c-1.5,0-2.7-1.2-2.7-2.7
	s1.2-2.7,2.7-2.7s2.7,1.2,2.7,2.7C66.7,20.7,65.5,21.9,64,21.9z"/>
<path fill="#67C4D9" d="M92.6,121.2V25.7c0-1.2-0.9-2.1-2.1-2.1h-53c-1.2,0-2.1,0.9-2.1,2.1v95.5C44,125.6,53.7,128,64,128
	S84,125.6,92.6,121.2z M64,29.2l13.6,13.6H50.4L64,29.2z M77.6,109.6L64,123.3l-13.6-13.6h27.2V109.6z"/>
<circle fill="#868686" cx="64" cy="19.2" r="2.7"/>
<polygon fill="#DF4A37" points="64,29.2 50.4,42.8 77.6,42.8 "/>
<polygon fill="#2A6AAE" points="77.6,109.6 50.4,109.6 64,123.3 "/>
<g>
	<path fill="#FFFFFF" d="M46.2,69.1h35.6V73H46.2V69.1z M46.2,77.8h35.6v3.9H46.2V77.8z M55.7,79.2L66,70.5c4.3-3.5,6-6.9,6-10.6
		c0-4.6-2.8-7.2-7.5-7.2c-2.1,0-4.6,0.5-7.7,1.7l4.1-2.8l-1.3,6c-0.9,4.1-2.9,5.2-4.6,5.2c-1.5,0-2.8-0.8-3.5-2.4
		c0.5-6.8,6.4-11.5,13.9-11.5c8.2,0,12.8,4.8,12.8,11.3c0,3.6-1.7,7.3-5.9,10.9l-10.7,9.1c-2.9,2.4-4.3,5.3-4.3,9.5
		c0,4.6,3.1,8.3,8.9,8.3c3.1,0,6.1-0.4,9.7-1.5L71.7,99l1.3-6c0.9-4.2,2.7-5.2,4.6-5.2c1.7,0,2.8,0.9,3.5,2.4
		c-0.3,7.2-6.4,11.5-15,11.5c-10.8,0-15-5.2-15-12.4C51.1,85.5,52.2,82.2,55.7,79.2z"/>
</g>
</svg>
