<?xml version="1.0" encoding="utf-8"?>
<!-- Generator: Adobe Illustrator 22.1.0, SVG Export Plug-In . SVG Version: 6.00 Build 0)  -->
<svg version="1.2" baseProfile="tiny" id="Слой_1"
	 xmlns="http://www.w3.org/2000/svg" xmlns:xlink="http://www.w3.org/1999/xlink" x="0px" y="0px" viewBox="0 0 50 50"
	 xml:space="preserve">
<polygon fill="#663D0C" points="0.767,49.014 4.782,50 4.782,28.164 "/>
<polygon fill="#663D0C" points="47.905,0.879 48.875,4.961 26.667,4.961 "/>
<path fill="#F59E24" d="M47.31,0.561c0.633,0.02,0.789,0.407,0.346,0.86L1.392,48.765c-0.443,0.453-0.82,0.305-0.839-0.326
	L0.001,30.361c-0.021-0.633,0.327-1.52,0.771-1.971L27.924,0.785c0.443-0.451,1.324-0.804,1.957-0.784L47.31,0.561z"/>
<g>
	<path fill="#F9FCFC" d="M6.438,27.84l2.808-2.866l4.155,3.941l-0.809,0.826L9.14,26.467l-1.206,1.23l1.774,1.683
		c0.508,0.481,0.847,0.835,1.015,1.06s0.245,0.454,0.231,0.69c-0.015,0.236-0.157,0.491-0.427,0.766
		c-0.095,0.097-0.276,0.265-0.545,0.501l-0.648-0.615L9.518,31.6c0.169-0.173,0.26-0.312,0.271-0.416
		c0.01-0.104-0.077-0.244-0.261-0.42l-0.716-0.675L6.438,27.84z"/>
	<path fill="#F9FCFC" d="M10.856,25.586l0.818-0.834l2.832,1.318l-1.458-2.718l0.795-0.812l1.871,3.793l0.341,0.684
		c0.108,0.235,0.178,0.429,0.209,0.578c0.032,0.15,0.037,0.294,0.015,0.429c-0.022,0.136-0.074,0.278-0.158,0.427
		c-0.085,0.147-0.199,0.297-0.345,0.445c-0.148,0.151-0.309,0.283-0.483,0.398l-0.692-0.522c0.146-0.099,0.266-0.198,0.363-0.297
		c0.179-0.183,0.256-0.369,0.233-0.559c-0.023-0.19-0.096-0.389-0.218-0.595L10.856,25.586z"/>
	<path fill="#F9FCFC" d="M14.245,22.13l0.776-0.792l0.72,0.683c0.164,0.155,0.301,0.257,0.41,0.305
		c0.108,0.047,0.238,0.051,0.388,0.012c0.149-0.039,0.294-0.13,0.435-0.273c0.137-0.14,0.258-0.326,0.364-0.561l-1.284-1.217
		l0.769-0.784l3.01,2.854l-0.769,0.784l-1.201-1.14c-0.216,0.384-0.403,0.655-0.56,0.815c-0.235,0.239-0.499,0.405-0.792,0.497
		c-0.292,0.093-0.555,0.097-0.788,0.013c-0.232-0.085-0.485-0.256-0.757-0.514L14.245,22.13z"/>
	<path fill="#F9FCFC" d="M17.567,18.741l0.706-0.72l2.366,2.244l0.892-0.909l-2.366-2.244l0.708-0.723l2.366,2.244l0.889-0.907
		l-2.366-2.244l0.708-0.722l3.01,2.854l-3.903,3.98L17.567,18.741z"/>
	<path fill="#F9FCFC" d="M22.235,13.979l0.738-0.753l1.891,1.792l-0.709-2.998l0.755-0.77l3.009,2.854l-0.738,0.753l-1.923-1.825
		l0.726,3.047l-0.738,0.753L22.235,13.979z"/>
	<path fill="#F9FCFC" d="M26.297,7.432l0.374-0.382c0.235,0.266,0.35,0.546,0.345,0.84c-0.006,0.294-0.13,0.565-0.372,0.812
		C26.4,8.95,26.13,9.082,25.832,9.098c-0.3,0.016-0.588-0.086-0.867-0.307l0.375-0.382c0.146,0.114,0.294,0.164,0.441,0.15
		c0.147-0.015,0.296-0.098,0.445-0.251c0.149-0.152,0.229-0.302,0.238-0.447S26.418,7.572,26.297,7.432z M25.678,10.468l0.738-0.753
		l1.891,1.792L27.598,8.51l0.755-0.77l3.01,2.854l-0.738,0.753L28.7,9.522l0.726,3.047l-0.738,0.753L25.678,10.468z"/>
</g>
</svg>
