<?xml version="1.0" encoding="utf-8"?>
<!-- Generator: Adobe Illustrator 22.1.0, SVG Export Plug-In . SVG Version: 6.00 Build 0)  -->
<svg version="1.2" baseProfile="tiny" id="Слой_1"
	 xmlns="http://www.w3.org/2000/svg" xmlns:xlink="http://www.w3.org/1999/xlink" x="0px" y="0px" viewBox="0 0 50 50"
	 xml:space="preserve">
<g>
	<polygon fill="#B31279" points="0.767,49.014 4.782,50 4.782,28.164 	"/>
	<polygon fill="#B31279" points="47.905,0.879 48.875,4.961 26.667,4.961 	"/>
	<path fill="#FF19AB" d="M47.31,0.561c0.633,0.02,0.789,0.407,0.346,0.86L1.392,48.765c-0.443,0.453-0.82,0.305-0.839-0.326
		L0.001,30.361c-0.021-0.633,0.327-1.52,0.771-1.971L27.924,0.785c0.443-0.451,1.324-0.804,1.957-0.784L47.31,0.561z"/>
	<g>
		<path fill="#F9FCFC" d="M15.413,26.863l-0.881,0.898l-1.293-0.538l-1.603,1.635l0.613,1.232l-0.859,0.876l-2.594-5.534
			l0.856-0.873L15.413,26.863z M12.278,26.825l-2.094-0.9l1,2.015L12.278,26.825z"/>
		<path fill="#F9FCFC" d="M12.796,23.607l0.766-0.781l1.23,1.167c0.112-0.145,0.161-0.275,0.149-0.392
			c-0.014-0.117-0.094-0.319-0.242-0.606c-0.199-0.383-0.281-0.672-0.248-0.87c0.034-0.197,0.146-0.394,0.335-0.587
			c0.058-0.06,0.164-0.157,0.317-0.296l0.53,0.497c-0.203,0.207-0.313,0.357-0.329,0.452c-0.015,0.098,0.047,0.277,0.188,0.539
			c0.189,0.355,0.23,0.647,0.127,0.881c0.313-0.182,0.736-0.184,1.271-0.008c0.027,0.01,0.058,0.018,0.089,0.026l1.26,0.35
			l-0.826,0.843l-1.253-0.435c-0.254-0.087-0.434-0.125-0.542-0.114c-0.107,0.011-0.218,0.074-0.331,0.189l1.284,1.218l-0.766,0.782
			L12.796,23.607z"/>
		<path fill="#F9FCFC" d="M15.602,20.746l0.769-0.784l2.366,2.244l1.097-1.118l-2.366-2.245l0.769-0.784l2.366,2.244l0.304-0.31
			l1.438,1.362l-0.621,0.634l-0.794-0.753L18.612,23.6L15.602,20.746z"/>
		<path fill="#F9FCFC" d="M19.053,17.225l0.739-0.753l1.891,1.792l-0.709-2.998l0.755-0.77l3.01,2.854L24,18.104l-1.924-1.825
			l0.726,3.047l-0.739,0.753L19.053,17.225z"/>
		<path fill="#F9FCFC" d="M25.004,11.155l3.01,2.854l-0.763,0.778l-1.25-1.186l-0.071,0.073c-0.166,0.169-0.265,0.314-0.298,0.436
			c-0.033,0.121-0.025,0.298,0.023,0.531l0.013,0.104l0.336,1.314l-0.894,0.912l-0.324-1.389c-0.092-0.396-0.093-0.678-0.004-0.843
			c-0.229,0.206-0.487,0.305-0.778,0.293c-0.289-0.011-0.555-0.132-0.797-0.361c-0.194-0.185-0.316-0.387-0.366-0.608
			c-0.05-0.221-0.026-0.43,0.071-0.627c0.096-0.197,0.29-0.443,0.58-0.739L25.004,11.155z M24.754,12.42l-0.55,0.561
			c-0.202,0.207-0.314,0.38-0.337,0.52s0.034,0.275,0.173,0.407c0.138,0.131,0.284,0.178,0.438,0.14
			c0.152-0.038,0.336-0.164,0.547-0.38l0.503-0.513L24.754,12.42z"/>
		<path fill="#F9FCFC" d="M28.022,11.892l-2.308-1.796l-0.976-0.924l0.831-0.848l0.976,0.924l1.911,2.201L28.022,11.892z
			 M28.927,13.078l-0.796-0.755l0.769-0.784l0.796,0.755L28.927,13.078z"/>
	</g>
</g>
</svg>
