<?xml version="1.0" encoding="utf-8"?>
<!-- Generator: Adobe Illustrator 22.1.0, SVG Export Plug-In . SVG Version: 6.00 Build 0)  -->
<svg version="1.2" baseProfile="tiny" id="Слой_1"
	 xmlns="http://www.w3.org/2000/svg" xmlns:xlink="http://www.w3.org/1999/xlink" x="0px" y="0px" viewBox="0 0 50 50"
	 xml:space="preserve">
<polygon fill="#B37014" points="0.767,49.014 4.782,50 4.782,28.164 "/>
<polygon fill="#B37014" points="47.905,0.879 48.875,4.961 26.667,4.961 "/>
<path fill="#F69F24" d="M47.31,0.561c0.633,0.02,0.789,0.407,0.346,0.86L1.392,48.765c-0.443,0.453-0.82,0.305-0.839-0.326
	L0.001,30.361c-0.021-0.633,0.327-1.52,0.771-1.971L27.924,0.785c0.443-0.451,1.324-0.804,1.957-0.784L47.31,0.561z"/>
<g>
	<path fill="#FAFDFD" d="M5.927,34.632l-0.697-0.661l1.321-1.348l0.697,0.661L5.927,34.632z"/>
	<path fill="#FAFDFD" d="M7.534,33.058l0.599-0.751c0.176,0.13,0.357,0.189,0.544,0.181c0.185-0.009,0.339-0.076,0.462-0.201
		c0.14-0.144,0.201-0.32,0.18-0.532c-0.021-0.211-0.15-0.43-0.388-0.655c-0.224-0.212-0.44-0.321-0.647-0.329
		c-0.208-0.007-0.39,0.067-0.545,0.226c-0.193,0.197-0.277,0.457-0.253,0.781l-0.627,0.479L5.31,30.109l1.778-1.813l0.652,0.619
		l-1.268,1.293l0.512,0.693c0.072-0.227,0.187-0.42,0.343-0.579c0.298-0.305,0.664-0.456,1.095-0.454
		c0.433,0.002,0.829,0.173,1.187,0.513c0.299,0.284,0.483,0.623,0.55,1.016c0.092,0.538-0.063,1.013-0.469,1.427
		c-0.324,0.33-0.679,0.513-1.063,0.551S7.879,33.307,7.534,33.058z"/>
	<path fill="#FAFDFD" d="M8.672,26.553c0.34-0.347,0.73-0.498,1.174-0.454c0.526,0.049,1.133,0.4,1.823,1.055
		c0.688,0.652,1.068,1.238,1.138,1.758c0.058,0.429-0.082,0.816-0.421,1.163c-0.341,0.349-0.752,0.5-1.233,0.455
		c-0.48-0.045-1.07-0.398-1.768-1.06c-0.685-0.649-1.063-1.233-1.134-1.753C8.191,27.287,8.332,26.899,8.672,26.553z M9.25,27.102
		c-0.081,0.083-0.127,0.182-0.138,0.298c-0.01,0.116,0.037,0.259,0.141,0.426c0.133,0.218,0.415,0.529,0.84,0.935
		c0.427,0.404,0.741,0.661,0.941,0.77s0.359,0.156,0.476,0.143c0.116-0.014,0.214-0.063,0.295-0.146
		c0.082-0.083,0.127-0.183,0.137-0.299c0.01-0.116-0.037-0.258-0.141-0.426c-0.132-0.216-0.411-0.526-0.838-0.931
		c-0.426-0.404-0.74-0.661-0.941-0.771s-0.36-0.157-0.477-0.144C9.43,26.97,9.332,27.019,9.25,27.102z"/>
	<path fill="#FAFDFD" d="M11.179,25.792c-0.326-0.309-0.499-0.607-0.518-0.897s0.09-0.555,0.326-0.795
		c0.244-0.249,0.513-0.37,0.808-0.363c0.294,0.008,0.604,0.166,0.933,0.477c0.325,0.31,0.497,0.608,0.517,0.898
		c0.019,0.29-0.09,0.555-0.326,0.796c-0.244,0.25-0.513,0.37-0.807,0.363C11.816,26.263,11.506,26.104,11.179,25.792z
		 M11.697,25.253c0.237,0.225,0.422,0.349,0.556,0.371c0.1,0.016,0.184-0.012,0.254-0.083c0.072-0.073,0.099-0.159,0.079-0.256
		c-0.03-0.129-0.163-0.306-0.4-0.53c-0.236-0.224-0.42-0.348-0.55-0.371c-0.1-0.018-0.188,0.011-0.259,0.084
		c-0.07,0.071-0.095,0.156-0.075,0.254C11.329,24.852,11.46,25.03,11.697,25.253z M15.335,27.216l-0.498,0.508l-1.967-5.544
		l0.483-0.493L15.335,27.216z M15.466,25.202c-0.325-0.309-0.498-0.608-0.517-0.898c-0.02-0.289,0.091-0.556,0.331-0.8
		c0.241-0.246,0.508-0.364,0.803-0.356c0.295,0.008,0.605,0.167,0.931,0.476c0.328,0.311,0.501,0.61,0.521,0.9
		c0.02,0.29-0.089,0.555-0.326,0.795c-0.244,0.249-0.513,0.37-0.808,0.362C16.105,25.671,15.794,25.512,15.466,25.202z
		 M15.988,24.665c0.237,0.225,0.421,0.348,0.554,0.369c0.1,0.018,0.186-0.01,0.256-0.081c0.072-0.073,0.098-0.158,0.076-0.254
		c-0.028-0.13-0.16-0.308-0.397-0.532c-0.236-0.224-0.421-0.349-0.552-0.373c-0.1-0.016-0.186,0.013-0.257,0.086
		s-0.097,0.158-0.075,0.253C15.619,24.263,15.752,24.441,15.988,24.665z"/>
	<path fill="#FAFDFD" d="M17.114,19.943l0.672-0.686l0.965,0.915l0.962-0.981l-0.965-0.915l0.675-0.688l2.634,2.498l-0.675,0.688
		l-1.105-1.049l-0.962,0.981l1.105,1.049l-0.672,0.687L17.114,19.943z"/>
	<path fill="#FAFDFD" d="M21.225,18.27c-0.232-0.22-0.401-0.488-0.508-0.806c-0.105-0.317-0.115-0.633-0.028-0.948
		c0.089-0.313,0.256-0.597,0.505-0.851c0.384-0.392,0.829-0.59,1.333-0.596c0.505-0.006,0.954,0.179,1.349,0.554
		c0.398,0.377,0.604,0.817,0.618,1.319c0.015,0.501-0.167,0.945-0.543,1.329c-0.233,0.238-0.51,0.413-0.83,0.524
		c-0.321,0.112-0.642,0.124-0.963,0.037C21.838,18.744,21.526,18.557,21.225,18.27z M21.951,17.603
		c0.261,0.247,0.521,0.375,0.779,0.385s0.475-0.075,0.651-0.254c0.175-0.179,0.253-0.395,0.233-0.648
		c-0.02-0.253-0.162-0.504-0.427-0.756c-0.258-0.245-0.516-0.372-0.773-0.382c-0.258-0.011-0.475,0.074-0.65,0.252
		c-0.176,0.179-0.253,0.396-0.234,0.649S21.689,17.355,21.951,17.603z"/>
	<path fill="#FAFDFD" d="M23.101,13.837l1.472-1.501c0.301-0.308,0.585-0.483,0.848-0.528c0.265-0.044,0.511,0.042,0.74,0.26
		c0.147,0.14,0.235,0.303,0.262,0.49c0.027,0.188-0.003,0.362-0.091,0.523c0.22-0.136,0.435-0.19,0.643-0.163
		c0.208,0.028,0.386,0.111,0.531,0.25c0.205,0.194,0.299,0.426,0.282,0.696c-0.018,0.27-0.168,0.549-0.452,0.838l-1.601,1.633
		L23.101,13.837z M24.872,14.184l0.433-0.442c0.209-0.213,0.333-0.393,0.371-0.54c0.039-0.147,0-0.276-0.118-0.388
		c-0.11-0.105-0.233-0.136-0.367-0.091c-0.135,0.043-0.313,0.179-0.534,0.405l-0.433,0.442L24.872,14.184z M25.965,15.221
		l0.531-0.542c0.191-0.195,0.307-0.36,0.347-0.496c0.04-0.135-0.001-0.261-0.126-0.379c-0.129-0.123-0.269-0.155-0.418-0.099
		s-0.369,0.232-0.659,0.529l-0.344,0.352L25.965,15.221z"/>
	<path fill="#FAFDFD" d="M26.089,10.789l0.646-0.659l1.654,1.569l-0.621-2.624l0.66-0.673l2.634,2.498l-0.646,0.659l-1.684-1.597
		l0.636,2.666l-0.646,0.659L26.089,10.789z"/>
	<path fill="#FAFDFD" d="M29.138,7.679L29.97,6.83l2.467,1.096l-1.198-2.39l0.83-0.847l2.634,2.498l-0.571,0.583l-1.733-1.644
		l1.113,2.275l-0.574,0.586l-2.324-1.041l1.733,1.644l-0.574,0.586L29.138,7.679z"/>
</g>
</svg>
