<?xml version="1.0" encoding="utf-8"?>
<!-- Generator: Adobe Illustrator 22.1.0, SVG Export Plug-In . SVG Version: 6.00 Build 0)  -->
<svg version="1.2" baseProfile="tiny" id="Слой_1"
	 xmlns="http://www.w3.org/2000/svg" xmlns:xlink="http://www.w3.org/1999/xlink" x="0px" y="0px" viewBox="0 0 50 50"
	 xml:space="preserve">
<g>
	<polygon fill="#B31279" points="0.767,49.014 4.782,50 4.782,28.164 	"/>
	<polygon fill="#B31279" points="47.905,0.879 48.875,4.961 26.667,4.961 	"/>
	<path fill="#FF19AB" d="M47.31,0.561c0.633,0.02,0.789,0.407,0.346,0.86L1.392,48.765c-0.443,0.453-0.82,0.305-0.839-0.326
		L0.001,30.361c-0.021-0.633,0.327-1.52,0.771-1.971L27.924,0.785c0.443-0.451,1.324-0.804,1.957-0.784L47.31,0.561z"/>
	<g>
		<path fill="#F9FCFC" d="M16.356,25.901L15.475,26.8l-1.293-0.538l-1.603,1.635l0.612,1.232l-0.859,0.876l-2.594-5.534l0.856-0.873
			L16.356,25.901z M13.222,25.862l-2.095-0.898l1,2.015L13.222,25.862z"/>
		<path fill="#F9FCFC" d="M13.74,22.645l0.766-0.781l1.23,1.166c0.112-0.144,0.161-0.275,0.148-0.392
			c-0.014-0.116-0.094-0.318-0.242-0.606c-0.198-0.382-0.281-0.672-0.248-0.869c0.034-0.198,0.146-0.394,0.335-0.587
			c0.058-0.06,0.165-0.158,0.317-0.296l0.53,0.497c-0.202,0.206-0.312,0.357-0.329,0.452c-0.015,0.098,0.047,0.276,0.188,0.539
			c0.189,0.354,0.23,0.647,0.127,0.88c0.313-0.181,0.736-0.183,1.271-0.007c0.028,0.009,0.058,0.018,0.09,0.026l1.259,0.35
			l-0.826,0.842l-1.253-0.435c-0.254-0.087-0.434-0.124-0.542-0.113c-0.107,0.011-0.218,0.074-0.331,0.189l1.284,1.218L16.75,25.5
			L13.74,22.645z"/>
		<path fill="#F9FCFC" d="M16.546,19.783l0.768-0.784l2.366,2.245l1.097-1.119l-2.366-2.244l0.769-0.784l2.366,2.244l0.304-0.31
			l1.438,1.363l-0.621,0.633l-0.794-0.752l-2.316,2.362L16.546,19.783z"/>
		<path fill="#F9FCFC" d="M19.608,15.856l-0.737-0.699l0.769-0.784l0.737,0.699L19.608,15.856z M23.026,19.098l-3.01-2.854
			l0.769-0.784l3.01,2.854L23.026,19.098z"/>
		<path fill="#F9FCFC" d="M24.061,12.118l3.01,2.854l-0.763,0.778l-1.25-1.186l-0.071,0.073c-0.166,0.169-0.265,0.314-0.299,0.436
			c-0.032,0.121-0.025,0.298,0.024,0.531l0.013,0.104l0.336,1.314l-0.895,0.912l-0.323-1.389c-0.092-0.396-0.094-0.678-0.004-0.843
			c-0.229,0.206-0.487,0.305-0.778,0.293c-0.289-0.012-0.555-0.132-0.797-0.361c-0.194-0.185-0.316-0.387-0.366-0.608
			c-0.05-0.221-0.026-0.43,0.071-0.627c0.096-0.197,0.29-0.443,0.58-0.739L24.061,12.118z M23.811,13.382l-0.55,0.561
			c-0.203,0.207-0.314,0.38-0.337,0.52c-0.022,0.141,0.034,0.275,0.173,0.407c0.138,0.131,0.284,0.177,0.438,0.14
			c0.152-0.038,0.336-0.164,0.547-0.38l0.503-0.513L23.811,13.382z"/>
		<path fill="#F9FCFC" d="M27.079,12.854l-2.308-1.796l-0.976-0.924l0.831-0.848l0.976,0.924l1.911,2.201L27.079,12.854z
			 M27.983,14.041l-0.796-0.755l0.769-0.784l0.796,0.755L27.983,14.041z"/>
	</g>
</g>
</svg>
