<?xml version="1.0" encoding="utf-8"?>
<!-- Generator: Adobe Illustrator 22.1.0, SVG Export Plug-In . SVG Version: 6.00 Build 0)  -->
<svg version="1.2" baseProfile="tiny" id="Слой_1"
	 xmlns="http://www.w3.org/2000/svg" xmlns:xlink="http://www.w3.org/1999/xlink" x="0px" y="0px" viewBox="0 0 50 50"
	 xml:space="preserve">
<g>
	<polygon fill="#501017" points="47.905,0.879 48.875,4.961 26.667,4.961 	"/>
	<polygon fill="#501017" points="0.767,49.014 4.782,50 4.782,28.164 	"/>
	<path fill="#CD1417" d="M47.31,0.561c0.633,0.02,0.789,0.407,0.346,0.86L1.392,48.765c-0.443,0.453-0.82,0.305-0.839-0.326
		L0.001,30.361c-0.021-0.633,0.327-1.52,0.771-1.971L27.924,0.785c0.443-0.451,1.324-0.804,1.957-0.784L47.31,0.561z"/>
	<g>
		<path fill="#F9FCFC" d="M6.01,36.453l-3.375-3.201l1.056-1.076c0.4-0.408,0.676-0.658,0.832-0.75
			c0.237-0.143,0.504-0.197,0.799-0.165c0.296,0.033,0.579,0.176,0.847,0.431c0.207,0.197,0.345,0.399,0.414,0.606
			c0.068,0.208,0.087,0.408,0.056,0.599c-0.032,0.19-0.092,0.356-0.182,0.499c-0.124,0.191-0.336,0.438-0.633,0.742l-0.429,0.438
			l1.273,1.207L6.01,36.453z M3.863,33.123l0.958,0.908l0.36-0.367c0.259-0.265,0.415-0.458,0.467-0.581
			c0.052-0.122,0.065-0.244,0.04-0.366C5.663,32.595,5.6,32.486,5.5,32.392c-0.123-0.116-0.258-0.177-0.408-0.182
			s-0.288,0.037-0.414,0.128c-0.094,0.064-0.259,0.22-0.497,0.461L3.863,33.123z"/>
		<path fill="#F9FCFC" d="M9.517,31.347l0.729-0.533c0.156,0.307,0.21,0.605,0.161,0.898c-0.048,0.294-0.203,0.572-0.462,0.837
			c-0.411,0.419-0.853,0.597-1.328,0.534c-0.378-0.053-0.737-0.239-1.076-0.562c-0.405-0.385-0.62-0.79-0.646-1.216
			c-0.026-0.427,0.118-0.799,0.431-1.118c0.351-0.357,0.748-0.526,1.191-0.506c0.443,0.021,0.909,0.271,1.396,0.751L8.35,32.028
			c0.196,0.177,0.396,0.268,0.599,0.271c0.203,0.003,0.376-0.068,0.52-0.215c0.098-0.1,0.152-0.211,0.163-0.331
			C9.644,31.633,9.605,31.497,9.517,31.347z M8.897,30.688c-0.191-0.172-0.38-0.26-0.567-0.261
			c-0.187-0.003-0.344,0.062-0.471,0.191c-0.137,0.139-0.197,0.303-0.184,0.491c0.014,0.188,0.109,0.364,0.288,0.53L8.897,30.688z"
			/>
		<path fill="#F9FCFC" d="M8.988,28.602l0.622-0.635l1,0.948c0.092-0.117,0.132-0.224,0.122-0.318s-0.076-0.259-0.197-0.492
			c-0.162-0.311-0.229-0.546-0.201-0.706c0.028-0.162,0.119-0.32,0.273-0.478c0.047-0.048,0.132-0.129,0.257-0.24l0.43,0.403
			c-0.165,0.168-0.253,0.29-0.267,0.368c-0.012,0.078,0.04,0.225,0.153,0.438c0.153,0.288,0.188,0.526,0.104,0.716
			c0.253-0.147,0.598-0.149,1.032-0.006c0.022,0.007,0.047,0.014,0.072,0.021l1.023,0.284l-0.671,0.685l-1.018-0.354
			c-0.207-0.07-0.353-0.101-0.44-0.092c-0.089,0.009-0.177,0.061-0.27,0.154l1.043,0.989l-0.622,0.635L8.988,28.602z"/>
		<path fill="#F9FCFC" d="M12.275,27.59c-0.216-0.204-0.372-0.453-0.471-0.748c-0.099-0.296-0.108-0.589-0.026-0.881
			c0.081-0.291,0.237-0.555,0.468-0.791c0.357-0.363,0.77-0.548,1.238-0.553c0.468-0.005,0.886,0.167,1.253,0.515
			c0.37,0.352,0.562,0.759,0.575,1.226c0.013,0.465-0.155,0.876-0.505,1.232c-0.216,0.221-0.473,0.383-0.77,0.488
			c-0.299,0.104-0.597,0.114-0.894,0.033C12.845,28.029,12.555,27.855,12.275,27.59z M12.949,26.97
			c0.243,0.23,0.484,0.35,0.724,0.358c0.24,0.009,0.441-0.069,0.604-0.236c0.163-0.166,0.235-0.366,0.216-0.601
			c-0.019-0.235-0.151-0.47-0.396-0.703c-0.24-0.228-0.479-0.346-0.718-0.355c-0.24-0.01-0.441,0.068-0.604,0.234
			c-0.163,0.167-0.236,0.368-0.217,0.604C12.577,26.507,12.707,26.739,12.949,26.97z"/>
		<path fill="#F9FCFC" d="M13.967,23.522l0.773-0.788l2.292,1.018l-1.114-2.219l0.771-0.787l2.446,2.32l-0.531,0.542l-1.609-1.527
			l1.034,2.114l-0.533,0.544l-2.158-0.968l1.609,1.527l-0.533,0.544L13.967,23.522z"/>
		<path fill="#F9FCFC" d="M20.351,20.295l0.729-0.532c0.157,0.306,0.21,0.605,0.161,0.899c-0.048,0.293-0.203,0.571-0.462,0.836
			c-0.41,0.419-0.853,0.597-1.328,0.534c-0.378-0.052-0.737-0.239-1.076-0.562c-0.405-0.385-0.621-0.79-0.646-1.216
			c-0.026-0.426,0.118-0.799,0.431-1.118c0.351-0.358,0.748-0.526,1.191-0.506c0.443,0.021,0.909,0.271,1.396,0.751l-1.564,1.595
			c0.196,0.177,0.396,0.268,0.599,0.271c0.203,0.002,0.376-0.069,0.521-0.216c0.098-0.1,0.151-0.21,0.163-0.331
			C20.478,20.582,20.439,20.446,20.351,20.295z M19.731,19.638c-0.191-0.173-0.38-0.26-0.567-0.261
			c-0.187-0.002-0.343,0.062-0.471,0.191c-0.136,0.139-0.197,0.303-0.184,0.491c0.014,0.188,0.11,0.365,0.288,0.53L19.731,19.638z"
			/>
		<path fill="#F9FCFC" d="M19.822,17.55l0.624-0.637l0.896,0.85l0.894-0.911l-0.896-0.85l0.626-0.639l2.446,2.32l-0.626,0.639
			l-1.027-0.975l-0.894,0.911l1.027,0.975l-0.624,0.637L19.822,17.55z"/>
		<path fill="#F9FCFC" d="M26.992,15.052l-1.787,1.822l0.646,0.611l-0.506,0.517l-1.176-1.114l0.255-0.261
			c-0.015-0.225-0.12-0.497-0.311-0.815c-0.191-0.318-0.597-0.785-1.216-1.398l1.904-1.942l1.916,1.817l0.254-0.258l1.176,1.114
			l-0.509,0.519L26.992,15.052z M26.1,14.918l-1.381-1.314l-0.755,0.771c0.651,0.667,1.009,1.21,1.073,1.629L26.1,14.918z"/>
		<path fill="#F9FCFC" d="M25.244,12.021l0.665-0.678l2.301,1.071l-1.186-2.209l0.646-0.659l1.521,3.082l0.276,0.556
			c0.089,0.192,0.146,0.349,0.171,0.47c0.025,0.122,0.03,0.238,0.012,0.348c-0.018,0.11-0.061,0.226-0.128,0.346
			c-0.068,0.121-0.161,0.242-0.279,0.363c-0.12,0.122-0.252,0.229-0.393,0.323l-0.563-0.424c0.118-0.081,0.217-0.161,0.296-0.241
			c0.145-0.148,0.207-0.3,0.189-0.454c-0.02-0.155-0.078-0.316-0.179-0.483L25.244,12.021z"/>
		<path fill="#F9FCFC" d="M31.045,9.387l0.729-0.533c0.156,0.307,0.21,0.605,0.161,0.899c-0.048,0.293-0.202,0.572-0.462,0.836
			c-0.41,0.418-0.853,0.597-1.328,0.534c-0.378-0.052-0.737-0.24-1.076-0.562c-0.405-0.384-0.62-0.79-0.646-1.215
			c-0.025-0.426,0.118-0.799,0.431-1.118c0.352-0.358,0.748-0.526,1.191-0.506c0.443,0.021,0.909,0.271,1.396,0.751l-1.563,1.595
			c0.195,0.177,0.396,0.268,0.599,0.271c0.203,0.002,0.377-0.069,0.521-0.215c0.098-0.1,0.151-0.21,0.162-0.331
			C31.172,9.673,31.133,9.538,31.045,9.387z M30.426,8.73c-0.191-0.173-0.381-0.26-0.567-0.262
			c-0.187-0.002-0.344,0.062-0.471,0.192c-0.137,0.139-0.197,0.303-0.184,0.491s0.109,0.365,0.288,0.531L30.426,8.73z"/>
		<path fill="#F9FCFC" d="M30.498,6.661l0.773-0.789l2.292,1.019l-1.114-2.22l0.771-0.787l2.446,2.32l-0.531,0.542l-1.608-1.527
			l1.033,2.114l-0.533,0.544L31.868,6.91l1.609,1.527L32.944,8.98L30.498,6.661z"/>
	</g>
</g>
</svg>
