<?xml version="1.0" encoding="utf-8"?>
<!-- Generator: Adobe Illustrator 22.1.0, SVG Export Plug-In . SVG Version: 6.00 Build 0)  -->
<svg version="1.2" baseProfile="tiny" id="Слой_1"
	 xmlns="http://www.w3.org/2000/svg" xmlns:xlink="http://www.w3.org/1999/xlink" x="0px" y="0px" viewBox="0 0 50 50"
	 xml:space="preserve">
<g>
	<polygon fill="#663D0C" points="0.767,49.014 4.782,50 4.782,28.164 	"/>
	<polygon fill="#663D0C" points="47.905,0.879 48.875,4.961 26.667,4.961 	"/>
	<path fill="#F59E24" d="M47.31,0.561c0.633,0.02,0.789,0.407,0.346,0.86L1.392,48.765c-0.443,0.453-0.82,0.305-0.839-0.326
		L0.001,30.361c-0.021-0.633,0.327-1.52,0.771-1.971L27.924,0.785c0.443-0.451,1.324-0.804,1.957-0.784L47.31,0.561z"/>
	<g>
		<path fill="#F9FCFC" d="M6.306,27.974l0.81-0.826l1.769,1.678c0.162-0.202,0.236-0.373,0.222-0.511
			c-0.013-0.139-0.13-0.443-0.35-0.914c-0.283-0.599-0.393-1.035-0.333-1.313c0.057-0.276,0.273-0.603,0.647-0.985
			c0.019-0.019,0.058-0.059,0.115-0.122l0.621,0.589l-0.118,0.114c-0.166,0.169-0.266,0.313-0.3,0.431
			c-0.034,0.119-0.031,0.243,0.008,0.375c0.04,0.131,0.148,0.371,0.326,0.723c0.094,0.186,0.161,0.354,0.199,0.504
			c0.04,0.15,0.029,0.34-0.032,0.569c0.233-0.134,0.489-0.186,0.768-0.152c0.278,0.032,0.634,0.116,1.066,0.25l1.687,0.523
			l-0.952,0.971l-1.553-0.53c-0.022-0.007-0.067-0.02-0.134-0.036c-0.024-0.005-0.123-0.033-0.296-0.083
			c-0.308-0.087-0.521-0.121-0.639-0.102s-0.245,0.098-0.384,0.235l1.819,1.726l-0.81,0.826L6.306,27.974z"/>
		<path fill="#F9FCFC" d="M10.829,25.614l0.717-0.73l0.442,0.419c-0.059-0.238-0.056-0.483,0.008-0.734
			c0.065-0.251,0.193-0.476,0.386-0.673c0.337-0.344,0.76-0.506,1.27-0.485c0.51,0.02,1.008,0.262,1.499,0.726
			c0.502,0.477,0.775,0.968,0.816,1.474c0.041,0.506-0.106,0.932-0.444,1.276c-0.16,0.164-0.339,0.28-0.536,0.351
			c-0.196,0.07-0.446,0.104-0.751,0.098l1.517,1.438l-0.769,0.783L10.829,25.614z M13.043,26.218
			c0.338,0.32,0.653,0.492,0.944,0.513c0.291,0.021,0.529-0.063,0.715-0.253c0.179-0.182,0.252-0.404,0.223-0.666
			c-0.03-0.262-0.214-0.553-0.553-0.873c-0.314-0.3-0.611-0.46-0.885-0.48c-0.275-0.021-0.503,0.062-0.684,0.246
			c-0.188,0.191-0.269,0.421-0.243,0.689C12.587,25.664,12.748,25.938,13.043,26.218z"/>
		<path fill="#F9FCFC" d="M15.764,22.387l-0.827,0.588c-0.213-0.356-0.293-0.698-0.242-1.026c0.052-0.327,0.266-0.685,0.643-1.069
			c0.343-0.35,0.64-0.569,0.892-0.661c0.253-0.091,0.477-0.11,0.674-0.058c0.198,0.054,0.47,0.244,0.815,0.572l0.922,0.89
			c0.265,0.251,0.472,0.424,0.623,0.518c0.15,0.094,0.331,0.175,0.542,0.242l-0.76,0.775c-0.073-0.03-0.175-0.079-0.309-0.148
			c-0.06-0.031-0.1-0.052-0.12-0.061c0,0.26-0.041,0.497-0.125,0.712c-0.083,0.215-0.209,0.409-0.379,0.582
			c-0.299,0.306-0.619,0.466-0.958,0.482c-0.34,0.017-0.64-0.098-0.896-0.342c-0.171-0.161-0.283-0.345-0.337-0.551
			c-0.055-0.207-0.047-0.415,0.023-0.627c0.071-0.211,0.213-0.478,0.426-0.799c0.289-0.433,0.473-0.749,0.551-0.947l-0.079-0.075
			c-0.153-0.146-0.299-0.211-0.438-0.199c-0.138,0.013-0.309,0.122-0.511,0.328c-0.137,0.14-0.215,0.275-0.236,0.406
			S15.672,22.207,15.764,22.387z M17.439,21.951c-0.064,0.133-0.18,0.331-0.346,0.593c-0.167,0.263-0.259,0.449-0.28,0.559
			c-0.026,0.173,0.017,0.313,0.13,0.42c0.111,0.105,0.248,0.156,0.409,0.151c0.163-0.005,0.305-0.07,0.429-0.197
			c0.138-0.141,0.224-0.32,0.255-0.538c0.021-0.163-0.005-0.309-0.081-0.438c-0.047-0.085-0.167-0.218-0.357-0.398L17.439,21.951z"
			/>
		<path fill="#F9FCFC" d="M17.37,18.942l0.708-0.723l2.366,2.244l0.883-0.901l-2.366-2.244l0.708-0.722l2.366,2.244l0.895-0.912
			l-2.366-2.244l0.708-0.723l2.366,2.244l0.314-0.321l1.438,1.363l-0.621,0.633l-0.794-0.752l-3.596,3.668L17.37,18.942z"/>
		<path fill="#F9FCFC" d="M22.093,14.125l0.738-0.753l1.891,1.792l-0.709-2.998l0.755-0.77l3.01,2.854l-0.738,0.753l-1.924-1.825
			l0.726,3.047l-0.738,0.753L22.093,14.125z"/>
		<path fill="#F9FCFC" d="M26.154,7.577l0.375-0.382c0.234,0.266,0.349,0.546,0.344,0.84s-0.13,0.565-0.372,0.812
			c-0.242,0.248-0.513,0.379-0.812,0.396c-0.299,0.016-0.588-0.086-0.867-0.307l0.375-0.382c0.146,0.114,0.294,0.164,0.441,0.15
			c0.146-0.015,0.296-0.098,0.445-0.251c0.149-0.152,0.229-0.302,0.238-0.447S26.275,7.717,26.154,7.577z M25.536,10.613
			l0.738-0.753l1.891,1.792l-0.71-2.998l0.755-0.77l3.01,2.854l-0.738,0.753l-1.924-1.825l0.727,3.047l-0.738,0.753L25.536,10.613z"
			/>
	</g>
</g>
</svg>
