<?xml version="1.0" encoding="utf-8"?>
<!-- Generator: Adobe Illustrator 22.1.0, SVG Export Plug-In . SVG Version: 6.00 Build 0)  -->
<svg version="1.2" baseProfile="tiny" id="Слой_1"
	 xmlns="http://www.w3.org/2000/svg" xmlns:xlink="http://www.w3.org/1999/xlink" x="0px" y="0px" viewBox="0 0 50 50"
	 xml:space="preserve">
<polygon fill="#16384C" points="0.767,49.014 4.782,50 4.782,28.164 "/>
<polygon fill="#16384C" points="47.905,0.879 48.875,4.961 26.667,4.961 "/>
<path fill="#2F75B9" d="M47.31,0.561c0.633,0.02,0.789,0.407,0.346,0.86L1.392,48.765c-0.443,0.453-0.82,0.305-0.839-0.326
	L0.001,30.361c-0.021-0.633,0.327-1.52,0.771-1.971L27.924,0.785c0.443-0.451,1.324-0.804,1.957-0.784L47.31,0.561z"/>
<g>
	<path fill="#FAFDFD" d="M2.031,33.356l2.79-2.847l3.636,3.448l-0.708,0.723l-3.025-2.869l-1.374,1.4l3.025,2.87l-0.708,0.723
		L2.031,33.356z"/>
	<path fill="#FAFDFD" d="M9.808,30.931l0.788-0.573c0.167,0.329,0.225,0.651,0.173,0.967c-0.053,0.316-0.219,0.617-0.498,0.901
		c-0.442,0.451-0.918,0.643-1.431,0.575c-0.407-0.057-0.793-0.258-1.158-0.604c-0.437-0.413-0.668-0.851-0.695-1.31
		s0.127-0.859,0.464-1.203c0.378-0.386,0.807-0.567,1.284-0.545c0.478,0.022,0.978,0.292,1.502,0.808l-1.685,1.719
		c0.212,0.191,0.427,0.289,0.646,0.292c0.218,0.003,0.405-0.074,0.56-0.232c0.105-0.107,0.164-0.226,0.176-0.355
		S9.904,31.093,9.808,30.931z M9.143,30.224c-0.207-0.187-0.411-0.281-0.611-0.282c-0.201-0.002-0.369,0.066-0.506,0.206
		c-0.147,0.15-0.213,0.326-0.199,0.528c0.016,0.203,0.119,0.394,0.311,0.572L9.143,30.224z"/>
	<path fill="#FAFDFD" d="M9.247,27.968l0.627-0.64l0.387,0.367c-0.05-0.209-0.048-0.422,0.008-0.643
		c0.056-0.22,0.169-0.416,0.338-0.589c0.295-0.301,0.666-0.442,1.111-0.425c0.446,0.018,0.883,0.229,1.311,0.635
		c0.44,0.417,0.679,0.848,0.715,1.29c0.036,0.443-0.093,0.815-0.389,1.116c-0.14,0.144-0.297,0.245-0.467,0.308
		c-0.173,0.061-0.392,0.089-0.658,0.085l1.326,1.258l-0.672,0.686L9.247,27.968z M11.185,28.496c0.296,0.28,0.571,0.431,0.826,0.448
		c0.255,0.019,0.463-0.055,0.626-0.221c0.156-0.159,0.221-0.354,0.196-0.582c-0.026-0.229-0.188-0.484-0.483-0.764
		c-0.276-0.263-0.535-0.403-0.776-0.421c-0.242-0.019-0.44,0.054-0.598,0.215c-0.165,0.167-0.234,0.369-0.212,0.604
		C10.787,28.012,10.927,28.251,11.185,28.496z"/>
	<path fill="#FAFDFD" d="M15.527,25.096l0.787-0.572c0.168,0.329,0.225,0.651,0.173,0.967c-0.053,0.316-0.219,0.618-0.498,0.902
		c-0.442,0.451-0.918,0.643-1.43,0.574c-0.407-0.056-0.793-0.258-1.159-0.604c-0.437-0.415-0.668-0.851-0.695-1.31
		c-0.027-0.459,0.127-0.86,0.464-1.203c0.378-0.386,0.806-0.567,1.283-0.545c0.478,0.022,0.978,0.292,1.502,0.808l-1.685,1.719
		c0.212,0.192,0.427,0.289,0.646,0.292c0.218,0.003,0.405-0.075,0.56-0.233c0.105-0.107,0.164-0.227,0.176-0.355
		C15.664,25.406,15.624,25.259,15.527,25.096z M14.861,24.389c-0.207-0.187-0.411-0.28-0.611-0.282
		c-0.201-0.002-0.369,0.067-0.506,0.207c-0.147,0.15-0.213,0.326-0.199,0.528c0.016,0.203,0.119,0.394,0.311,0.572L14.861,24.389z"
		/>
	<path fill="#FAFDFD" d="M14.992,22.107l1.472-1.501c0.302-0.307,0.585-0.483,0.848-0.528c0.265-0.044,0.511,0.042,0.741,0.26
		c0.147,0.14,0.235,0.303,0.261,0.49c0.027,0.188-0.002,0.362-0.091,0.523c0.219-0.137,0.434-0.191,0.642-0.163
		c0.208,0.028,0.386,0.111,0.532,0.25c0.205,0.194,0.298,0.426,0.282,0.696c-0.017,0.27-0.168,0.549-0.452,0.838l-1.601,1.633
		L14.992,22.107z M16.763,22.454l0.433-0.441c0.209-0.214,0.333-0.394,0.372-0.54s0-0.276-0.118-0.388
		c-0.11-0.104-0.233-0.136-0.367-0.091c-0.135,0.043-0.313,0.179-0.535,0.404l-0.433,0.441L16.763,22.454z M17.857,23.492
		l0.531-0.542c0.191-0.195,0.307-0.361,0.347-0.496c0.04-0.135-0.001-0.261-0.126-0.379c-0.129-0.122-0.268-0.155-0.417-0.099
		c-0.149,0.056-0.37,0.232-0.66,0.528l-0.345,0.352L17.857,23.492z"/>
	<path fill="#FAFDFD" d="M17.641,18.703l-0.646-0.612l0.673-0.686l0.646,0.612L17.641,18.703z M20.631,21.54l-2.634-2.498
		l0.673-0.686l2.634,2.498L20.631,21.54z"/>
	<path fill="#FAFDFD" d="M19.34,17.672l0.627-0.639l0.387,0.367c-0.051-0.209-0.048-0.422,0.008-0.643s0.168-0.417,0.338-0.589
		c0.295-0.301,0.666-0.443,1.11-0.425c0.446,0.018,0.883,0.229,1.311,0.635c0.44,0.417,0.678,0.848,0.715,1.29
		c0.036,0.443-0.094,0.815-0.389,1.116c-0.141,0.143-0.297,0.245-0.468,0.307c-0.172,0.062-0.391,0.09-0.658,0.085l1.326,1.258
		l-0.672,0.686L19.34,17.672z M21.278,18.201c0.296,0.281,0.571,0.43,0.826,0.449s0.463-0.055,0.626-0.221
		c0.156-0.159,0.221-0.354,0.196-0.583c-0.026-0.229-0.188-0.484-0.483-0.764c-0.276-0.262-0.535-0.402-0.775-0.42
		c-0.242-0.019-0.44,0.053-0.599,0.214c-0.164,0.167-0.234,0.369-0.212,0.604C20.88,17.716,21.02,17.956,21.278,18.201z"/>
	<path fill="#FAFDFD" d="M25.62,14.802l0.787-0.572c0.168,0.329,0.226,0.651,0.173,0.967c-0.053,0.316-0.219,0.617-0.498,0.901
		c-0.442,0.451-0.918,0.642-1.43,0.574c-0.407-0.056-0.793-0.258-1.158-0.604c-0.437-0.414-0.668-0.851-0.695-1.31
		c-0.027-0.459,0.127-0.86,0.464-1.203c0.378-0.386,0.806-0.567,1.284-0.545c0.478,0.022,0.978,0.292,1.502,0.808l-1.685,1.718
		c0.212,0.191,0.427,0.289,0.646,0.292c0.218,0.003,0.405-0.075,0.56-0.232c0.105-0.107,0.164-0.226,0.176-0.355
		C25.757,15.111,25.716,14.965,25.62,14.802z M24.955,14.095c-0.207-0.187-0.411-0.281-0.611-0.282
		c-0.201-0.002-0.37,0.067-0.506,0.207c-0.147,0.149-0.213,0.326-0.199,0.528c0.016,0.203,0.119,0.394,0.311,0.572L24.955,14.095z"
		/>
	<path fill="#FAFDFD" d="M25.052,11.847l0.672-0.686l0.964,0.915l0.962-0.981l-0.965-0.915l0.675-0.688l2.634,2.498l-0.675,0.688
		l-1.105-1.049l-0.962,0.981l1.105,1.049l-0.672,0.686L25.052,11.847z"/>
	<path fill="#FAFDFD" d="M28.021,8.818l0.646-0.659l1.654,1.569l-0.62-2.624l0.66-0.674l2.634,2.498L32.35,9.588l-1.684-1.597
		l0.635,2.666l-0.646,0.659L28.021,8.818z"/>
	<path fill="#FAFDFD" d="M31.575,3.089l0.327-0.334c0.207,0.233,0.308,0.478,0.302,0.735c-0.005,0.258-0.113,0.494-0.325,0.71
		c-0.212,0.217-0.449,0.332-0.711,0.347c-0.261,0.014-0.514-0.076-0.759-0.27l0.328-0.334c0.129,0.1,0.258,0.144,0.388,0.131
		c0.129-0.013,0.258-0.086,0.389-0.22c0.131-0.133,0.201-0.263,0.209-0.39C31.73,3.336,31.682,3.211,31.575,3.089z M31.034,5.745
		l0.646-0.659l1.654,1.569l-0.62-2.624l0.66-0.674l2.634,2.498l-0.646,0.659l-1.684-1.597l0.636,2.666l-0.646,0.659L31.034,5.745z"
		/>
</g>
</svg>
