<?xml version="1.0" encoding="utf-8"?>
<!-- Generator: Adobe Illustrator 22.1.0, SVG Export Plug-In . SVG Version: 6.00 Build 0)  -->
<svg version="1.2" baseProfile="tiny" id="Слой_1"
	 xmlns="http://www.w3.org/2000/svg" xmlns:xlink="http://www.w3.org/1999/xlink" x="0px" y="0px" viewBox="0 0 50 50"
	 xml:space="preserve">
<g>
	<polygon fill="#252593" points="0.767,49.014 4.782,50 4.782,28.164 	"/>
	<polygon fill="#252593" points="47.905,0.879 48.875,4.961 26.667,4.961 	"/>
	<path fill="#2E2EB8" d="M47.31,0.561c0.633,0.02,0.789,0.407,0.346,0.86L1.392,48.765c-0.443,0.453-0.82,0.305-0.839-0.326
		L0.001,30.361c-0.021-0.633,0.327-1.52,0.771-1.971L27.924,0.785c0.443-0.451,1.324-0.804,1.957-0.784L47.31,0.561z"/>
	<g>
		<path fill="#F9FCFC" d="M8.242,34.178l-4.155-3.94l0.81-0.826l1.636,1.551l1.586-1.617l-1.636-1.551l0.81-0.826l4.155,3.94
			l-0.81,0.826l-1.816-1.724l-1.586,1.618l1.816,1.723L8.242,34.178z"/>
		<path fill="#F9FCFC" d="M10.761,27.49l-0.827,0.588c-0.212-0.356-0.293-0.698-0.242-1.025s0.266-0.685,0.644-1.07
			c0.343-0.35,0.64-0.57,0.892-0.661c0.252-0.092,0.477-0.11,0.674-0.058c0.198,0.053,0.47,0.243,0.815,0.571l0.921,0.891
			c0.265,0.25,0.473,0.423,0.623,0.517c0.149,0.094,0.331,0.175,0.542,0.242l-0.76,0.775c-0.073-0.029-0.176-0.078-0.309-0.147
			c-0.06-0.032-0.1-0.053-0.12-0.061c0,0.26-0.041,0.496-0.125,0.711c-0.083,0.216-0.209,0.41-0.379,0.583
			c-0.299,0.305-0.619,0.465-0.959,0.481s-0.639-0.097-0.896-0.341c-0.171-0.161-0.283-0.345-0.337-0.552
			c-0.056-0.206-0.047-0.415,0.023-0.626c0.071-0.211,0.213-0.478,0.425-0.8c0.289-0.433,0.474-0.748,0.551-0.947l-0.079-0.075
			c-0.153-0.145-0.299-0.211-0.438-0.198c-0.137,0.012-0.308,0.122-0.51,0.328c-0.137,0.14-0.215,0.274-0.236,0.405
			C10.633,27.154,10.669,27.31,10.761,27.49z M12.436,27.055c-0.064,0.133-0.18,0.33-0.345,0.593
			c-0.167,0.263-0.259,0.448-0.28,0.559c-0.026,0.172,0.017,0.312,0.13,0.419c0.111,0.105,0.248,0.156,0.409,0.151
			c0.162-0.004,0.304-0.07,0.428-0.196c0.139-0.142,0.224-0.321,0.255-0.539c0.022-0.162-0.005-0.309-0.08-0.437
			c-0.047-0.085-0.167-0.219-0.358-0.399L12.436,27.055z"/>
		<path fill="#F9FCFC" d="M17.794,24.434l-2.199,2.243l0.794,0.753l-0.624,0.636l-1.445-1.371l0.314-0.32
			c-0.02-0.277-0.148-0.613-0.383-1.004c-0.236-0.393-0.734-0.966-1.497-1.721l2.344-2.391l2.358,2.236l0.312-0.317l1.445,1.37
			l-0.626,0.639L17.794,24.434z M16.697,24.27l-1.701-1.618l-0.93,0.948c0.8,0.82,1.241,1.489,1.321,2.006L16.697,24.27z"/>
		<path fill="#F9FCFC" d="M15.53,20.015l-0.737-0.699l0.769-0.784l0.737,0.699L15.53,20.015z M18.948,23.256l-3.01-2.854
			l0.769-0.784l3.01,2.855L18.948,23.256z"/>
		<path fill="#F9FCFC" d="M18.094,15.799l0.375-0.382c0.235,0.266,0.349,0.546,0.344,0.84c-0.005,0.295-0.13,0.565-0.372,0.813
			c-0.243,0.248-0.513,0.379-0.812,0.396c-0.299,0.016-0.588-0.086-0.866-0.307l0.375-0.382c0.146,0.114,0.294,0.164,0.441,0.149
			c0.146-0.015,0.296-0.098,0.445-0.25c0.149-0.152,0.228-0.302,0.238-0.447C18.272,16.082,18.215,15.938,18.094,15.799z
			 M17.476,18.834l0.738-0.753l1.891,1.792l-0.709-2.998l0.755-0.77l3.01,2.854l-0.738,0.753l-1.924-1.825l0.726,3.047l-0.738,0.753
			L17.476,18.834z"/>
		<path fill="#F9FCFC" d="M20.908,15.334l0.768-0.784l1.103,1.045l1.1-1.122l-1.103-1.045l0.771-0.787l3.009,2.854l-0.771,0.787
			l-1.264-1.199l-1.1,1.122l1.264,1.199l-0.768,0.784L20.908,15.334z"/>
		<path fill="#F9FCFC" d="M24.301,11.873l0.738-0.753l1.89,1.792l-0.709-2.998l0.755-0.77l3.01,2.854l-0.738,0.753l-1.924-1.825
			l0.726,3.047l-0.738,0.753L24.301,11.873z"/>
		<path fill="#F9FCFC" d="M28.362,5.325l0.375-0.382c0.235,0.266,0.35,0.546,0.345,0.84c-0.006,0.294-0.13,0.565-0.373,0.813
			c-0.242,0.247-0.513,0.379-0.812,0.395c-0.3,0.016-0.588-0.086-0.866-0.307l0.374-0.382c0.146,0.114,0.295,0.164,0.441,0.15
			c0.147-0.015,0.296-0.098,0.445-0.25c0.149-0.153,0.229-0.302,0.238-0.447C28.541,5.608,28.483,5.465,28.362,5.325z M27.744,8.36
			l0.738-0.753L30.373,9.4l-0.709-2.998l0.755-0.77l3.01,2.854L32.689,9.24l-1.924-1.825l0.727,3.047l-0.738,0.753L27.744,8.36z"/>
	</g>
</g>
</svg>
