<?xml version="1.0" encoding="utf-8"?>
<!-- Generator: Adobe Illustrator 22.1.0, SVG Export Plug-In . SVG Version: 6.00 Build 0)  -->
<svg version="1.2" baseProfile="tiny" id="Слой_1"
	 xmlns="http://www.w3.org/2000/svg" xmlns:xlink="http://www.w3.org/1999/xlink" x="0px" y="0px" viewBox="0 0 50 50"
	 xml:space="preserve">
<g>
	<polygon fill="#252593" points="0.767,49.014 4.782,50 4.782,28.164 	"/>
	<polygon fill="#252593" points="47.905,0.879 48.875,4.961 26.667,4.961 	"/>
	<path fill="#2E2EB8" d="M47.31,0.561c0.633,0.02,0.789,0.407,0.346,0.86L1.392,48.765c-0.443,0.453-0.82,0.305-0.839-0.326
		L0.001,30.361c-0.021-0.633,0.327-1.52,0.771-1.971L27.924,0.785c0.443-0.451,1.324-0.804,1.957-0.784L47.31,0.561z"/>
	<g>
		<path fill="#F9FCFC" d="M6.529,35.925l-4.155-3.94l0.81-0.825l1.636,1.551l1.586-1.618l-1.636-1.551l0.81-0.825l4.155,3.94
			l-0.81,0.825l-1.816-1.724l-1.586,1.618L7.338,35.1L6.529,35.925z"/>
		<path fill="#F9FCFC" d="M9.048,29.238L8.22,29.826c-0.212-0.356-0.293-0.698-0.242-1.025c0.052-0.328,0.266-0.685,0.644-1.07
			c0.343-0.35,0.64-0.569,0.892-0.661c0.252-0.091,0.477-0.11,0.674-0.058c0.198,0.054,0.47,0.244,0.815,0.572l0.922,0.89
			c0.265,0.251,0.472,0.424,0.623,0.518c0.15,0.094,0.331,0.175,0.542,0.242l-0.76,0.775c-0.073-0.03-0.176-0.079-0.309-0.147
			c-0.06-0.032-0.1-0.053-0.12-0.062c0,0.26-0.041,0.497-0.125,0.712c-0.083,0.215-0.209,0.409-0.379,0.582
			c-0.299,0.306-0.619,0.466-0.959,0.482s-0.639-0.098-0.896-0.342c-0.171-0.161-0.283-0.345-0.337-0.551
			c-0.056-0.207-0.047-0.415,0.023-0.627c0.071-0.211,0.213-0.478,0.426-0.799c0.289-0.433,0.473-0.749,0.551-0.947l-0.079-0.075
			c-0.153-0.146-0.299-0.211-0.438-0.199c-0.137,0.013-0.308,0.122-0.51,0.328c-0.137,0.14-0.215,0.275-0.236,0.406
			C8.92,28.901,8.956,29.058,9.048,29.238z M10.722,28.802c-0.064,0.133-0.18,0.331-0.345,0.593
			c-0.167,0.263-0.259,0.449-0.28,0.559c-0.026,0.173,0.017,0.313,0.13,0.42c0.111,0.105,0.248,0.156,0.409,0.151
			c0.163-0.005,0.305-0.07,0.429-0.197c0.138-0.141,0.224-0.32,0.255-0.538c0.021-0.163-0.005-0.309-0.081-0.438
			c-0.047-0.085-0.167-0.218-0.358-0.398L10.722,28.802z"/>
		<path fill="#F9FCFC" d="M16.081,26.182l-2.199,2.243l0.794,0.752l-0.624,0.636l-1.445-1.37l0.314-0.321
			c-0.02-0.276-0.148-0.612-0.383-1.004c-0.236-0.392-0.734-0.965-1.497-1.721l2.344-2.39l2.358,2.236l0.312-0.318l1.445,1.371
			l-0.626,0.64L16.081,26.182z M14.984,26.019l-1.701-1.62l-0.93,0.948c0.8,0.821,1.241,1.49,1.321,2.007L14.984,26.019z"/>
		<path fill="#F9FCFC" d="M13.917,21.416l-0.683-0.647l0.659-0.673l0.683,0.648L13.917,21.416z M15.092,20.216l-0.683-0.648
			l0.662-0.675l0.683,0.648L15.092,20.216z M17.959,22.38l0.899-0.655c0.192,0.377,0.258,0.745,0.198,1.106s-0.25,0.704-0.568,1.029
			c-0.505,0.515-1.05,0.734-1.634,0.657c-0.466-0.065-0.907-0.296-1.325-0.691c-0.499-0.473-0.763-0.971-0.794-1.496
			c-0.031-0.524,0.146-0.983,0.531-1.376c0.432-0.44,0.921-0.647,1.466-0.622c0.546,0.026,1.118,0.334,1.718,0.924l-1.925,1.964
			c0.242,0.218,0.487,0.329,0.738,0.333c0.25,0.003,0.462-0.085,0.639-0.266c0.121-0.122,0.188-0.258,0.202-0.406
			C18.116,22.734,18.068,22.566,17.959,22.38z M17.198,21.572c-0.236-0.212-0.469-0.32-0.697-0.322
			c-0.229-0.002-0.423,0.076-0.58,0.236c-0.168,0.171-0.243,0.372-0.225,0.604c0.018,0.231,0.134,0.448,0.354,0.653L17.198,21.572z"
			/>
		<path fill="#F9FCFC" d="M21.553,20.6l-1.284-1.218c-0.092,0.11-0.139,0.203-0.139,0.279c-0.001,0.077,0.045,0.256,0.138,0.538
			l0.503,1.199l-0.826,0.842l-0.42-1.206c-0.208-0.606-0.23-1.052-0.067-1.338c-0.233,0.108-0.534,0.077-0.898-0.094
			c-0.273-0.126-0.458-0.181-0.555-0.162c-0.096,0.018-0.246,0.131-0.45,0.34l-0.527-0.5c0.143-0.163,0.244-0.276,0.304-0.337
			c0.169-0.173,0.354-0.284,0.551-0.333c0.197-0.05,0.502,0.018,0.917,0.202c0.322,0.144,0.539,0.221,0.652,0.23
			c0.112,0.01,0.22-0.033,0.322-0.13l-1.23-1.167l0.763-0.778l1.23,1.167c0.099-0.101,0.139-0.208,0.124-0.322
			c-0.016-0.114-0.104-0.325-0.261-0.632c-0.201-0.395-0.281-0.69-0.243-0.885c0.038-0.195,0.149-0.386,0.333-0.574
			c0.053-0.054,0.16-0.153,0.32-0.299l0.527,0.5c-0.202,0.207-0.312,0.357-0.328,0.454c-0.016,0.096,0.045,0.276,0.184,0.541
			c0.186,0.353,0.229,0.646,0.127,0.88c0.285-0.171,0.739-0.166,1.363,0.016l1.24,0.37l-0.826,0.842l-1.234-0.454
			c-0.221-0.081-0.387-0.119-0.499-0.116c-0.112,0.003-0.223,0.053-0.333,0.15l1.284,1.218L21.553,20.6z"/>
		<path fill="#F9FCFC" d="M21.281,14.953l0.769-0.784l1.103,1.045l1.099-1.122l-1.103-1.045l0.771-0.787l3.01,2.854l-0.771,0.787
			l-1.264-1.199l-1.099,1.122l1.264,1.199l-0.769,0.784L21.281,14.953z"/>
		<path fill="#F9FCFC" d="M24.699,11.466l0.769-0.784l1.25,1.185l0.771-0.787c0.303-0.309,0.556-0.523,0.76-0.644
			c0.205-0.121,0.436-0.167,0.696-0.137c0.26,0.029,0.49,0.14,0.691,0.331c0.292,0.276,0.413,0.582,0.366,0.918
			c-0.047,0.336-0.264,0.701-0.649,1.095l-1.644,1.676L24.699,11.466z M27.974,13.059l0.713-0.728
			c0.187-0.189,0.29-0.356,0.314-0.499c0.023-0.143-0.033-0.279-0.169-0.408c-0.146-0.138-0.3-0.177-0.462-0.117
			c-0.162,0.059-0.384,0.232-0.665,0.519l-0.497,0.508L27.974,13.059z M27.939,8.161l0.769-0.784l3.01,2.854l-0.769,0.784
			L27.939,8.161z"/>
		<path fill="#F9FCFC" d="M30.076,3.577l0.375-0.382c0.234,0.266,0.349,0.546,0.344,0.84c-0.006,0.294-0.13,0.565-0.372,0.813
			c-0.242,0.247-0.514,0.379-0.812,0.395c-0.3,0.016-0.588-0.086-0.867-0.307l0.375-0.382c0.146,0.114,0.295,0.165,0.441,0.15
			c0.146-0.015,0.296-0.098,0.445-0.25c0.149-0.153,0.229-0.302,0.238-0.447C30.254,3.86,30.197,3.717,30.076,3.577z M29.457,6.613
			l0.738-0.753l1.891,1.792l-0.709-2.998l0.755-0.77l3.01,2.854l-0.738,0.753l-1.924-1.825l0.726,3.047l-0.738,0.753L29.457,6.613z"
			/>
	</g>
</g>
</svg>
