<?xml version="1.0" encoding="utf-8"?>
<!-- Generator: Adobe Illustrator 22.1.0, SVG Export Plug-In . SVG Version: 6.00 Build 0)  -->
<svg version="1.2" baseProfile="tiny" id="Слой_1"
	 xmlns="http://www.w3.org/2000/svg" xmlns:xlink="http://www.w3.org/1999/xlink" x="0px" y="0px" viewBox="0 0 50 50"
	 xml:space="preserve">
<g>
	<polygon fill="#255D94" points="47.905,0.879 48.875,4.961 26.667,4.961 	"/>
	<polygon fill="#255D94" points="0.767,49.014 4.782,50 4.782,28.164 	"/>
	<path fill="#2E73B9" d="M47.31,0.561c0.633,0.02,0.789,0.407,0.346,0.86L1.392,48.765c-0.443,0.453-0.82,0.305-0.839-0.326
		L0.001,30.361c-0.021-0.633,0.327-1.52,0.771-1.971L27.924,0.785c0.443-0.451,1.324-0.804,1.957-0.784L47.31,0.561z"/>
	<g>
		<path fill="#FAFDFD" d="M5.623,29.692l2.79-2.846l3.636,3.448l-0.708,0.723l-3.025-2.87l-1.374,1.401l3.025,2.869l-0.708,0.723
			L5.623,29.692z"/>
		<path fill="#FAFDFD" d="M10.113,27.084l0.627-0.64l0.387,0.367c-0.05-0.209-0.048-0.422,0.008-0.642
			c0.056-0.221,0.169-0.417,0.338-0.589c0.295-0.302,0.666-0.443,1.111-0.426c0.446,0.018,0.883,0.229,1.311,0.636
			c0.44,0.417,0.679,0.847,0.715,1.29c0.036,0.443-0.093,0.815-0.389,1.116c-0.14,0.144-0.297,0.245-0.467,0.308
			c-0.173,0.061-0.392,0.089-0.658,0.085l1.326,1.258l-0.672,0.686L10.113,27.084z M12.051,27.612
			c0.296,0.28,0.571,0.431,0.826,0.449s0.463-0.055,0.626-0.221c0.156-0.16,0.221-0.354,0.196-0.583
			c-0.026-0.229-0.188-0.484-0.483-0.764c-0.276-0.263-0.535-0.402-0.776-0.42c-0.242-0.02-0.44,0.053-0.598,0.214
			c-0.165,0.168-0.234,0.369-0.212,0.604C11.653,27.128,11.793,27.367,12.051,27.612z"/>
		<path fill="#FAFDFD" d="M14.25,25.383c-0.232-0.22-0.401-0.488-0.507-0.806c-0.106-0.317-0.115-0.634-0.028-0.948
			c0.088-0.313,0.256-0.598,0.505-0.851c0.384-0.393,0.83-0.591,1.334-0.597c0.504-0.005,0.953,0.18,1.349,0.555
			c0.398,0.377,0.604,0.817,0.618,1.319c0.015,0.501-0.167,0.944-0.543,1.328c-0.233,0.237-0.51,0.412-0.83,0.524
			c-0.321,0.113-0.642,0.125-0.962,0.037C14.864,25.858,14.552,25.67,14.25,25.383z M14.977,24.716
			c0.261,0.247,0.521,0.375,0.779,0.385s0.476-0.074,0.651-0.253c0.175-0.18,0.253-0.396,0.233-0.648s-0.162-0.504-0.427-0.756
			c-0.258-0.244-0.516-0.372-0.773-0.383c-0.257-0.01-0.475,0.074-0.65,0.253s-0.253,0.396-0.234,0.649S14.715,24.468,14.977,24.716
			z"/>
		<path fill="#FAFDFD" d="M16.126,20.951l1.472-1.501c0.302-0.308,0.585-0.483,0.848-0.528c0.265-0.044,0.511,0.042,0.741,0.26
			c0.147,0.14,0.235,0.303,0.261,0.49c0.027,0.188-0.003,0.362-0.091,0.523c0.219-0.137,0.434-0.191,0.642-0.163
			c0.208,0.028,0.386,0.111,0.532,0.25c0.205,0.194,0.298,0.426,0.282,0.696c-0.017,0.27-0.168,0.549-0.452,0.839l-1.601,1.633
			L16.126,20.951z M17.897,21.296l0.433-0.441c0.209-0.213,0.333-0.393,0.372-0.54s0-0.276-0.118-0.388
			c-0.11-0.105-0.233-0.136-0.367-0.091c-0.135,0.043-0.313,0.179-0.534,0.405l-0.433,0.442L17.897,21.296z M18.991,22.334
			l0.531-0.542c0.191-0.195,0.307-0.36,0.347-0.495c0.04-0.135-0.001-0.261-0.126-0.379c-0.129-0.123-0.268-0.155-0.417-0.1
			c-0.149,0.057-0.369,0.232-0.659,0.528l-0.345,0.352L18.991,22.334z"/>
		<path fill="#FAFDFD" d="M22.335,18.153l0.787-0.572c0.168,0.329,0.225,0.651,0.173,0.967c-0.053,0.316-0.219,0.617-0.499,0.901
			c-0.442,0.451-0.918,0.642-1.43,0.574c-0.407-0.056-0.793-0.258-1.159-0.604c-0.437-0.414-0.668-0.851-0.695-1.31
			c-0.027-0.459,0.127-0.86,0.464-1.203c0.378-0.386,0.806-0.567,1.284-0.545c0.477,0.022,0.977,0.292,1.502,0.808l-1.685,1.718
			c0.211,0.191,0.427,0.289,0.646,0.292c0.218,0.003,0.405-0.075,0.56-0.232c0.105-0.107,0.164-0.226,0.176-0.355
			C22.472,18.462,22.431,18.316,22.335,18.153z M21.669,17.446c-0.207-0.187-0.41-0.281-0.61-0.282
			c-0.201-0.002-0.37,0.067-0.507,0.207c-0.147,0.149-0.213,0.326-0.199,0.528c0.016,0.202,0.119,0.394,0.311,0.572L21.669,17.446z"
			/>
		<path fill="#FAFDFD" d="M21.774,15.19l0.627-0.64l0.387,0.367c-0.051-0.209-0.048-0.422,0.008-0.643
			c0.056-0.22,0.168-0.416,0.338-0.588c0.295-0.301,0.666-0.443,1.11-0.426c0.446,0.018,0.883,0.229,1.311,0.635
			c0.44,0.417,0.678,0.848,0.715,1.29c0.036,0.443-0.094,0.815-0.388,1.116c-0.141,0.143-0.297,0.245-0.468,0.307
			c-0.172,0.061-0.391,0.089-0.658,0.085l1.326,1.258l-0.672,0.686L21.774,15.19z M23.711,15.718
			c0.296,0.281,0.571,0.431,0.826,0.449c0.255,0.019,0.463-0.054,0.626-0.22c0.156-0.16,0.221-0.354,0.195-0.583
			c-0.026-0.229-0.188-0.484-0.483-0.764c-0.276-0.262-0.535-0.402-0.775-0.42c-0.242-0.019-0.44,0.053-0.599,0.214
			c-0.164,0.167-0.234,0.369-0.212,0.604C23.313,15.234,23.454,15.474,23.711,15.718z"/>
		<path fill="#FAFDFD" d="M28.054,12.32l0.787-0.573c0.168,0.329,0.225,0.651,0.173,0.967c-0.053,0.316-0.219,0.617-0.498,0.901
			c-0.442,0.451-0.918,0.643-1.431,0.575c-0.406-0.056-0.793-0.258-1.158-0.604c-0.437-0.414-0.668-0.851-0.695-1.31
			c-0.027-0.459,0.127-0.86,0.464-1.204c0.377-0.385,0.806-0.566,1.284-0.544c0.477,0.022,0.977,0.292,1.502,0.808l-1.685,1.718
			c0.212,0.191,0.427,0.289,0.646,0.292c0.218,0.003,0.405-0.074,0.56-0.232c0.105-0.107,0.164-0.226,0.176-0.355
			C28.19,12.629,28.149,12.482,28.054,12.32z M27.388,11.613c-0.207-0.187-0.41-0.281-0.61-0.282
			c-0.201-0.002-0.37,0.067-0.507,0.207c-0.146,0.15-0.213,0.326-0.198,0.528s0.118,0.394,0.311,0.572L27.388,11.613z"/>
		<path fill="#FAFDFD" d="M27.485,9.364l0.672-0.686l0.965,0.915l0.962-0.981l-0.965-0.914l0.675-0.688l2.634,2.498l-0.675,0.688
			l-1.105-1.049l-0.962,0.981l1.105,1.049l-0.672,0.686L27.485,9.364z"/>
	</g>
</g>
</svg>
