<?xml version="1.0" encoding="utf-8"?>
<!-- Generator: Adobe Illustrator 22.1.0, SVG Export Plug-In . SVG Version: 6.00 Build 0)  -->
<svg version="1.2" baseProfile="tiny" id="Слой_1"
	 xmlns="http://www.w3.org/2000/svg" xmlns:xlink="http://www.w3.org/1999/xlink" x="0px" y="0px" viewBox="0 0 50 50"
	 xml:space="preserve">
<g>
	<polygon fill="#B3980F" points="0.767,49.014 4.782,50 4.782,28.164 	"/>
	<polygon fill="#B3980F" points="47.905,0.879 48.875,4.961 26.667,4.961 	"/>
	<path fill="#FFDA14" d="M47.31,0.561c0.633,0.02,0.789,0.407,0.346,0.86L1.392,48.765c-0.443,0.453-0.82,0.305-0.839-0.326
		L0.001,30.361c-0.021-0.633,0.327-1.52,0.771-1.971L27.924,0.785c0.443-0.451,1.324-0.804,1.957-0.784L47.31,0.561z"/>
	<g>
		<path fill="#333333" d="M13.397,28.92l-3.636-3.449l0.708-0.723l1.431,1.357l1.388-1.416l-1.431-1.357l0.708-0.722l3.636,3.449
			l-0.708,0.722l-1.59-1.508l-1.388,1.417l1.59,1.508L13.397,28.92z"/>
		<path fill="#333333" d="M15.419,24.191c-0.232-0.22-0.401-0.488-0.508-0.806c-0.105-0.317-0.115-0.634-0.028-0.948
			c0.088-0.313,0.256-0.597,0.505-0.851c0.384-0.393,0.83-0.591,1.334-0.597c0.504-0.005,0.953,0.18,1.349,0.555
			c0.398,0.378,0.604,0.817,0.618,1.319c0.015,0.501-0.167,0.944-0.543,1.328c-0.233,0.237-0.51,0.412-0.83,0.524
			c-0.321,0.112-0.642,0.124-0.963,0.037C16.033,24.666,15.721,24.478,15.419,24.191z M16.146,23.524
			c0.261,0.247,0.521,0.376,0.779,0.386s0.475-0.075,0.651-0.254c0.175-0.18,0.253-0.396,0.233-0.648s-0.162-0.504-0.427-0.756
			c-0.258-0.244-0.516-0.372-0.773-0.382c-0.257-0.011-0.475,0.073-0.65,0.252c-0.176,0.179-0.253,0.396-0.234,0.649
			S15.884,23.276,16.146,23.524z"/>
		<path fill="#333333" d="M17.295,19.758l1.472-1.501c0.302-0.307,0.585-0.483,0.848-0.528c0.265-0.044,0.511,0.042,0.741,0.26
			c0.147,0.14,0.235,0.303,0.261,0.49c0.027,0.188-0.003,0.362-0.091,0.523c0.219-0.137,0.434-0.191,0.642-0.163
			c0.208,0.028,0.386,0.111,0.532,0.25c0.205,0.194,0.298,0.426,0.282,0.696c-0.017,0.27-0.168,0.549-0.452,0.839l-1.601,1.633
			L17.295,19.758z M19.066,20.104l0.433-0.442c0.209-0.213,0.333-0.393,0.372-0.54s0-0.276-0.118-0.387
			c-0.11-0.105-0.233-0.136-0.367-0.092c-0.135,0.044-0.313,0.179-0.534,0.405l-0.433,0.442L19.066,20.104z M20.16,21.142
			l0.531-0.542c0.191-0.195,0.307-0.36,0.347-0.495c0.04-0.135-0.001-0.261-0.126-0.379c-0.129-0.123-0.268-0.155-0.417-0.099
			c-0.149,0.056-0.369,0.232-0.659,0.528l-0.345,0.351L20.16,21.142z"/>
		<path fill="#333333" d="M20.284,16.709l0.646-0.659l1.654,1.569l-0.621-2.624l0.661-0.673l2.634,2.498l-0.646,0.659l-1.684-1.597
			l0.635,2.666l-0.646,0.659L20.284,16.709z"/>
		<path fill="#333333" d="M23.838,10.98l0.328-0.334c0.207,0.233,0.307,0.478,0.302,0.735s-0.113,0.494-0.326,0.71
			c-0.212,0.216-0.449,0.332-0.71,0.346s-0.514-0.075-0.759-0.269L23,11.835c0.129,0.1,0.258,0.144,0.387,0.131
			c0.129-0.013,0.258-0.086,0.389-0.22s0.201-0.263,0.209-0.391C23.994,11.229,23.945,11.104,23.838,10.98z M23.297,13.637
			l0.646-0.659l1.654,1.569l-0.621-2.624l0.661-0.673l2.633,2.498l-0.646,0.659l-1.683-1.597l0.635,2.666l-0.646,0.659
			L23.297,13.637z"/>
	</g>
</g>
</svg>
