<?xml version="1.0" encoding="utf-8"?>
<!-- Generator: Adobe Illustrator 22.1.0, SVG Export Plug-In . SVG Version: 6.00 Build 0)  -->
<svg version="1.2" baseProfile="tiny" id="Слой_1"
	 xmlns="http://www.w3.org/2000/svg" xmlns:xlink="http://www.w3.org/1999/xlink" x="0px" y="0px" viewBox="0 0 50 50"
	 xml:space="preserve">
<g>
	<polygon fill="#B3980F" points="0.767,49.014 4.782,50 4.782,28.164 	"/>
	<polygon fill="#B3980F" points="47.905,0.879 48.875,4.961 26.667,4.961 	"/>
	<path fill="#FFDA14" d="M47.31,0.561c0.633,0.02,0.789,0.407,0.346,0.86L1.392,48.765c-0.443,0.453-0.82,0.305-0.839-0.326
		L0.001,30.361c-0.021-0.633,0.327-1.52,0.771-1.971L27.924,0.785c0.443-0.451,1.324-0.804,1.957-0.784L47.31,0.561z"/>
	<g>
		<path fill="#333333" d="M12.811,29.518l-3.636-3.448l0.708-0.723l1.431,1.358l1.388-1.417l-1.431-1.356l0.708-0.723l3.636,3.449
			l-0.708,0.723l-1.59-1.508l-1.388,1.416l1.59,1.508L12.811,29.518z"/>
		<path fill="#333333" d="M14.833,24.79c-0.232-0.22-0.401-0.488-0.508-0.807c-0.106-0.317-0.115-0.633-0.028-0.947
			c0.088-0.313,0.256-0.598,0.505-0.852c0.385-0.393,0.83-0.591,1.334-0.596c0.504-0.006,0.954,0.179,1.349,0.554
			c0.398,0.378,0.604,0.817,0.618,1.319c0.015,0.502-0.167,0.944-0.543,1.329c-0.233,0.237-0.51,0.412-0.83,0.524
			c-0.321,0.111-0.642,0.124-0.962,0.036C15.447,25.263,15.135,25.077,14.833,24.79z M15.56,24.122
			c0.261,0.247,0.521,0.376,0.779,0.386s0.475-0.075,0.65-0.254c0.176-0.179,0.253-0.395,0.233-0.648
			c-0.02-0.253-0.162-0.504-0.427-0.755c-0.258-0.245-0.515-0.372-0.773-0.383c-0.257-0.011-0.475,0.073-0.65,0.253
			c-0.175,0.179-0.252,0.395-0.233,0.648S15.298,23.874,15.56,24.122z"/>
		<path fill="#333333" d="M16.709,20.356l1.471-1.501c0.302-0.308,0.585-0.483,0.848-0.528c0.265-0.044,0.511,0.042,0.741,0.26
			c0.147,0.14,0.235,0.303,0.261,0.49c0.027,0.188-0.002,0.362-0.091,0.523c0.219-0.136,0.434-0.19,0.643-0.163
			c0.208,0.028,0.386,0.111,0.531,0.25c0.205,0.194,0.299,0.426,0.282,0.696c-0.017,0.269-0.168,0.549-0.452,0.838l-1.601,1.633
			L16.709,20.356z M18.48,20.703l0.433-0.442c0.209-0.213,0.333-0.393,0.372-0.54s0-0.276-0.118-0.388
			c-0.11-0.105-0.233-0.136-0.367-0.091c-0.135,0.043-0.313,0.179-0.535,0.405l-0.433,0.442L18.48,20.703z M19.574,21.74
			l0.531-0.542c0.191-0.194,0.307-0.36,0.347-0.495s-0.001-0.261-0.126-0.379c-0.129-0.123-0.268-0.155-0.417-0.099
			s-0.369,0.232-0.66,0.529l-0.345,0.352L19.574,21.74z"/>
		<path fill="#333333" d="M19.719,17.286l0.673-0.686l1.094,1.037l0.674-0.688c0.265-0.27,0.487-0.458,0.666-0.563
			c0.179-0.105,0.38-0.146,0.609-0.12c0.227,0.025,0.428,0.122,0.605,0.29c0.255,0.242,0.361,0.509,0.321,0.803
			c-0.041,0.294-0.231,0.614-0.569,0.958l-1.438,1.467L19.719,17.286z M22.584,18.679l0.625-0.637
			c0.163-0.166,0.254-0.312,0.275-0.437c0.021-0.125-0.029-0.244-0.148-0.357c-0.128-0.121-0.262-0.155-0.404-0.102
			c-0.143,0.051-0.336,0.203-0.582,0.454l-0.435,0.444L22.584,18.679z M22.555,14.394l0.672-0.686l2.634,2.498l-0.672,0.686
			L22.555,14.394z"/>
		<path fill="#333333" d="M24.424,10.383l0.328-0.334c0.207,0.233,0.307,0.478,0.302,0.735c-0.005,0.258-0.114,0.494-0.326,0.71
			c-0.212,0.217-0.449,0.332-0.71,0.347c-0.261,0.014-0.514-0.076-0.759-0.27l0.328-0.334c0.129,0.1,0.258,0.144,0.387,0.131
			c0.129-0.013,0.258-0.086,0.389-0.22c0.131-0.133,0.201-0.263,0.209-0.39C24.58,10.63,24.531,10.505,24.424,10.383z
			 M23.883,13.039l0.646-0.659l1.654,1.569l-0.621-2.624l0.66-0.674l2.634,2.498l-0.646,0.659l-1.684-1.597l0.636,2.666
			l-0.646,0.659L23.883,13.039z"/>
	</g>
</g>
</svg>
