<?xml version="1.0" encoding="utf-8"?>
<!-- Generator: Adobe Illustrator 22.1.0, SVG Export Plug-In . SVG Version: 6.00 Build 0)  -->
<svg version="1.2" baseProfile="tiny" id="Слой_1"
	 xmlns="http://www.w3.org/2000/svg" xmlns:xlink="http://www.w3.org/1999/xlink" x="0px" y="0px" viewBox="0 0 50 50"
	 xml:space="preserve">
<polygon fill="#384C1F" points="0.767,49.014 4.782,50 4.782,28.164 "/>
<polygon fill="#374C1F" points="47.905,0.879 48.875,4.961 26.667,4.961 "/>
<path fill="#7DB72E" d="M47.31,0.561c0.633,0.02,0.789,0.407,0.346,0.86L1.392,48.765c-0.443,0.453-0.82,0.305-0.839-0.326
	L0.001,30.361c-0.021-0.633,0.327-1.52,0.771-1.971L27.924,0.785c0.443-0.451,1.324-0.804,1.957-0.784L47.31,0.561z"/>
<g>
	<path fill="#FAFDFD" d="M8.296,34.122l-0.672,0.686l-2.626-2.49c-0.007,0.477-0.121,0.938-0.34,1.387l-0.633-0.601
		c0.116-0.235,0.193-0.537,0.234-0.903c0.039-0.368-0.013-0.695-0.158-0.984l0.545-0.557L8.296,34.122z"/>
	<path fill="#FAFDFD" d="M8.4,32.109l-0.697-0.661l1.321-1.348l0.697,0.661L8.4,32.109z"/>
	<path fill="#FAFDFD" d="M8.967,26.148l0.328-0.334c0.206,0.233,0.307,0.478,0.302,0.736c-0.005,0.258-0.114,0.494-0.326,0.711
		c-0.212,0.216-0.449,0.332-0.71,0.346c-0.261,0.015-0.514-0.075-0.759-0.27l0.328-0.334c0.129,0.1,0.258,0.144,0.387,0.131
		c0.129-0.013,0.258-0.086,0.389-0.22s0.201-0.264,0.209-0.391C9.124,26.396,9.074,26.271,8.967,26.148z M8.426,28.805l0.646-0.659
		l1.654,1.569l-0.621-2.623l0.661-0.674l2.634,2.498l-0.646,0.659l-1.684-1.597l0.635,2.665l-0.646,0.659L8.426,28.805z"/>
	<path fill="#FAFDFD" d="M15.054,25.1l-0.453-0.43c0.117-0.119,0.192-0.214,0.229-0.282s0.049-0.155,0.035-0.26
		c-0.014-0.105-0.058-0.195-0.136-0.269c-0.083-0.079-0.188-0.122-0.317-0.129c-0.129-0.007-0.251,0.049-0.368,0.167
		c-0.089,0.092-0.149,0.191-0.18,0.301s0.001,0.265,0.092,0.464l-0.696,0.461c-0.174-0.278-0.225-0.568-0.152-0.87
		c0.073-0.301,0.229-0.575,0.47-0.821c0.306-0.313,0.617-0.484,0.931-0.519c0.313-0.034,0.581,0.054,0.8,0.262
		c0.137,0.13,0.214,0.275,0.232,0.435c0.018,0.16-0.013,0.355-0.092,0.589c0.241-0.142,0.462-0.209,0.663-0.203
		c0.201,0.007,0.381,0.087,0.542,0.239c0.205,0.194,0.289,0.456,0.252,0.785s-0.23,0.671-0.578,1.026
		c-0.606,0.619-1.222,0.764-1.849,0.437l0.499-0.738c0.357,0.143,0.649,0.099,0.877-0.134c0.126-0.129,0.193-0.264,0.2-0.406
		c0.006-0.143-0.037-0.258-0.128-0.346c-0.103-0.097-0.223-0.133-0.361-0.108s-0.27,0.103-0.397,0.232L15.054,25.1z"/>
	<path fill="#FAFDFD" d="M16.495,22.157l-0.724,0.514c-0.186-0.311-0.256-0.61-0.211-0.897c0.045-0.287,0.233-0.598,0.563-0.935
		c0.3-0.307,0.561-0.5,0.78-0.579c0.221-0.08,0.417-0.097,0.59-0.051c0.173,0.046,0.411,0.214,0.714,0.5l0.806,0.779
		c0.231,0.219,0.413,0.37,0.544,0.452c0.132,0.082,0.291,0.153,0.474,0.213l-0.665,0.678c-0.063-0.025-0.153-0.068-0.27-0.129
		c-0.053-0.028-0.088-0.046-0.106-0.054c0,0.227-0.036,0.436-0.108,0.624c-0.074,0.188-0.185,0.357-0.333,0.509
		c-0.261,0.267-0.541,0.407-0.839,0.421c-0.297,0.015-0.559-0.085-0.784-0.298c-0.149-0.142-0.247-0.302-0.296-0.482
		c-0.047-0.181-0.04-0.363,0.021-0.549c0.062-0.184,0.186-0.418,0.373-0.699c0.253-0.378,0.413-0.655,0.481-0.829l-0.069-0.065
		c-0.134-0.126-0.261-0.185-0.382-0.174s-0.269,0.107-0.446,0.288c-0.12,0.122-0.189,0.24-0.208,0.354
		C16.382,21.863,16.414,21.999,16.495,22.157z M17.96,21.775c-0.056,0.116-0.157,0.289-0.302,0.52
		c-0.146,0.229-0.228,0.392-0.245,0.488c-0.023,0.15,0.015,0.273,0.114,0.367c0.098,0.092,0.217,0.136,0.358,0.132
		c0.142-0.004,0.266-0.062,0.375-0.172c0.121-0.123,0.196-0.28,0.223-0.472c0.019-0.143-0.005-0.27-0.07-0.383
		c-0.042-0.074-0.146-0.189-0.313-0.349L17.96,21.775z"/>
	<path fill="#FAFDFD" d="M18.438,16.488l0.328-0.334c0.207,0.233,0.307,0.478,0.302,0.735s-0.113,0.494-0.326,0.71
		c-0.212,0.216-0.449,0.332-0.71,0.346c-0.261,0.015-0.514-0.075-0.759-0.269l0.328-0.334c0.129,0.1,0.258,0.144,0.387,0.131
		c0.129-0.013,0.258-0.086,0.389-0.22s0.201-0.263,0.209-0.391C18.594,16.736,18.545,16.611,18.438,16.488z M17.897,19.144
		l0.646-0.659l1.654,1.569l-0.621-2.624l0.66-0.673l2.634,2.498l-0.646,0.659l-1.684-1.597l0.636,2.666l-0.646,0.659L17.897,19.144z
		"/>
	<path fill="#FAFDFD" d="M20.946,16.035l0.833-0.849l2.467,1.096l-1.198-2.39l0.83-0.847l2.634,2.498l-0.572,0.583l-1.733-1.644
		l1.114,2.275l-0.574,0.586l-2.325-1.041l1.733,1.644l-0.574,0.585L20.946,16.035z"/>
	<path fill="#FAFDFD" d="M25.89,8.991c0.34-0.347,0.73-0.499,1.174-0.455c0.525,0.049,1.133,0.401,1.822,1.055
		c0.688,0.652,1.068,1.238,1.138,1.757c0.059,0.429-0.081,0.817-0.421,1.164c-0.342,0.348-0.752,0.5-1.233,0.455
		c-0.48-0.045-1.07-0.398-1.768-1.06c-0.685-0.649-1.063-1.233-1.134-1.753C25.409,9.725,25.55,9.337,25.89,8.991z M26.468,9.539
		c-0.081,0.083-0.128,0.182-0.138,0.298s0.037,0.258,0.141,0.425c0.134,0.218,0.415,0.53,0.841,0.935
		c0.427,0.404,0.74,0.661,0.941,0.77c0.2,0.108,0.359,0.156,0.476,0.142c0.116-0.014,0.215-0.063,0.296-0.146
		s0.127-0.182,0.137-0.299c0.01-0.116-0.037-0.258-0.141-0.425c-0.133-0.216-0.411-0.527-0.838-0.931
		c-0.426-0.405-0.74-0.661-0.941-0.771c-0.2-0.109-0.36-0.157-0.477-0.144C26.647,9.407,26.549,9.456,26.468,9.539z"/>
	<path fill="#FAFDFD" d="M28.396,8.231c-0.326-0.309-0.499-0.608-0.518-0.897c-0.02-0.29,0.09-0.555,0.325-0.795
		c0.244-0.249,0.514-0.37,0.808-0.363c0.294,0.008,0.604,0.167,0.933,0.477c0.325,0.309,0.497,0.608,0.517,0.898
		s-0.09,0.555-0.325,0.796c-0.244,0.249-0.514,0.37-0.807,0.362C29.033,8.7,28.724,8.542,28.396,8.231z M28.914,7.691
		c0.237,0.225,0.422,0.348,0.556,0.371c0.1,0.016,0.184-0.012,0.254-0.083c0.072-0.073,0.099-0.159,0.079-0.256
		c-0.03-0.129-0.163-0.305-0.4-0.53c-0.236-0.224-0.42-0.348-0.55-0.371c-0.101-0.018-0.188,0.011-0.26,0.084
		c-0.07,0.071-0.095,0.156-0.075,0.253C28.546,7.29,28.678,7.467,28.914,7.691z M32.553,9.654l-0.498,0.508l-1.967-5.544
		l0.483-0.493L32.553,9.654z M32.684,7.64c-0.325-0.308-0.497-0.608-0.517-0.898c-0.02-0.289,0.092-0.556,0.331-0.8
		c0.24-0.246,0.508-0.364,0.803-0.356c0.296,0.008,0.605,0.167,0.931,0.476c0.328,0.311,0.502,0.611,0.521,0.901
		c0.02,0.29-0.09,0.554-0.325,0.795c-0.244,0.249-0.514,0.37-0.809,0.362S33.012,7.95,32.684,7.64z M33.206,7.103
		c0.237,0.225,0.421,0.348,0.554,0.369c0.1,0.017,0.186-0.01,0.256-0.082c0.071-0.073,0.097-0.158,0.076-0.253
		c-0.028-0.13-0.16-0.308-0.397-0.532c-0.236-0.224-0.422-0.349-0.553-0.374c-0.1-0.015-0.186,0.013-0.257,0.086
		c-0.072,0.073-0.097,0.158-0.075,0.253C32.837,6.701,32.97,6.879,33.206,7.103z"/>
</g>
</svg>
