<?xml version="1.0" encoding="utf-8"?>
<!-- Generator: Adobe Illustrator 22.1.0, SVG Export Plug-In . SVG Version: 6.00 Build 0)  -->
<svg version="1.2" baseProfile="tiny" id="Слой_1"
	 xmlns="http://www.w3.org/2000/svg" xmlns:xlink="http://www.w3.org/1999/xlink" x="0px" y="0px" viewBox="0 0 50 50"
	 xml:space="preserve">
<g>
	<polygon fill="#B37014" points="0.767,49.014 4.782,50 4.782,28.164 	"/>
	<polygon fill="#B37014" points="47.905,0.879 48.875,4.961 26.667,4.961 	"/>
	<path fill="#F69F24" d="M47.31,0.561c0.633,0.02,0.789,0.407,0.346,0.86L1.392,48.765c-0.443,0.453-0.82,0.305-0.839-0.326
		L0.001,30.361c-0.021-0.633,0.327-1.52,0.771-1.971L27.924,0.785c0.443-0.451,1.324-0.804,1.957-0.784L47.31,0.561z"/>
	<g>
		<path fill="#FAFDFD" d="M5.34,35.229l-0.697-0.661l1.321-1.348l0.697,0.661L5.34,35.229z"/>
		<path fill="#FAFDFD" d="M6.948,33.655l0.599-0.751c0.176,0.13,0.357,0.19,0.544,0.182c0.185-0.01,0.339-0.076,0.462-0.202
			c0.141-0.143,0.201-0.32,0.18-0.532c-0.021-0.211-0.15-0.43-0.389-0.655c-0.224-0.212-0.439-0.321-0.647-0.328
			c-0.208-0.008-0.39,0.067-0.545,0.225c-0.193,0.197-0.277,0.458-0.252,0.782l-0.628,0.479l-1.548-2.146l1.778-1.813l0.652,0.618
			l-1.268,1.294l0.512,0.692c0.072-0.227,0.187-0.42,0.343-0.579c0.298-0.305,0.664-0.455,1.096-0.454
			c0.433,0.003,0.829,0.174,1.187,0.514c0.299,0.283,0.482,0.622,0.549,1.016c0.092,0.537-0.063,1.013-0.468,1.426
			c-0.324,0.33-0.679,0.514-1.063,0.551C7.658,34.01,7.292,33.904,6.948,33.655z"/>
		<path fill="#FAFDFD" d="M8.086,27.151c0.34-0.347,0.73-0.499,1.174-0.455c0.526,0.05,1.133,0.401,1.822,1.056
			c0.688,0.651,1.068,1.238,1.138,1.757c0.058,0.429-0.082,0.817-0.421,1.164c-0.341,0.348-0.752,0.5-1.234,0.454
			c-0.48-0.044-1.07-0.397-1.768-1.06c-0.685-0.649-1.063-1.233-1.134-1.753C7.605,27.886,7.746,27.498,8.086,27.151z M8.664,27.699
			c-0.082,0.083-0.128,0.182-0.138,0.299c-0.01,0.116,0.037,0.258,0.141,0.425c0.133,0.218,0.415,0.53,0.841,0.935
			c0.427,0.404,0.74,0.661,0.941,0.771c0.201,0.108,0.359,0.156,0.476,0.142c0.116-0.014,0.214-0.063,0.296-0.146
			c0.081-0.083,0.126-0.183,0.137-0.299c0.01-0.115-0.037-0.258-0.141-0.425c-0.132-0.217-0.411-0.527-0.837-0.932
			c-0.426-0.404-0.741-0.661-0.941-0.771c-0.201-0.108-0.36-0.156-0.477-0.144S8.745,27.616,8.664,27.699z"/>
		<path fill="#FAFDFD" d="M10.592,26.392c-0.326-0.31-0.498-0.609-0.518-0.898c-0.019-0.291,0.09-0.555,0.326-0.796
			c0.244-0.249,0.513-0.37,0.807-0.363c0.294,0.008,0.604,0.167,0.933,0.478c0.325,0.309,0.498,0.607,0.517,0.897
			c0.02,0.29-0.089,0.555-0.326,0.796c-0.244,0.249-0.513,0.369-0.807,0.362C11.23,26.86,10.919,26.702,10.592,26.392z
			 M11.111,25.851c0.237,0.225,0.422,0.349,0.555,0.372c0.1,0.017,0.184-0.012,0.254-0.083c0.072-0.073,0.098-0.159,0.079-0.256
			c-0.03-0.129-0.163-0.306-0.4-0.53c-0.236-0.224-0.42-0.348-0.55-0.371c-0.101-0.017-0.188,0.011-0.259,0.084
			c-0.07,0.072-0.095,0.156-0.076,0.254C10.743,25.45,10.875,25.627,11.111,25.851z M14.749,27.814l-0.498,0.507l-1.967-5.544
			l0.483-0.493L14.749,27.814z M14.88,25.799c-0.325-0.309-0.498-0.608-0.517-0.897s0.091-0.557,0.331-0.801
			c0.241-0.245,0.508-0.364,0.804-0.356c0.295,0.009,0.605,0.167,0.931,0.476c0.328,0.311,0.501,0.611,0.521,0.901
			c0.019,0.289-0.09,0.554-0.326,0.795c-0.244,0.25-0.513,0.371-0.809,0.362S15.208,26.11,14.88,25.799z M15.402,25.263
			c0.237,0.225,0.421,0.348,0.554,0.369c0.101,0.017,0.186-0.01,0.256-0.082c0.072-0.073,0.098-0.157,0.076-0.253
			c-0.028-0.131-0.16-0.308-0.397-0.532c-0.236-0.225-0.421-0.35-0.552-0.374c-0.099-0.016-0.186,0.014-0.257,0.087
			s-0.097,0.157-0.075,0.253C15.033,24.861,15.166,25.039,15.402,25.263z"/>
		<path fill="#FAFDFD" d="M16.527,20.542l0.672-0.686l0.965,0.915l0.962-0.981l-0.965-0.915l0.675-0.688l2.634,2.498l-0.675,0.688
			l-1.105-1.049l-0.962,0.981l1.105,1.049l-0.672,0.686L16.527,20.542z"/>
		<path fill="#FAFDFD" d="M20.638,18.868c-0.232-0.22-0.401-0.488-0.507-0.806c-0.106-0.317-0.115-0.633-0.028-0.948
			c0.088-0.313,0.256-0.597,0.505-0.851c0.384-0.392,0.83-0.591,1.334-0.596s0.953,0.179,1.349,0.554
			c0.398,0.378,0.604,0.817,0.618,1.319c0.015,0.501-0.167,0.944-0.543,1.329c-0.233,0.237-0.51,0.412-0.83,0.524
			c-0.321,0.112-0.642,0.124-0.962,0.037C21.252,19.342,20.94,19.155,20.638,18.868z M21.365,18.201
			c0.261,0.247,0.521,0.375,0.779,0.385s0.476-0.075,0.651-0.253c0.175-0.179,0.253-0.395,0.233-0.648
			c-0.02-0.253-0.162-0.504-0.427-0.755c-0.258-0.245-0.516-0.372-0.773-0.383c-0.257-0.01-0.475,0.074-0.65,0.253
			c-0.175,0.179-0.253,0.395-0.234,0.649S21.103,17.953,21.365,18.201z"/>
		<path fill="#FAFDFD" d="M22.514,14.435l1.472-1.501c0.302-0.308,0.585-0.483,0.848-0.529c0.265-0.044,0.511,0.042,0.741,0.26
			c0.147,0.14,0.235,0.303,0.261,0.491c0.027,0.187-0.003,0.362-0.091,0.523c0.219-0.136,0.434-0.191,0.642-0.163
			c0.209,0.028,0.387,0.111,0.532,0.25c0.205,0.194,0.298,0.426,0.282,0.696c-0.018,0.27-0.169,0.549-0.452,0.839l-1.601,1.633
			L22.514,14.435z M24.285,14.781l0.433-0.441c0.209-0.213,0.333-0.393,0.372-0.54s0-0.276-0.118-0.387
			c-0.11-0.105-0.233-0.136-0.367-0.092c-0.135,0.044-0.313,0.179-0.534,0.405l-0.433,0.441L24.285,14.781z M25.379,15.819
			l0.531-0.542c0.191-0.195,0.307-0.361,0.347-0.496c0.039-0.135-0.002-0.261-0.127-0.379c-0.129-0.123-0.268-0.155-0.417-0.099
			c-0.149,0.056-0.369,0.232-0.659,0.528l-0.345,0.352L25.379,15.819z"/>
		<path fill="#FAFDFD" d="M25.524,11.365l0.672-0.686l1.094,1.037l0.675-0.688c0.266-0.271,0.487-0.458,0.665-0.563
			c0.179-0.105,0.381-0.146,0.609-0.12c0.227,0.025,0.428,0.122,0.604,0.289c0.255,0.242,0.362,0.51,0.322,0.804
			c-0.042,0.294-0.231,0.613-0.57,0.958l-1.438,1.467L25.524,11.365z M28.389,12.758l0.625-0.637
			c0.163-0.166,0.254-0.312,0.275-0.437c0.021-0.125-0.029-0.244-0.148-0.357c-0.128-0.121-0.262-0.155-0.404-0.103
			c-0.143,0.052-0.335,0.203-0.581,0.454l-0.436,0.444L28.389,12.758z M28.359,8.472l0.673-0.686l2.634,2.498l-0.673,0.686
			L28.359,8.472z"/>
		<path fill="#FAFDFD" d="M29.724,7.081l0.833-0.849l2.467,1.096l-1.199-2.39l0.831-0.847l2.633,2.498l-0.571,0.583l-1.733-1.644
			l1.113,2.275l-0.574,0.586L31.198,7.35l1.733,1.644l-0.574,0.585L29.724,7.081z"/>
	</g>
</g>
</svg>
