<?xml version="1.0" encoding="utf-8"?>
<!-- Generator: Adobe Illustrator 22.1.0, SVG Export Plug-In . SVG Version: 6.00 Build 0)  -->
<svg version="1.2" baseProfile="tiny" id="Слой_1"
	 xmlns="http://www.w3.org/2000/svg" xmlns:xlink="http://www.w3.org/1999/xlink" x="0px" y="0px" viewBox="0 0 50 50"
	 xml:space="preserve">
<polygon fill="#384C1F" points="0.767,49.014 4.782,50 4.782,28.164 "/>
<polygon fill="#374C1F" points="47.905,0.879 48.875,4.961 26.667,4.961 "/>
<path fill="#7DB72E" d="M47.31,0.561c0.633,0.02,0.789,0.407,0.346,0.86L1.392,48.765c-0.443,0.453-0.82,0.305-0.839-0.326
	L0.001,30.361c-0.021-0.633,0.327-1.52,0.771-1.971L27.924,0.785c0.443-0.451,1.324-0.804,1.957-0.784L47.31,0.561z"/>
<g>
	<path fill="#FAFDFD" d="M7.105,35.337L6.48,35.975l-2.438-2.313c-0.007,0.442-0.112,0.872-0.316,1.288l-0.587-0.557
		c0.107-0.219,0.18-0.499,0.217-0.84c0.037-0.342-0.013-0.646-0.147-0.913l0.507-0.518L7.105,35.337z"/>
	<path fill="#FAFDFD" d="M7.2,33.468l-0.646-0.613l1.227-1.251l0.646,0.613L7.2,33.468z"/>
	<path fill="#FAFDFD" d="M8.454,30.616l-0.673,0.478c-0.173-0.289-0.238-0.567-0.196-0.834c0.042-0.266,0.216-0.556,0.522-0.868
		c0.278-0.284,0.52-0.463,0.725-0.538c0.205-0.073,0.387-0.089,0.547-0.047c0.162,0.044,0.382,0.198,0.664,0.465l0.748,0.724
		c0.215,0.203,0.384,0.344,0.506,0.42c0.123,0.077,0.269,0.143,0.44,0.197l-0.618,0.63c-0.059-0.024-0.143-0.064-0.251-0.12
		c-0.049-0.026-0.082-0.043-0.098-0.05c0.001,0.211-0.033,0.403-0.101,0.578c-0.068,0.176-0.17,0.333-0.308,0.474
		c-0.243,0.248-0.503,0.378-0.779,0.392c-0.277,0.013-0.52-0.079-0.728-0.277c-0.139-0.131-0.23-0.28-0.275-0.448
		c-0.044-0.167-0.039-0.337,0.019-0.509c0.058-0.171,0.173-0.388,0.346-0.649c0.235-0.352,0.383-0.608,0.447-0.77l-0.064-0.062
		c-0.125-0.118-0.243-0.172-0.355-0.161c-0.111,0.011-0.25,0.099-0.415,0.267c-0.111,0.113-0.175,0.224-0.192,0.33
		C8.35,30.343,8.378,30.469,8.454,30.616z M9.814,30.262c-0.052,0.108-0.145,0.269-0.28,0.481s-0.21,0.365-0.227,0.454
		c-0.022,0.14,0.012,0.253,0.105,0.341c0.091,0.086,0.202,0.127,0.333,0.123c0.13-0.004,0.247-0.058,0.347-0.16
		c0.113-0.115,0.181-0.261,0.207-0.438c0.018-0.133-0.005-0.251-0.065-0.355c-0.04-0.068-0.137-0.177-0.292-0.324L9.814,30.262z"/>
	<path fill="#FAFDFD" d="M11.011,26.538l2.095-2.137l2.446,2.32l-0.625,0.637l-1.923-1.824l-0.847,0.864l1.923,1.823l-0.624,0.638
		L11.011,26.538z"/>
	<path fill="#FAFDFD" d="M14.829,24.984c-0.216-0.204-0.372-0.453-0.471-0.748s-0.108-0.589-0.027-0.88
		c0.081-0.292,0.238-0.556,0.469-0.791c0.357-0.364,0.77-0.549,1.238-0.554c0.469-0.005,0.886,0.167,1.253,0.515
		c0.37,0.352,0.562,0.759,0.575,1.226c0.013,0.466-0.155,0.876-0.505,1.233c-0.216,0.22-0.473,0.382-0.77,0.487
		c-0.299,0.104-0.597,0.115-0.894,0.033C15.399,25.424,15.109,25.25,14.829,24.984z M15.503,24.364
		c0.243,0.23,0.484,0.35,0.725,0.359c0.24,0.009,0.441-0.07,0.604-0.236c0.163-0.166,0.235-0.367,0.217-0.602
		c-0.019-0.235-0.151-0.47-0.396-0.702c-0.24-0.227-0.479-0.346-0.718-0.354c-0.24-0.011-0.441,0.068-0.604,0.234
		c-0.163,0.166-0.235,0.367-0.216,0.603C15.131,23.901,15.261,24.134,15.503,24.364z"/>
	<path fill="#FAFDFD" d="M18.582,21.655l-0.422-0.4c0.108-0.109,0.18-0.196,0.214-0.261c0.034-0.063,0.045-0.144,0.034-0.242
		c-0.013-0.098-0.056-0.181-0.128-0.249c-0.076-0.073-0.174-0.112-0.293-0.119c-0.12-0.007-0.233,0.045-0.341,0.155
		c-0.083,0.085-0.14,0.178-0.168,0.279c-0.028,0.102,0,0.244,0.085,0.43l-0.647,0.428c-0.161-0.258-0.208-0.526-0.141-0.807
		c0.067-0.281,0.213-0.535,0.437-0.763c0.285-0.29,0.573-0.45,0.863-0.482c0.292-0.031,0.54,0.051,0.744,0.244
		c0.128,0.121,0.2,0.255,0.215,0.403c0.017,0.148-0.012,0.33-0.084,0.547c0.224-0.132,0.429-0.194,0.615-0.188
		c0.188,0.007,0.354,0.08,0.503,0.222c0.19,0.181,0.269,0.423,0.235,0.729c-0.035,0.306-0.213,0.623-0.536,0.952
		c-0.563,0.574-1.136,0.71-1.717,0.406l0.462-0.686c0.331,0.134,0.602,0.092,0.814-0.124c0.117-0.119,0.18-0.245,0.187-0.377
		c0.006-0.133-0.033-0.239-0.119-0.321c-0.096-0.09-0.208-0.124-0.334-0.101c-0.128,0.023-0.251,0.096-0.37,0.217L18.582,21.655z"/>
	<path fill="#FAFDFD" d="M18.75,18.644l0.6-0.612l1.537,1.457l-0.577-2.436l0.613-0.626l2.446,2.32l-0.6,0.612l-1.563-1.483
		l0.59,2.476l-0.6,0.611L18.75,18.644z"/>
	<path fill="#FAFDFD" d="M21.539,15.8l0.622-0.635l1,0.948c0.092-0.117,0.132-0.223,0.122-0.318
		c-0.011-0.095-0.076-0.258-0.197-0.493c-0.161-0.31-0.228-0.546-0.201-0.706c0.027-0.162,0.119-0.32,0.273-0.477
		c0.047-0.048,0.132-0.128,0.257-0.241l0.43,0.403c-0.165,0.168-0.253,0.291-0.267,0.369c-0.012,0.079,0.039,0.224,0.153,0.438
		c0.153,0.288,0.188,0.526,0.104,0.715c0.253-0.147,0.598-0.149,1.032-0.005c0.022,0.006,0.047,0.014,0.072,0.021l1.024,0.284
		l-0.671,0.685l-1.018-0.354c-0.207-0.069-0.354-0.101-0.44-0.092c-0.089,0.009-0.178,0.061-0.27,0.154l1.043,0.989l-0.622,0.635
		L21.539,15.8z"/>
	<path fill="#FAFDFD" d="M25.054,13.685l-0.673,0.477c-0.173-0.289-0.238-0.567-0.196-0.833c0.042-0.266,0.216-0.556,0.522-0.869
		c0.278-0.284,0.52-0.463,0.725-0.538c0.205-0.073,0.387-0.089,0.547-0.047c0.162,0.043,0.382,0.198,0.664,0.465l0.748,0.723
		c0.215,0.204,0.384,0.344,0.506,0.421c0.122,0.076,0.269,0.142,0.439,0.196l-0.617,0.63c-0.06-0.024-0.143-0.065-0.252-0.121
		c-0.048-0.025-0.081-0.042-0.097-0.049c0.001,0.211-0.033,0.403-0.102,0.578c-0.067,0.175-0.17,0.333-0.308,0.473
		c-0.243,0.248-0.503,0.379-0.779,0.392s-0.519-0.08-0.727-0.277c-0.139-0.131-0.23-0.28-0.275-0.448
		c-0.044-0.167-0.039-0.337,0.019-0.509c0.058-0.171,0.173-0.388,0.346-0.65c0.235-0.351,0.383-0.607,0.447-0.769l-0.064-0.062
		c-0.125-0.118-0.243-0.172-0.355-0.162c-0.111,0.011-0.25,0.099-0.415,0.267c-0.111,0.113-0.175,0.223-0.192,0.33
		C24.95,13.41,24.979,13.537,25.054,13.685z M26.414,13.329c-0.052,0.108-0.146,0.269-0.28,0.482
		c-0.135,0.213-0.21,0.365-0.227,0.454c-0.021,0.14,0.013,0.253,0.105,0.34c0.091,0.086,0.202,0.127,0.333,0.124
		s0.247-0.058,0.348-0.161c0.113-0.115,0.182-0.26,0.207-0.438c0.019-0.132-0.005-0.25-0.064-0.355
		c-0.04-0.069-0.137-0.177-0.292-0.324L26.414,13.329z"/>
	<path fill="#FAFDFD" d="M27.614,7.745c0.315-0.322,0.679-0.462,1.089-0.422c0.488,0.046,1.054,0.373,1.693,0.979
		c0.64,0.606,0.991,1.15,1.058,1.633c0.054,0.398-0.077,0.757-0.393,1.079c-0.317,0.324-0.699,0.464-1.145,0.423
		c-0.447-0.042-0.994-0.37-1.643-0.984c-0.635-0.602-0.986-1.145-1.053-1.627C27.168,8.427,27.299,8.067,27.614,7.745z M28.15,8.254
		c-0.076,0.077-0.118,0.169-0.127,0.278c-0.01,0.107,0.034,0.24,0.131,0.395c0.124,0.202,0.384,0.491,0.78,0.867
		c0.396,0.375,0.687,0.614,0.874,0.715c0.187,0.101,0.334,0.146,0.441,0.132c0.107-0.014,0.199-0.058,0.275-0.135
		c0.075-0.077,0.117-0.169,0.127-0.277c0.009-0.108-0.034-0.239-0.13-0.395c-0.123-0.201-0.383-0.489-0.779-0.865
		c-0.396-0.376-0.688-0.614-0.874-0.716c-0.187-0.101-0.334-0.146-0.442-0.133C28.318,8.132,28.226,8.177,28.15,8.254z"/>
	<path fill="#FAFDFD" d="M29.941,7.04c-0.303-0.287-0.462-0.565-0.48-0.833c-0.018-0.27,0.083-0.516,0.302-0.739
		c0.228-0.231,0.478-0.343,0.75-0.336c0.274,0.007,0.563,0.154,0.866,0.443c0.303,0.287,0.463,0.564,0.479,0.834
		c0.019,0.269-0.082,0.515-0.301,0.739c-0.227,0.231-0.478,0.343-0.75,0.337C30.534,7.476,30.245,7.328,29.941,7.04z M30.423,6.54
		c0.22,0.208,0.392,0.322,0.516,0.344c0.093,0.015,0.171-0.012,0.235-0.079c0.067-0.068,0.093-0.146,0.074-0.237
		c-0.028-0.12-0.151-0.284-0.371-0.491c-0.219-0.208-0.391-0.324-0.511-0.345c-0.094-0.016-0.175,0.009-0.242,0.077
		c-0.064,0.067-0.088,0.146-0.069,0.236C30.081,6.167,30.204,6.331,30.423,6.54z M33.801,8.36l-0.462,0.471l-1.827-5.148
		l0.449-0.458L33.801,8.36z M33.924,6.491c-0.303-0.287-0.463-0.565-0.48-0.834s0.085-0.517,0.307-0.744
		c0.224-0.229,0.473-0.338,0.747-0.331c0.273,0.008,0.562,0.155,0.864,0.442c0.304,0.288,0.465,0.566,0.481,0.835
		c0.019,0.269-0.082,0.516-0.301,0.739c-0.227,0.231-0.478,0.343-0.752,0.335C34.517,6.927,34.228,6.779,33.924,6.491z
		 M34.408,5.993c0.219,0.208,0.39,0.322,0.512,0.342c0.094,0.016,0.174-0.009,0.238-0.076c0.067-0.068,0.092-0.146,0.071-0.234
		c-0.026-0.122-0.148-0.287-0.369-0.494c-0.219-0.209-0.39-0.324-0.512-0.347c-0.093-0.015-0.173,0.011-0.239,0.079
		c-0.067,0.068-0.09,0.147-0.069,0.236C34.066,5.62,34.188,5.784,34.408,5.993z"/>
</g>
</svg>
