<?xml version="1.0" encoding="utf-8"?>
<!-- Generator: Adobe Illustrator 22.1.0, SVG Export Plug-In . SVG Version: 6.00 Build 0)  -->
<svg version="1.2" baseProfile="tiny" id="Слой_1"
	 xmlns="http://www.w3.org/2000/svg" xmlns:xlink="http://www.w3.org/1999/xlink" x="0px" y="0px" viewBox="0 0 50 50"
	 xml:space="preserve">
<polygon fill="#501017" points="47.905,0.879 48.875,4.961 26.667,4.961 "/>
<polygon fill="#501017" points="0.767,49.014 4.782,50 4.782,28.164 "/>
<path fill="#CE1417" d="M47.31,0.561c0.633,0.02,0.789,0.407,0.346,0.86L1.392,48.765c-0.443,0.453-0.82,0.305-0.839-0.326
	L0.001,30.361c-0.021-0.633,0.327-1.52,0.771-1.971L27.924,0.785c0.443-0.451,1.324-0.804,1.957-0.784L47.31,0.561z"/>
<g>
	<path fill="#FAFDFD" d="M5.848,36.62l-3.116-2.956l0.974-0.993c0.369-0.377,0.625-0.607,0.769-0.692
		c0.219-0.131,0.465-0.182,0.737-0.152c0.273,0.03,0.534,0.163,0.782,0.397c0.191,0.182,0.318,0.368,0.382,0.561
		c0.063,0.192,0.08,0.376,0.052,0.553c-0.03,0.175-0.085,0.329-0.167,0.46c-0.116,0.177-0.311,0.405-0.585,0.686l-0.396,0.403
		l1.176,1.115L5.848,36.62z M3.866,33.545l0.884,0.839l0.333-0.339c0.239-0.244,0.383-0.423,0.431-0.536
		c0.049-0.113,0.061-0.227,0.038-0.339s-0.082-0.212-0.173-0.3c-0.114-0.107-0.239-0.163-0.378-0.167
		c-0.137-0.005-0.265,0.034-0.382,0.117c-0.087,0.061-0.239,0.202-0.458,0.426L3.866,33.545z"/>
	<path fill="#FAFDFD" d="M9.083,31.904l0.675-0.49c0.144,0.282,0.194,0.56,0.148,0.829c-0.045,0.271-0.188,0.528-0.427,0.772
		c-0.379,0.386-0.787,0.551-1.226,0.493c-0.349-0.049-0.68-0.222-0.993-0.519c-0.374-0.354-0.573-0.729-0.597-1.123
		c-0.022-0.393,0.11-0.736,0.398-1.031c0.324-0.33,0.691-0.485,1.1-0.466c0.409,0.019,0.838,0.249,1.288,0.692l-1.444,1.473
		c0.181,0.163,0.366,0.247,0.553,0.25c0.188,0.003,0.347-0.064,0.479-0.199c0.09-0.092,0.141-0.194,0.152-0.305
		C9.202,32.17,9.166,32.045,9.083,31.904z M8.512,31.299c-0.177-0.16-0.351-0.24-0.522-0.241c-0.172-0.002-0.318,0.057-0.435,0.177
		c-0.126,0.128-0.182,0.279-0.169,0.453s0.101,0.337,0.266,0.49L8.512,31.299z"/>
	<path fill="#FAFDFD" d="M8.597,29.372l0.574-0.586l0.922,0.875c0.085-0.108,0.122-0.206,0.112-0.293
		c-0.01-0.088-0.071-0.239-0.182-0.455c-0.149-0.286-0.21-0.504-0.186-0.652s0.108-0.295,0.25-0.44
		c0.044-0.045,0.124-0.118,0.239-0.222l0.397,0.373c-0.152,0.154-0.234,0.268-0.247,0.339c-0.011,0.073,0.036,0.207,0.141,0.404
		c0.141,0.266,0.173,0.485,0.096,0.66c0.234-0.136,0.551-0.138,0.953-0.006c0.021,0.007,0.042,0.014,0.066,0.02l0.945,0.263
		l-0.62,0.632l-0.939-0.326c-0.19-0.065-0.326-0.093-0.408-0.086c-0.079,0.01-0.163,0.057-0.248,0.144l0.963,0.913l-0.574,0.586
		L8.597,29.372z"/>
	<path fill="#FAFDFD" d="M11.63,28.438c-0.198-0.188-0.343-0.419-0.435-0.69c-0.091-0.272-0.099-0.543-0.025-0.813
		c0.076-0.27,0.22-0.513,0.433-0.73c0.33-0.336,0.711-0.506,1.143-0.51c0.432-0.005,0.818,0.153,1.157,0.475
		c0.342,0.324,0.519,0.701,0.53,1.131c0.013,0.431-0.144,0.81-0.466,1.139c-0.199,0.203-0.436,0.354-0.71,0.449
		c-0.275,0.097-0.551,0.106-0.825,0.031C12.156,28.844,11.889,28.684,11.63,28.438z M12.252,27.865
		c0.225,0.212,0.447,0.322,0.668,0.331s0.408-0.064,0.558-0.218s0.217-0.339,0.2-0.555c-0.017-0.218-0.139-0.434-0.366-0.648
		c-0.221-0.209-0.442-0.318-0.663-0.328c-0.221-0.009-0.407,0.063-0.557,0.217s-0.217,0.339-0.201,0.557
		C11.908,27.438,12.028,27.653,12.252,27.865z"/>
	<path fill="#FAFDFD" d="M13.193,24.683l0.714-0.728l2.114,0.939l-1.027-2.049l0.712-0.726l2.257,2.142l-0.49,0.5l-1.485-1.409
		l0.954,1.95l-0.492,0.503l-1.992-0.893l1.485,1.41l-0.493,0.502L13.193,24.683z"/>
	<path fill="#FAFDFD" d="M19.084,21.704l0.675-0.491c0.144,0.282,0.194,0.56,0.148,0.829c-0.045,0.271-0.188,0.529-0.427,0.772
		c-0.378,0.387-0.787,0.551-1.226,0.493c-0.349-0.048-0.68-0.221-0.993-0.518c-0.374-0.355-0.573-0.729-0.597-1.123
		c-0.022-0.393,0.11-0.737,0.398-1.031c0.324-0.331,0.691-0.486,1.1-0.467c0.409,0.02,0.838,0.25,1.288,0.692l-1.444,1.473
		c0.181,0.164,0.366,0.247,0.552,0.251c0.188,0.002,0.347-0.064,0.48-0.2c0.09-0.092,0.141-0.193,0.151-0.305
		S19.167,21.843,19.084,21.704z M18.513,21.098c-0.177-0.16-0.351-0.24-0.523-0.242s-0.317,0.058-0.435,0.177
		c-0.126,0.129-0.182,0.279-0.169,0.453s0.101,0.337,0.266,0.49L18.513,21.098z"/>
	<path fill="#FAFDFD" d="M18.598,19.171l0.576-0.588L20,19.367l0.825-0.841l-0.826-0.784l0.578-0.59l2.257,2.141l-0.578,0.59
		l-0.948-0.899l-0.825,0.841l0.948,0.899l-0.576,0.588L18.598,19.171z"/>
	<path fill="#FAFDFD" d="M25.215,16.865l-1.649,1.682l0.596,0.564l-0.468,0.477L22.61,18.56l0.236-0.241
		c-0.016-0.208-0.111-0.458-0.288-0.753c-0.176-0.294-0.551-0.724-1.122-1.29l1.758-1.793l1.769,1.677l0.234-0.239l1.083,1.028
		l-0.469,0.479L25.215,16.865z M24.393,16.742l-1.276-1.213l-0.697,0.711c0.601,0.615,0.931,1.117,0.991,1.504L24.393,16.742z"/>
	<path fill="#FAFDFD" d="M23.603,14.066l0.613-0.625l2.123,0.989l-1.094-2.039l0.597-0.608l1.403,2.845l0.256,0.513
		c0.081,0.177,0.134,0.321,0.157,0.434c0.023,0.113,0.026,0.219,0.011,0.322c-0.017,0.101-0.056,0.208-0.119,0.319
		c-0.063,0.111-0.148,0.223-0.258,0.334c-0.111,0.113-0.231,0.212-0.362,0.298l-0.519-0.391c0.108-0.075,0.199-0.149,0.271-0.223
		c0.135-0.137,0.192-0.277,0.175-0.42c-0.017-0.143-0.071-0.291-0.163-0.446L23.603,14.066z"/>
	<path fill="#FAFDFD" d="M28.589,11.541l-0.602,0.613c0.2,0.152,0.385,0.233,0.552,0.241s0.318-0.058,0.454-0.196
		c0.215-0.219,0.226-0.467,0.032-0.744l0.679-0.479c0.337,0.596,0.246,1.158-0.271,1.686c-0.339,0.346-0.701,0.513-1.087,0.502
		c-0.387-0.011-0.769-0.196-1.148-0.557c-0.358-0.34-0.555-0.7-0.59-1.083c-0.033-0.381,0.122-0.75,0.47-1.104
		c0.484-0.494,1.004-0.613,1.561-0.357l-0.454,0.676c-0.11-0.066-0.227-0.081-0.349-0.046c-0.121,0.034-0.224,0.095-0.309,0.181
		c-0.134,0.137-0.193,0.284-0.182,0.441c0.015,0.159,0.103,0.327,0.266,0.506l0.613-0.625L28.589,11.541z"/>
	<path fill="#FAFDFD" d="M28.547,9.022l0.714-0.728l2.114,0.939l-1.027-2.048L31.06,6.46l2.257,2.141l-0.49,0.5l-1.485-1.409
		l0.954,1.951l-0.492,0.502l-1.992-0.893l1.485,1.409l-0.492,0.502L28.547,9.022z"/>
	<path fill="#FAFDFD" d="M32.546,7.103c-0.198-0.188-0.344-0.419-0.435-0.691C32.021,6.14,32.013,5.869,32.087,5.6
		c0.075-0.27,0.22-0.513,0.433-0.73c0.329-0.336,0.711-0.506,1.144-0.51c0.432-0.004,0.817,0.153,1.156,0.475
		c0.342,0.324,0.519,0.701,0.529,1.13c0.013,0.431-0.144,0.81-0.466,1.139c-0.199,0.204-0.436,0.354-0.711,0.45
		c-0.274,0.096-0.55,0.106-0.824,0.031C33.071,7.509,32.805,7.349,32.546,7.103z M33.168,6.531c0.225,0.212,0.447,0.322,0.669,0.331
		c0.222,0.008,0.407-0.064,0.558-0.218s0.217-0.339,0.199-0.555c-0.017-0.217-0.139-0.433-0.365-0.648
		c-0.221-0.21-0.442-0.319-0.662-0.328c-0.222-0.009-0.407,0.063-0.558,0.217s-0.217,0.339-0.2,0.556
		C32.824,6.104,32.944,6.318,33.168,6.531z"/>
</g>
</svg>
