<?xml version="1.0" encoding="utf-8"?>
<!-- Generator: Adobe Illustrator 22.1.0, SVG Export Plug-In . SVG Version: 6.00 Build 0)  -->
<svg version="1.1" id="Слой_1" xmlns="http://www.w3.org/2000/svg" xmlns:xlink="http://www.w3.org/1999/xlink" x="0px" y="0px"
	 width="79.6px" height="128px" viewBox="0 0 79.6 128" style="enable-background:new 0 0 79.6 128;" xml:space="preserve">
<style type="text/css">
	.st0{fill:#FFFFFF;}
</style>
<g>
	<path class="st0" d="M34.1,119h11.4c0.9,0,1.7-0.9,1.7-1.7c0-0.9-0.7-1.7-1.7-1.7H34.1c-0.9,0-1.7,0.7-1.7,1.7
		C32.4,118.2,33.3,119,34.1,119z"/>
	<path class="st0" d="M68.4,58.1L79.1,55V8.5c0-4.6-3.9-8.5-8.5-8.5H9C4.4,0,0.5,3.9,0.5,8.5v111c0,4.8,3.9,8.5,8.5,8.5h61.6
		c4.6,0,8.5-3.7,8.5-8.5V55.7l-10.7,5.9v44.8H11.2V74.7L68.4,58.1z M11.2,19c4.2-0.9,7.4-4.2,8.3-8.3h40.6c0.9,4.2,4.2,7.4,8.3,8.3
		v34.5l-9.8,2.8C56.6,47.6,49,41,39.8,41c-10.7,0-19.4,8.7-19.4,19.4c0,2.4,0.4,4.6,1.1,6.6l-10.3,3.1C11.2,70.1,11.2,19,11.2,19z
		 M34.1,111.4h11.4c3.3,0,5.9,2.6,5.9,5.9s-2.6,5.9-5.9,5.9H34.1c-3.3,0-5.9-2.6-5.9-5.9S30.9,111.4,34.1,111.4z"/>
</g>
</svg>
