<?xml version="1.0" encoding="utf-8"?>
<!-- Generator: Adobe Illustrator 22.1.0, SVG Export Plug-In . SVG Version: 6.00 Build 0)  -->
<svg version="1.1" id="Слой_1" xmlns="http://www.w3.org/2000/svg" xmlns:xlink="http://www.w3.org/1999/xlink" x="0px" y="0px"
	 width="234.3px" height="128px" viewBox="0 0 234.3 128" style="enable-background:new 0 0 234.3 128;" xml:space="preserve">
<style type="text/css">
	.st0{fill:#FFFFFF;}
</style>
<g>
	<g>
		<g>
			<path class="st0" d="M170,128.1h-9.6c-2.6,0-4.7-2.1-4.7-4.7s2.1-4.7,4.7-4.7h9.6c30.1,0,54.7-24.5,54.7-54.7S200.2,9.4,170,9.4
				h-14.5c-2.6,0-4.7-2.1-4.7-4.7s2.1-4.7,4.7-4.7H170c35.3,0,64.2,28.7,64.2,64.2S205.5,128.1,170,128.1z"/>
		</g>
		<g>
			<path class="st0" d="M155.6,128.1c-27.8,0-52.3-18-61-44.1H63.8c-2.6,0-4.7-2.1-4.7-4.7s2.1-4.7,4.7-4.7h34.6
				c2.1,0,4,1.4,4.7,3.5c6.3,23.8,28,40.6,52.8,40.6c30.1,0,54.7-24.5,54.7-54.7s-24.9-54.6-55-54.6c-26.9,0-49.5,19.2-54,45.8
				c-0.5,2.6-2.8,4.2-5.4,4c-2.6-0.5-4.4-2.8-4-5.4c5.2-31,31.8-53.7,63.4-53.7c35.3,0,64.2,28.7,64.2,64.2S191.1,128.1,155.6,128.1
				z"/>
		</g>
		<g>
			<path class="st0" d="M103.5,35.6H4.7c-2.6,0-4.7-2.1-4.7-4.7s2.1-4.7,4.7-4.7h98.8c2.6,0,4.7,2.1,4.7,4.7S106,35.6,103.5,35.6z"
				/>
		</g>
		<g>
			<path class="st0" d="M122.6,59.2H30.8c-2.6,0-4.7-2.1-4.7-4.7c0-2.6,2.1-4.7,4.7-4.7h91.8c2.6,0,4.7,2.1,4.7,4.7
				C127.3,57.1,125.2,59.2,122.6,59.2z"/>
		</g>
		<g>
			<path class="st0" d="M45.1,84.2H12.6c-2.6,0-4.7-2.1-4.7-4.7s2.1-4.7,4.7-4.7h32.5c2.6,0,4.7,2.1,4.7,4.7S47.6,84.2,45.1,84.2z"
				/>
		</g>
		<g>
			<path class="st0" d="M155.6,128.1H44.1c-2.6,0-4.7-2.1-4.7-4.7s2.1-4.7,4.7-4.7h111.4c2.6,0,4.7,2.1,4.7,4.7
				C160.5,126,158.4,128.1,155.6,128.1z"/>
		</g>
		<g>
			<path class="st0" d="M83.6,105.2h-1.4c-2.6,0-4.7-2.1-4.7-4.7s2.1-4.7,4.7-4.7h1.4c2.6,0,4.7,2.1,4.7,4.7
				C88.3,103.1,86.2,105.2,83.6,105.2z"/>
		</g>
		<g>
			<path class="st0" d="M122.6,105.2H97.4c-2.6,0-4.7-2.1-4.7-4.7s2.1-4.7,4.7-4.7h25.2c2.6,0,4.7,2.1,4.7,4.7
				S125.2,105.2,122.6,105.2z"/>
		</g>
		<g>
			<path class="st0" d="M142.9,55.2c0-3.7,0.7-6.8,2.3-8.9c1.4-2.3,3.7-3.7,6.8-4.4v-4h7v4c3,0.7,5.4,2.1,7,4.4
				c1.6,2.3,2.3,5.4,2.3,9.1V57h-8.2v-2.3c0-2.1-0.5-3.5-1.2-4.2s-1.9-1.2-3.3-1.2s-2.3,0.5-3.3,1.2c-0.7,0.7-1.2,2.1-1.2,4.2
				c0,1.9,0.5,3.5,1.2,4.9c0.9,1.4,1.9,2.6,3,3.7c1.2,1.2,2.6,2.3,4,3.5s2.8,2.3,4,3.7c1.2,1.4,2.3,3,3,4.9c0.9,1.9,1.2,4.2,1.2,6.8
				c0,3.7-0.7,6.8-2.3,9.1c-1.6,2.3-4,3.7-7,4.4v4h-7v-4.2c-3-0.7-5.4-2.1-7-4.4s-2.3-5.4-2.3-9.1v-3.7h8.2v4.2
				c0,2.1,0.5,3.3,1.2,4.2c0.7,0.7,1.9,1.2,3.3,1.2s2.3-0.5,3.3-1.2c0.7-0.7,1.2-2.1,1.2-4.2c0-1.9-0.5-3.5-1.2-4.9
				c-0.9-1.4-1.9-2.6-3-3.7c-1.2-1.2-2.6-2.3-4-3.5s-2.8-2.3-4-3.7c-1.2-1.4-2.3-3-3-4.9C143.4,60.1,142.9,57.8,142.9,55.2z"/>
		</g>
		<g>
			<path class="st0" d="M155.6,9.4H79.9c-2.6,0-4.7-2.1-4.7-4.7S77.3,0,79.9,0h75.9c2.6,0,4.7,2.1,4.7,4.7S158.4,9.4,155.6,9.4z"/>
		</g>
	</g>
</g>
</svg>
