<?xml version="1.0" encoding="utf-8"?>
<svg version="1.2" baseProfile="tiny" id="Слой_1"
	 xmlns="http://www.w3.org/2000/svg" xmlns:xlink="http://www.w3.org/1999/xlink" x="0px" y="0px" width="128px" height="128px"
	 viewBox="0 0 128 128" xml:space="preserve">
<g>
	<path fill="#FFFFFF" d="M63.313,44.335l-3.469,13.911c3.936,0.98,16.061,4.979,18.025-2.892
		C79.918,47.145,67.248,45.315,63.313,44.335z"/>
	<path fill="#FFFFFF" d="M58.096,65.365l-3.827,15.388C58.995,81.928,73.561,86,75.717,78h0.004
		C77.963,69,62.819,66.544,58.096,65.365z"/>
	<path fill="#FFFFFF" d="M78.991,2.476C44.976-6.007,10.518,14.924,2.039,48.949c-8.484,34.021,12.222,68.145,46.232,76.628
		C82.295,134.059,116.758,114,125.239,79h-0.003C133.719,46,113.015,10.956,78.991,2.476z M91.641,55h-0.004
		c-0.914,7-4.344,9.419-8.896,10.475c6.252,3.257,9.431,8.368,6.4,17.021c-3.756,10.745-12.692,11.712-24.575,9.463l-2.883,11.587
		l-6.968-1.72L57.56,90.43c-1.806-0.45-3.651-0.921-5.55-1.438l-2.858,11.456l-6.96-1.733l2.883-11.581
		c-1.625-0.415-3.278-0.858-4.965-1.28l-9.07-2.261l3.459-7.979c0,0,5.134,1.366,5.065,1.266c1.973,0.486,2.847-0.799,3.193-1.656
		l4.558-18.269l3.261-13.091c0.087-1.48-0.424-3.347-3.247-4.052c0.108-0.073-5.061-1.259-5.061-1.259l1.854-7.441l9.609,2.398
		l-0.009,0.036c1.445,0.36,2.935,0.701,4.45,1.046l2.856-11.441l6.963,1.736l-2.798,11.218c1.869,0.428,3.751,0.857,5.58,1.313
		l2.779-11.145l6.97,1.736l-2.853,11.207C86.468,42.247,92.902,46,91.641,55z"/>
</g>
</svg>
