<?xml version="1.0" encoding="utf-8"?>
<!-- Generator: Adobe Illustrator 22.1.0, SVG Export Plug-In . SVG Version: 6.00 Build 0)  -->
<svg version="1.1" id="Слой_1" xmlns="http://www.w3.org/2000/svg" xmlns:xlink="http://www.w3.org/1999/xlink" x="0px" y="0px"
	 width="244.1px" height="128px" viewBox="0 0 244.1 128" style="enable-background:new 0 0 244.1 128;" xml:space="preserve">
<style type="text/css">
	.st0{fill:#FFFFFF;}
</style>
<path class="st0" d="M220.9,81.3c-0.2,0-0.4,0-0.4,0c-2.9-19.7-19.7-34.9-40.3-34.9c-6.7,0-13.2,1.6-18.8,4.5
	C155.3,20.8,127.8-1.6,95.5,0C64.2,1.7,38.2,26.6,35.1,57.9C34,68.7,35.8,79,39.6,88.3c-5.2-5.2-12.8-7.9-21-6.3
	c-9,1.8-16.4,9-18.2,18.1c-2.9,14.8,8.5,27.8,22.8,27.8h59.1c3.3,0,5.8-2.5,5.8-5.8V99.6l0,0c0-8.1,2.7-15.9,7.9-22
	c6.5-7.6,15.9-12.1,26-12.1c1.8,0,3.8,0.2,5.8,0.5c14.1,2.3,25.5,13.7,27.8,27.8c0.4,2,0.4,3.8,0.4,5.8l0,0v22.6
	c0,3.3,2.5,5.8,5.8,5.8H220c12.5,0,23.1-9.4,24-21.7C244.9,92.7,234.2,81.3,220.9,81.3z"/>
<path class="st0" d="M147.2,95.3c-1.8-10.5-10.3-19-20.8-20.8c-17.4-2.9-32.2,12-29.3,29.3c1.8,10.5,10.3,19,20.8,20.8
	C135.3,127.5,150.1,112.6,147.2,95.3z M123.9,113v2.2h-3.8V113c-3.3-0.7-5.1-3.3-5.1-7.2v-2h4.3v2.3c0,2.2,0.9,2.9,2.3,2.9
	s2.3-0.7,2.3-2.9c0-6-9-6.3-9-14.6c0.5-3.8,2.1-6.4,5.3-7.1v-2.2h3.8v2.2c3.3,0.7,4.9,3.3,4.9,7.2v0.9h-4.3v-1.3
	c0-2.2-0.9-2.9-2.3-2.9S120,89,120,91.2c0,6,9,6.3,9,14.6C129,109.8,127.4,112.3,123.9,113z"/>
</svg>
