<?xml version="1.0" encoding="utf-8"?>
<!-- Generator: Adobe Illustrator 22.1.0, SVG Export Plug-In . SVG Version: 6.00 Build 0)  -->
<svg version="1.1" id="Слой_1" xmlns="http://www.w3.org/2000/svg" xmlns:xlink="http://www.w3.org/1999/xlink" x="0px" y="0px"
	 width="113.8px" height="128px" viewBox="0 0 113.8 128" style="enable-background:new 0 0 113.8 128;" xml:space="preserve">
<style type="text/css">
	.st0{fill:#FFFFFF;}
</style>
<g>
	<path class="st0" d="M57.1,47.7c-8.7,0-15.6,6.9-15.6,15.6s6.9,15.6,15.6,15.6c8.7,0,15.6-6.9,15.6-15.6
		C72.7,54.8,65.8,47.7,57.1,47.7z M57.1,71.6V73h-2.3v-1.4c-2.1-0.4-3.2-2-3.2-4.6v-1.2h2.7v1.4c0,1.2,0.5,1.8,1.4,1.8
		c0.9,0,1.4-0.5,1.4-1.8c0-3.7-5.7-3.9-5.7-9.2c0.2-2.5,1.1-4.1,3.2-4.6V52h2.3v1.4c2.1,0.4,3.2,2,3.2,4.4v0.7h-2.7v-0.7
		c0-1.2-0.5-1.8-1.4-1.8s-1.4,0.5-1.4,1.8c0,3.7,5.7,3.9,5.7,9.2C60.3,69.5,59.2,71.1,57.1,71.6z"/>
	<g>
		<path class="st0" d="M56.8,128c-15.2,0-23.4-33-23.4-64S41.7,0,56.8,0C72,0,80.2,33,80.2,64S72,128,56.8,128z M56.8,5.7
			C48.4,5.7,39,29.6,39,64.2c0,34.4,9.4,58.5,17.7,58.5s17.7-23.9,17.7-58.5C74.7,29.6,65.3,5.7,56.8,5.7z"/>
	</g>
	<g>
		<path class="st0" d="M97.5,102.3c-13.3,0-32.8-6.7-52.5-17.9c-14.3-8.3-26.9-18.1-35-27.5C1,46.6-2.1,38.1,1.5,32.1
			c1.6-2.8,5.5-6.2,14.7-6.2c13.3,0,32.8,6.7,52.5,17.9c26.9,15.6,51.4,39.2,43.8,52.3C110.7,98.9,106.8,102.3,97.5,102.3z
			 M16.2,31.4c-5.1,0-8.7,1.2-9.9,3.4c-2,3.5,0.9,10.5,8,18.3c7.8,8.9,19.9,18.3,33.9,26.2c18.4,10.6,37.4,17.2,49.6,17.2
			c5.1,0,8.7-1.2,9.9-3.4C112,85.8,95.8,65.6,66,48.4C47.4,37.9,28.2,31.4,16.2,31.4z"/>
	</g>
	<g>
		<path class="st0" d="M16.2,102.3c-9.2,0-13.1-3.4-14.7-6.2C-6.2,83,18.3,59.4,45.2,43.8c19.5-11.3,39.2-17.9,52.5-17.9
			c9.2,0,13.1,3.4,14.7,6.2c3.4,6,0.5,14.5-8.5,24.8C95.6,66.3,83.2,76,68.8,84.4C49,95.6,29.5,102.3,16.2,102.3z M97.5,31.4
			c-12.2,0-31.2,6.6-49.6,17.2C18.1,65.8,2,86,6.2,93.3c1.2,2.1,4.8,3.4,9.9,3.4c12.2,0,31.2-6.6,49.6-17.2
			c13.8-8,25.9-17.4,33.9-26.2c7.1-8,9.9-14.7,8-18.3C106.2,32.6,102.7,31.4,97.5,31.4z"/>
	</g>
	<g>
		<circle class="st0" cx="102.7" cy="74.3" r="5.1"/>
		<path class="st0" d="M102.7,80.4c-3.4,0-6.1-2.7-6.1-6.1c0-3.4,2.7-6.1,6.1-6.1c3.4,0,6.1,2.7,6.1,6.1
			C108.8,77.7,106.1,80.4,102.7,80.4z M102.7,70.2c-2.3,0-4.1,1.8-4.1,4.1s1.8,4.1,4.1,4.1s4.1-1.8,4.1-4.1S105,70.2,102.7,70.2z"/>
	</g>
	<g>
		<path class="st0" d="M41.3,14c2.5-1.4,5.5-0.5,6.9,1.8c1.4,2.5,0.5,5.5-1.8,6.9c-2.5,1.4-5.5,0.5-6.9-1.8
			C38.1,18.4,38.9,15.4,41.3,14z"/>
		<path class="st0" d="M43.9,24.4c-2.1,0-4.1-1-5.2-2.9c-1.7-3-0.7-6.6,2.1-8.3c0,0,0,0,0,0c2.9-1.6,6.5-0.7,8.2,2.2
			c1.6,2.9,0.7,6.6-2.1,8.3C45.9,24.1,44.9,24.4,43.9,24.4z M41.8,14.9c-1.9,1.1-2.6,3.5-1.4,5.5c1.1,1.9,3.6,2.5,5.5,1.4
			c1.9-1.1,2.5-3.6,1.4-5.5C46.2,14.4,43.8,13.8,41.8,14.9z"/>
	</g>
	<g>
		<path class="st0" d="M22.4,101.8c-2.5-1.4-3.2-4.4-1.8-6.9s4.4-3.2,6.9-1.8s3.2,4.4,1.8,6.9C27.9,102.3,24.7,103,22.4,101.8z"/>
		<path class="st0" d="M24.8,103.4c-1,0-2-0.2-2.9-0.7c0,0,0,0,0,0c-1.4-0.8-2.5-2.1-2.8-3.7c-0.4-1.5-0.1-3.2,0.7-4.6
			c1.7-3,5.2-3.9,8.3-2.2c1.4,0.8,2.5,2.1,2.8,3.7c0.4,1.5,0.1,3.2-0.7,4.6C29.1,102.3,26.9,103.4,24.8,103.4z M22.9,100.9
			c1.9,1,4.5,0.3,5.6-1.4c1.1-2,0.5-4.4-1.4-5.5c-2.1-1.2-4.4-0.5-5.5,1.4c-0.6,1-0.7,2.1-0.5,3.1C21.3,99.5,21.9,100.4,22.9,100.9z
			"/>
	</g>
</g>
</svg>
