<?xml version="1.0" encoding="utf-8"?>
<svg version="1.2" baseProfile="tiny" id="Слой_1"
	 xmlns="http://www.w3.org/2000/svg" xmlns:xlink="http://www.w3.org/1999/xlink" x="0px" y="0px" width="139.834px" height="128px"
	 viewBox="0 0 139.834 128" xml:space="preserve">
<g>
	<path fill="#FFFFFF" d="M26.93,93.596V79.988c0.739,0.161,1.44,0.354,2.068,0.58c1.387,0.502,2.36,1.127,2.715,1.721
		c-0.91,0.617-2.318,1.98-2.318,4.501c0,3.351,2.204,5.431,5.751,5.431c3.164,0,5.738-3.059,5.738-6.814
		c0-1.77-0.588-5.149-4.526-7.922c-2.393-1.685-5.551-2.803-9.427-3.349v-3.11c0-0.488-0.397-0.885-0.887-0.885H24.45
		c-0.49,0-0.887,0.396-0.887,0.885v2.79c-0.841-0.044-1.708-0.069-2.604-0.069c-1.172,0-2.275,0.045-3.326,0.123v-2.844
		c0-0.488-0.397-0.885-0.887-0.885h-1.593c-0.49,0-0.887,0.396-0.887,0.885v3.245C4.906,75.859,1.402,80.813,1.402,85.168
		c0,7.373,6.184,10.763,12.864,13.247v16.167c-0.846-0.229-1.66-0.493-2.411-0.793c-2.153-0.863-3.293-1.771-3.752-2.479
		c1.694-0.56,3.8-1.984,3.8-4.804c0-3.734-1.954-5.709-5.65-5.709c-3.112,0-6.251,2.025-6.251,6.552c0,1.82,0.469,5.329,3.611,8.357
		c2.467,2.377,6.041,3.919,10.654,4.616v4.073c0,0.489,0.397,0.888,0.887,0.888h1.593c0.49,0,0.887-0.398,0.887-0.888v-3.724
		c0.903,0.055,1.84,0.08,2.808,0.08c1.083,0,2.121-0.027,3.122-0.078v3.722c0,0.489,0.397,0.888,0.887,0.888h1.593
		c0.49,0,0.887-0.398,0.887-0.888v-4.008c9.737-1.197,14.667-5.345,14.667-12.378C41.597,99.979,34.264,96.238,26.93,93.596z
		 M17.633,79.767c1.297-0.233,2.663-0.339,3.969-0.339h0.001c0.657,0,1.313,0.025,1.96,0.072v12.942
		c-0.302-0.102-0.604-0.2-0.902-0.3c-1.749-0.578-3.47-1.146-5.028-1.746V79.767z M17.633,99.598
		c0.325,0.111,0.649,0.221,0.971,0.329c1.714,0.578,3.401,1.146,4.959,1.758v13.713c-0.887,0.102-1.7,0.133-2.335,0.133
		c-1.169,0-2.386-0.092-3.595-0.26V99.598z M11.061,84.988c0-1.97,1.309-3.327,3.205-4.21v8.1
		C12.315,87.796,11.061,86.554,11.061,84.988z M26.93,103.215c2.597,1.419,4.328,3.163,4.328,5.638c0,3.22-2.002,4.904-4.328,5.774
		V103.215z"/>
	<path fill="#FFFFFF" d="M98.466,91.798h-4.649l-2.004,6.77h5.522c-0.004,0.218-0.016,0.435-0.016,0.654
		c0,0.405,0.012,0.811,0.03,1.212h-3.414l-2.002,6.77h6.72c3.326,9.686,12.517,16.667,23.315,16.667
		c4.553,0,8.818-1.245,12.483-3.406v-10.065c-3.073,3.427-7.529,5.588-12.483,5.588c-6.356,0-11.896-3.557-14.739-8.783h19.735
		l3.124-6.77h-24.837c-0.028-0.399-0.048-0.805-0.048-1.212c0-0.22,0.008-0.438,0.017-0.654h25.73l3.123-6.77h-27.131
		c2.742-5.531,8.447-9.342,15.025-9.342c5.444,0,10.286,2.611,13.353,6.644l3.583-7.764c-4.42-4.188-10.38-6.764-16.936-6.764
		C110.965,74.572,101.622,81.823,98.466,91.798z"/>
	<path fill="#FFFFFF" d="M50.647,45.447l6.635,6.811l-0.058,0.047c0.404-0.317,4.104-3.039,9.592-0.853
		c2.125,0.847,4.184,1.203,6.133,1.203c6.501-0.001,11.795-3.96,14.303-6.922l-3.641-3.079l-3.615-3.106
		c-0.181,0.208-4.529,5.089-9.651,3.048c-2.27-0.904-4.446-1.352-6.48-1.474c1.076-3.051,1.792-6.328,2.102-9.673h6.167l2.323-9.057
		h-9.038c-0.245-1.081-0.521-2.095-0.776-3.026c-0.36-1.322-0.77-2.82-0.77-3.528c0-4.871,1.629-5.692,5.276-5.692
		c3.631,0,5.358,0.861,5.358,5.755h9.534c0-9.716-5.429-15.289-14.893-15.289c-9.411,0-14.809,5.55-14.809,15.226
		c0,1.986,0.537,3.955,1.107,6.04c0.046,0.171,0.092,0.343,0.139,0.515h-3.263l-2.324,9.057h6.379
		C55.713,36.914,53.628,42.092,50.647,45.447z"/>
	<path fill="#FFFFFF" d="M46.273,29.504l-3.989-7.099c0,0-0.63,0.418-1.731,1.15c-0.557,0.354-1.211,0.817-1.94,1.377
		c-0.738,0.547-1.57,1.159-2.423,1.901c-0.431,0.361-0.88,0.738-1.345,1.128c-0.443,0.414-0.903,0.841-1.374,1.282
		c-0.962,0.856-1.868,1.873-2.844,2.873c-0.912,1.064-1.897,2.12-2.769,3.3c-0.919,1.14-1.756,2.368-2.592,3.591
		c-0.785,1.257-1.6,2.492-2.27,3.783c-0.719,1.262-1.327,2.556-1.917,3.8c-0.55,1.264-1.081,2.484-1.504,3.67
		c-0.426,1.185-0.828,2.302-1.118,3.36c-0.12,0.406-0.232,0.786-0.343,1.163l-3.173-1.141l1.394,13.881l9.917-9.813l-4.214-1.516
		c0.152-0.369,0.307-0.746,0.471-1.145c0.362-0.943,0.838-1.929,1.335-2.969c0.495-1.042,1.094-2.102,1.706-3.193
		c0.651-1.073,1.313-2.181,2.078-3.249c0.715-1.098,1.563-2.127,2.372-3.174c0.858-1.013,1.708-2.025,2.625-2.948
		c0.87-0.964,1.841-1.801,2.728-2.652c0.951-0.786,1.82-1.594,2.738-2.251c0.447-0.339,0.881-0.669,1.302-0.989
		c0.438-0.295,0.861-0.582,1.267-0.855c0.797-0.566,1.572-1.018,2.253-1.423c0.672-0.417,1.273-0.757,1.784-1.01
		C45.7,29.807,46.273,29.504,46.273,29.504z"/>
	<path fill="#FFFFFF" d="M83.354,120.662c-0.393,0.074-0.793,0.151-1.216,0.233c-0.988,0.211-2.073,0.353-3.217,0.506
		c-1.142,0.154-2.356,0.233-3.606,0.317c-1.254,0.044-2.543,0.095-3.855,0.038c-1.31,0.002-2.637-0.146-3.954-0.249
		c-1.318-0.165-2.63-0.322-3.904-0.585c-1.283-0.2-2.515-0.556-3.712-0.831c-1.178-0.366-2.331-0.652-3.382-1.061
		c-0.529-0.188-1.043-0.372-1.541-0.548c-0.487-0.206-0.957-0.403-1.409-0.594c-0.909-0.356-1.711-0.758-2.423-1.108
		c-0.718-0.334-1.331-0.65-1.821-0.939c-0.992-0.551-1.559-0.864-1.559-0.864l-3.76,7.223c0,0,0.694,0.299,1.909,0.821
		c0.601,0.272,1.346,0.565,2.215,0.87c0.861,0.317,1.83,0.68,2.916,0.987c0.539,0.164,1.1,0.334,1.681,0.51
		c0.588,0.146,1.197,0.296,1.824,0.449c1.243,0.337,2.589,0.539,3.96,0.808c1.39,0.181,2.813,0.43,4.277,0.512
		c1.458,0.146,2.943,0.175,4.424,0.207c1.482-0.03,2.961-0.025,4.408-0.171c1.451-0.087,2.864-0.287,4.229-0.476
		c1.357-0.229,2.672-0.452,3.896-0.748c1.226-0.291,2.378-0.565,3.424-0.902c0.405-0.122,0.785-0.236,1.162-0.349l0.78,3.281
		l10.857-8.762l-13.64-2.933L83.354,120.662z"/>
	<path fill="#FFFFFF" d="M101.249,31.963c0.296,0.27,0.597,0.543,0.916,0.833c0.763,0.663,1.527,1.447,2.335,2.269
		c0.81,0.82,1.603,1.745,2.421,2.692c0.786,0.978,1.603,1.979,2.345,3.061c0.786,1.046,1.466,2.196,2.174,3.314
		c0.658,1.151,1.32,2.295,1.877,3.472c0.608,1.146,1.063,2.346,1.563,3.469c0.414,1.162,0.878,2.255,1.181,3.341
		c0.168,0.536,0.33,1.058,0.488,1.562c0.129,0.512,0.251,1.007,0.371,1.482c0.26,0.943,0.422,1.825,0.568,2.604
		c0.164,0.775,0.277,1.455,0.343,2.021c0.155,1.123,0.244,1.765,0.244,1.765l8.032-1.329c0,0-0.177-0.734-0.489-2.019
		c-0.143-0.644-0.355-1.417-0.633-2.294c-0.263-0.88-0.556-1.872-0.959-2.925c-0.195-0.529-0.396-1.081-0.603-1.65
		c-0.237-0.559-0.485-1.135-0.736-1.728c-0.476-1.196-1.123-2.395-1.731-3.653c-0.69-1.219-1.345-2.506-2.158-3.728
		c-0.76-1.253-1.629-2.459-2.492-3.661c-0.913-1.167-1.795-2.354-2.782-3.425c-0.939-1.107-1.948-2.118-2.918-3.097
		c-0.999-0.948-1.966-1.863-2.938-2.666c-0.968-0.805-1.88-1.564-2.776-2.197c-0.34-0.25-0.659-0.486-0.977-0.719l2.153-2.594
		l-13.522-3.424l5.842,12.669L101.249,31.963z"/>
</g>
</svg>
