<?xml version="1.0" encoding="utf-8"?>
<svg version="1.2" baseProfile="tiny" id="Слой_1"
	 xmlns="http://www.w3.org/2000/svg" xmlns:xlink="http://www.w3.org/1999/xlink" x="0px" y="0px" width="128px" height="128px"
	 viewBox="0 0 128 128" xml:space="preserve">
<path fill-rule="evenodd" fill="#FFFFFF" d="M107.291,53.676h19.106V128h-19.106V53.676z M41.263,48.906
	c2.755-2.754,7.138-2.754,9.893,0l11.735,11.741c1.831,1.836,4.144,2.761,6.439,2.761c2.309,0,4.609-0.925,6.208-2.761
	l37.269-37.042l5.993,5.981c0.912,0.918,2.296,1.157,3.679,0.686c1.151-0.459,1.837-1.61,1.837-2.987l0.459-20.942
	c0-1.598-0.68-2.987-1.604-4.138c-1.157-1.151-2.534-1.604-4.145-1.604H97.632c-1.385,0-2.535,0.691-2.988,1.836
	c-0.472,1.384-0.238,2.767,0.686,3.686l5.063,5.056L74.394,37.409c-1.378,1.377-3.22,2.063-5.063,2.063
	c-1.842,0-3.673-0.686-5.062-2.063L51.156,24.291c-2.755-2.761-7.138-2.761-9.893,0L3.297,62.024
	c-1.378,1.384-2.069,3.452-2.069,5.289c0,2.075,0.691,3.912,2.069,5.296l2.075,2.074c2.761,2.761,7.358,2.761,10.125,0
	L41.263,48.906z M19.635,100.525h19.093V128.6H19.635V100.525z M48.854,90.958h19.093V128H48.854V90.958z M78.072,73.475h19.105V128
	H78.072V73.475z"/>
</svg>
