<?xml version="1.0" encoding="utf-8"?>
<!-- Generator: Adobe Illustrator 22.1.0, SVG Export Plug-In . SVG Version: 6.00 Build 0)  -->
<svg version="1.1" id="Слой_1" xmlns="http://www.w3.org/2000/svg" xmlns:xlink="http://www.w3.org/1999/xlink" x="0px" y="0px"
	 width="147.3px" height="128px" viewBox="0 0 147.3 128" style="enable-background:new 0 0 147.3 128;" xml:space="preserve">
<style type="text/css">
	.st0{fill:#FFFFFF;}
</style>
<path class="st0" d="M146.8,55.8c-1-3.3-4.4-5.9-9.3-7.6c1.6,1.2,2.8,2.8,3.4,4.4c2.2,6.6-4.5,15.3-16.9,23.9
	c-0.9-2.2-2.1-4.4-3.5-6.5c-10.3-14.7-29.3-29.1-37.3-34.9c-0.2-0.2-0.4-0.2-0.4-0.4c1-1.6,0.6-3.8-0.6-5.4v-0.2
	c0.2-0.8-0.2-1.8-0.6-2.6c-0.4-0.4-0.8-0.8-1.4-1c0-0.2,0.2-0.4,0.2-0.6c0.2-0.4,0.2-0.6,0.4-1c1.2-2.4,3.2-4.2,5.4-5.9
	c0.4-0.4,0.8-0.6,1.2-1l0.2-0.2c0.4-0.4,0.8-0.6,1.2-1l0.2-0.2c0.4-0.4,0.8-0.8,1.2-1l0.2-0.2c0.4-0.4,0.8-0.8,1-1.2
	c0.2-0.2,0.4-0.6,0.6-0.8c1.4-2.2,1.8-5.4,0.4-7.5c-0.8-2-4.4-2.2-6.3-0.2c-2.2,2-3.2,3.2-10.7-2.2s-8.9-1-13.3,2.2s-6.5-4-7.5,0.4
	c0,0.2,0,0.4,0,0.6c-0.6,2.6,0.4,5,1.8,7.1c1.6,2.2,4,4,6.1,5.8c2.4,1.8,4.6,3.6,6.3,5.8c0.4,0.4,0.8,1,1,1.6c0,0.2,0.2,0.2,0.2,0.4
	c-0.2,0.2-0.4,0.2-0.4,0.4c0,0,0,0-0.2,0S69.2,27,69.2,27s0,0,0,0.2c-0.2,0.2-0.2,0.2-0.4,0.4c0,0.2-0.2,0.2-0.2,0.4c0,0,0,0,0,0.2
	s0,0.2,0,0.4c0,0,0,0,0,0.2s0,0.4,0,0.6c0,0,0,0,0,0.2s0,0.2,0,0.4v0.2c0,0.2,0.2,0.4,0.2,0.6c0,0,0,0.2,0.2,0.2
	c0,0.2-0.2,0.2-0.2,0.4c0,0,0,0.2-0.2,0.2c-0.2,0.2-0.2,0.6-0.4,0.8v0.2C68,32.8,68,33.2,68,33.4c0,0.4,0,0.8,0,1.2l-0.2,0.2
	c-0.2,0-0.2,0.2-0.4,0.2c-0.2,0-0.2,0.2-0.4,0.2c-0.2,0.2-0.2,0.2-0.4,0.4c-0.2,0.2-0.2,0.2-0.4,0.4c-0.2,0.2-0.2,0.2-0.4,0.4
	c-0.2,0.2-0.4,0.2-0.4,0.4C65.2,37,65,37,64.8,37.2s-0.4,0.4-0.6,0.4L64,37.8c-0.8,0.6-1.6,1.4-2.6,2.2h-0.3c-0.6,0.4-1,1-1.6,1.4
	l-0.2,0.2c-0.6,0.6-1.2,1.2-2,1.8c-0.2,0.2-0.4,0.4-0.4,0.4c-0.6,0.6-1,1-1.6,1.6c-0.2,0.2-0.4,0.4-0.6,0.6
	c-0.6,0.8-1.4,1.4-2.2,2.2c-0.2,0.2-0.2,0.2-0.4,0.4c-0.6,0.6-1.2,1.4-1.8,2c-0.2,0.2-0.4,0.4-0.6,0.6c-0.6,0.8-1.4,1.4-2,2.2
	c0,0.2-0.2,0.2-0.2,0.4c-0.8,0.8-1.4,1.8-2.2,2.6c-0.2,0.2-0.4,0.4-0.6,0.6c-0.6,0.8-1.2,1.4-1.8,2.2c-0.2,0.2-0.4,0.4-0.6,0.6
	c-0.8,1-1.4,1.8-2.2,2.8c-0.2,0.2-0.2,0.4-0.4,0.6c-0.6,0.8-1.2,1.6-1.8,2.4c-0.2,0.2-0.4,0.6-0.6,0.8c-0.6,1-1.2,1.8-1.8,2.8
	l-0.2,0.2c-0.6,1-1.2,2-1.8,3c-0.2,0.2-0.4,0.6-0.4,0.8c-0.4,0.8-1,1.6-1.4,2.4c-0.2,0.2-0.2,0.4-0.4,0.8c-0.6,1-1,2-1.6,3.2
	c-0.2,0.2-0.2,0.4-0.2,0.6c-0.4,0.8-0.8,1.8-1,2.6c-0.2,0.2-0.2,0.6-0.4,0.8c-0.4,1-0.8,2.2-1,3.2c-2.2,7.3-0.6,14.2,3.4,20.3
	c-14.6,0.3-24.9-2.8-27-9.2c-0.6-1.8-0.6-3.6,0-5.6c-3,4.4-4.2,8.3-3,11.9c4.6,13.5,40.8,13.7,81.3,0.4c9.2-3,17.8-6.5,25.5-10.2
	c0.1,0,0.1,0,0.1,0c-18.8,11.1-40.6,20.4-65.6,23.8c14.1,9.5,35.1,13.5,52.3,7.3c1.2-0.4,2.4-1,3.6-1.4c0.4-0.2,0.6-0.2,1-0.4
	c0.8-0.4,1.8-0.8,2.6-1.2c0.2-0.2,0.6-0.2,0.8-0.4c1-0.6,2-1,3-1.6c0.2-0.2,0.4-0.2,0.6-0.4c0.8-0.4,1.6-1,2.4-1.4
	c0.2-0.2,0.6-0.4,0.8-0.6c0.8-0.6,1.6-1.2,2.4-1.8l0.2-0.2c0.8-0.6,1.6-1.4,2.4-2c0.2-0.2,0.4-0.4,0.6-0.6c0.6-0.6,1.2-1.2,1.8-1.6
	c0.2-0.2,0.4-0.4,0.4-0.6c0.6-0.8,1.4-1.4,2-2.2l0.2-0.2c0.6-0.6,1-1.4,1.6-2c0.2-0.2,0.2-0.4,0.4-0.6c0.4-0.6,1-1.4,1.4-2l0.2-0.2
	c0.4-0.8,0.8-1.6,1.2-2.4c0-0.2,0.2-0.4,0.2-0.4c0.4-0.6,0.6-1.4,0.8-2c0-0.2,0.2-0.4,0.2-0.6c0.6-1.6,1-3.4,1.4-5
	c0-0.2,0-0.4,0-0.6c0.2-0.8,0.2-1.4,0.4-2.2c0-0.2,0-0.2,0-0.4c-0.3-0.1-0.3-1.1-0.3-1.9c0-1.6-0.1-3.1-0.4-4.7
	C141.1,73.9,149.4,63.5,146.8,55.8z M76.2,71.8l-4-1.2c0-1,0.2-2,0.2-3.2s-0.2-2.2-0.4-3.2s-0.8-1.8-1.4-2.6
	C70,60.8,69,60.4,67.8,60c-1.6-0.4-2.8-0.2-3.8,0.2c-1,0.6-1.6,1.6-2,3c-0.2,1-0.2,1.8-0.2,2.6c0.2,0.6,0.6,1.2,1,1.8
	c0.4,0.6,1,1,1.8,1.4c0.6,0.4,1.4,1,2.2,1.4c1.2,0.8,2.2,1.6,3.4,2.4c1,0.8,2,1.8,2.6,2.6c0.6,1,1.2,2,1.4,3.2
	c0.2,1.2,0.2,2.6-0.2,4c-0.8,2.8-2,4.8-3.8,5.9c-2.3,2.1-4.7,2.3-7.7,1.7l-1.6,8.5l-5.2-1.4l3-8.9c-0.6-0.6-1.2-1.2-1.6-2
	c-0.4-0.8-0.8-1.6-1.2-2.8l-1,4l-4.4-1.8l3.8-11.7l3.8,1.2c0,1,0,2,0,3s0.2,2,0.6,3c0.4,1,0.8,1.8,1.6,2.6c0.6,0.8,1.6,1.2,2.8,1.6
	c1.8,0.4,3.2,0.4,4-0.2c1-0.6,1.6-1.6,2-3.4c0.2-1,0.2-1.8,0.2-2.4c-0.2-0.8-0.4-1.4-0.8-2s-1-1-1.6-1.6c-0.6-0.4-1.4-1-2-1.4
	c-1.4-0.8-2.6-1.6-3.6-2.4c-1.2-0.8-2.2-1.6-2.8-2.6c-0.8-1-1.2-2-1.6-3.2c-0.2-1.2-0.2-2.6,0.2-4.4c0.6-2.6,2-4.6,3.8-5.6
	s4-1.4,6.5-1l1.6-8.7l5.2,1.4l-2.8,8.9c0.8,0.6,1.4,1.2,1.8,2s0.8,1.8,1.2,3l1.2-4.2l4.6,1.2L76.2,71.8z"/>
</svg>
