<?xml version="1.0" encoding="utf-8"?>
<!-- Generator: Adobe Illustrator 22.1.0, SVG Export Plug-In . SVG Version: 6.00 Build 0)  -->
<svg version="1.1" id="Слой_1" xmlns="http://www.w3.org/2000/svg" xmlns:xlink="http://www.w3.org/1999/xlink" x="0px" y="0px"
	 width="193.7px" height="128px" viewBox="0 0 193.7 128" style="enable-background:new 0 0 193.7 128;" xml:space="preserve">
<style type="text/css">
	.st0{fill:#FFFFFF;}
</style>
<path class="st0" d="M78.3,18.6C83,14,88.3,10.2,93.8,7.3C69.6-5.4,39-1.7,18.7,18.6c-22.9,23.1-24.8,58.8-5.8,83.9l-8,20.6
	l20.5-8.1c20,15.1,46.8,17,68.4,5.6c-5.6-2.9-10.8-6.7-15.5-11.4C53.4,84,53.4,43.5,78.3,18.6z"/>
<path class="st0" d="M174.9,18.6c-20.3-20.3-50.8-24-75.1-11.3C94.3,10.2,89,14,84.3,18.6c-24.9,24.9-24.9,65.4,0,90.6
	c4.7,4.7,9.9,8.5,15.5,11.4c21.6,11.3,48.4,9.5,68.4-5.6l20.5,8.1l-8-20.6C199.7,77.4,197.8,41.7,174.9,18.6z M144.6,91.4
	c-2.1,3.3-5.4,5.2-9.6,6.1v5.6h-10v-5.6c-4.4-1-7.5-2.9-9.6-6.1c-2.1-3.2-3.3-7.3-3.3-12.5v-5.2h11.3v5.9c0,2.7,0.6,4.6,1.7,5.8
	c1.1,1.2,2.7,1.5,4.4,1.5c1.9,0,3.5-0.6,4.4-1.5c1.2-1.2,1.7-3.1,1.7-5.8c0-2.7-0.6-4.8-1.7-6.7c-1.2-1.9-2.7-3.6-4.4-5.2
	c-1.7-1.5-3.6-3.3-5.6-4.8c-1.9-1.5-3.8-3.3-5.6-5.2c-1.7-1.9-3.3-4.2-4.4-6.7c-0.9-2.4-1.5-5.5-1.5-9.1c0-5.2,1-9.2,3.1-12.3
	c2.1-3.1,5.2-5.2,9.4-6.1v-5.6h9.8v5.6c4.2,1,7.5,2.9,9.6,5.9c2.1,3.1,3.3,7.3,3.3,12.5v2.3h-11.3v-3.1c0-2.7-0.6-4.6-1.5-5.8
	c-1-1.2-2.5-1.7-4.4-1.7c-1.9,0-3.3,0.6-4.4,1.7c-1,1.2-1.5,3.1-1.5,5.8c0,2.7,0.6,4.8,1.7,6.7c1.1,1.9,2.7,3.6,4.4,5.2
	c1.7,1.5,3.6,3.3,5.6,4.8s3.8,3.3,5.6,5.2c1.8,1.9,3.3,4.2,4.4,6.7c1.2,2.5,1.7,5.6,1.7,9.2C147.9,84.1,146.7,88.3,144.6,91.4z"/>
</svg>
