<?xml version="1.0" encoding="utf-8"?>
<!-- Generator: Adobe Illustrator 22.1.0, SVG Export Plug-In . SVG Version: 6.00 Build 0)  -->
<svg version="1.1" id="Слой_1" xmlns="http://www.w3.org/2000/svg" xmlns:xlink="http://www.w3.org/1999/xlink" x="0px" y="0px"
	 width="135.7px" height="128px" viewBox="0 0 135.7 128" style="enable-background:new 0 0 135.7 128;" xml:space="preserve">
<style type="text/css">
	.st0{fill:#FFFFFF;}
</style>
<g>
	<path class="st0" d="M104.8,50.7c-2.6,0-4.5,2.2-4.5,4.5c0,2.6,2.1,4.5,4.7,4.5s4.2-1.9,4.3-4.5C109.3,52.6,107.1,50.7,104.8,50.7z
		"/>
	<path class="st0" d="M133,58.4l-8.4-3c-2.6-11.4-8.7-21.8-17.8-29.5v-8.2c0-3.3-2.6-5.9-5.9-5.9c-1.4,0-2.8,0.7-4,1.6l-4.5,4
		c-2.1-0.8-4.3-1.5-6.4-2.1c0-0.1,0-0.1,0-0.2c0-8.4-6.8-15.2-15.2-15.2S55.6,6.8,55.6,15.2c0,0.3,0,0.5,0,0.8
		c-20.3,6.5-35.3,24.8-37,46.9c-1.3-1.7-3.4-2.7-5.7-2.7c-2.7,0-5.1,1.5-6.3,3.7c-0.7-0.4-1.4-0.6-2.2-0.6c-2.6,0-4.5,2.2-4.5,4.5
		C0,73.3,4.7,78,10.3,78c1,0,2-0.2,3-0.4c0.9,0.3,1.9,0.4,2.9,0.4c1.2,0,2.3-0.2,3.4-0.6c2.2,10.9,7.7,21,16,28.7l6.8,19
		c0.5,1.6,2.1,2.8,4,2.8h13.3c1.7,0,3.3-1.2,4-2.8l1.9-5.2c4,0.5,8,0.5,12,0l1.9,5.2c0.5,1.6,2.1,2.8,4,2.8h13.3
		c1.9,0,3.5-1.2,5.3-3.3l6.8-19c6.6-6.1,11.5-13.9,14.3-22.3l9.8-3.5c1.6-0.5,2.8-2.1,2.8-4V62.4C135.8,60.7,134.6,59.1,133,58.4z
		 M70.8,8.8c2.9,0,5.5,2.1,6.3,4.9c0.2,0.6,0.3,1.1,0.3,1.7c0,3.8-3.1,6.6-6.6,6.6c-3.8,0-6.6-3.1-6.6-6.6c0-0.5,0.1-1,0.2-1.4
		C65,10.9,67.8,8.8,70.8,8.8z M126.2,73l-8.9,3.3c-1.4,0.5-2.3,1.4-2.8,2.8c-2.4,8.2-6.8,15.7-13.4,21.3c-0.7,0.7-1.2,1.7-1.4,2.6
		l-5.9,16.2h-7.3l-1.6-5.7c-0.7-2.1-2.8-3.3-4.9-2.8c-5.7,0.9-10.6,0.9-16.2,0c-2.1-0.5-4.2,0.7-4.9,2.8l-2.1,5.6h-7.3l-5.9-16.2
		c0-1-0.7-1.9-1.4-2.6C33,92.2,27.4,80.6,27,68.2c0-0.2,0-0.3,0.1-0.5c0-0.3,0-0.6-0.1-0.9c0-19.9,13.3-37,31.5-42.7
		c0.3,0.4,0.6,0.8,0.9,1.1c-1.5,0.3-3,0.8-4.4,1.2c-2.3,0.7-3.5,3.1-2.8,5.4c0.7,1.8,2.3,3,4.2,3c0.4,0,0.9,0,1.3-0.3
		c8.5-2.5,17.6-2.8,26.3-0.2c2.4,0.5,4.7-0.7,5.4-3c0.5-2.4-0.7-4.7-3-5.4c-1.3-0.4-2.6-0.7-3.9-1c0.3-0.4,0.7-0.8,0.9-1.2
		c2.6,0.7,5.2,1.7,7.6,2.8c1.6,0.7,3.5,0.5,4.9-0.7l1.6-1.4v3.8c0,1.4,0.4,2.6,1.6,3.5c8.9,6.8,14.7,16.9,16.6,27.9
		c0.2,1.4,1.4,2.8,2.8,3.3l7.7,2.8V73z"/>
</g>
</svg>
