<?xml version="1.0" encoding="utf-8"?>
<!-- Generator: Adobe Illustrator 22.1.0, SVG Export Plug-In . SVG Version: 6.00 Build 0)  -->
<svg version="1.1" id="Слой_1" xmlns="http://www.w3.org/2000/svg" xmlns:xlink="http://www.w3.org/1999/xlink" x="0px" y="0px"
	 width="309.6px" height="128px" viewBox="0 0 309.6 128" style="enable-background:new 0 0 309.6 128;" xml:space="preserve">
<style type="text/css">
	.st0{fill:#87BD44;}
</style>
<g>
	<g>
		<g>
			<path class="st0" d="M193.4,103.1c-10.5,0-19.6-4.1-25.8-11.4c-6.4-7.5-8.9-17.3-7.3-28.1c3.4-21.2,23.5-38.6,44.9-38.6
				c10.5,0,19.6,4.1,25.8,11.4c6.4,7.5,8.9,17.3,7.3,28.1C234.9,85.8,214.8,103.1,193.4,103.1z M205.3,29.7
				c-19.2,0-37.4,15.5-40.4,34.9c-1.4,9.1,0.7,17.8,6.2,24.4c5.5,6.4,13.2,9.8,22.4,9.8c19.2,0,37.4-15.5,40.4-34.9
				c1.4-9.1-0.7-17.8-6.2-24.4C222.1,33.1,214.1,29.7,205.3,29.7z"/>
		</g>
	</g>
	<g>
		<g>
			<path class="st0" d="M200,41.3l0.5-3h5.2l-0.5,3c4.6,0.9,6.4,4.6,5.5,10l-0.2,1.4h-6.2l0.2-1.8c0.5-3-0.5-4.1-2.5-4.1
				c-2.1,0-3.4,1.1-3.9,4.1c-1.4,8.4,11.4,8.9,9.4,20.8c-0.9,5.7-3.9,9.4-8.7,10.3l-0.5,3h-5.2l0.5-3c-4.6-0.9-6.4-4.6-5.5-10.3
				l0.5-2.7h6.2l-0.5,3.2c-0.5,3,0.7,4.1,2.7,4.1c2.1,0,3.7-1.1,4.1-4.1c1.4-8.4-11.4-8.9-9.4-20.8C192.5,45.9,195.4,42.2,200,41.3z
				"/>
		</g>
	</g>
	<g>
		<path class="st0" d="M301.8,0H158.9h-45.8H50.8c-4.4,0-8.5,3.4-9.4,7.7c-0.9,4.4,1.9,7.8,6.2,7.8h53.9H142c3.2,0,5.2,2.5,4.6,5.7
			c-0.7,3.2-3.7,5.7-6.8,5.7H99.6l-5.2,33.5h21.9c3.2,0,5.2,2.5,4.6,5.7c-0.7,3.2-3.7,5.7-6.8,5.7H92.3l0,0.3H38.2
			c-2.5,0-5,2.1-5.5,4.6c-0.4,2.5,1.2,4.6,3.7,4.6h61.3c1.7,0.9,2.6,2.8,2.1,5.1c-0.7,3.2-3.7,5.7-6.8,5.7h-3.9l-3.5,21.3H12.5
			c-3.9,0-8,3.2-8.7,7.3c-0.7,4.1,1.8,7.3,5.9,7.3h86.5l0.1-0.3h184.9c5,0,9.8-4.1,10.5-9.1L309.5,9.1C310.2,4.1,306.8,0,301.8,0z
			 M228.8,96c-20.7,19.1-50.6,20.3-66.8,2.6c-16.3-17.6-12.7-47.3,8-66.4c20.7-19.1,50.6-20.3,66.8-2.6
			C253,47.2,249.4,76.9,228.8,96z"/>
		<path class="st0" d="M20.9,36.7h59.8c3.2,0,5.9-2.3,6.6-5.2c0.9-4.1-2.3-8-6.6-8h-57c-3.7,0-7.3,3-8,6.6
			C14.7,33.8,17.2,36.7,20.9,36.7z"/>
		<path class="st0" d="M23.6,97.5c-0.4,2.4,1.2,4.5,3.7,4.5H69c2.3,0,4.3-1.6,4.6-3.9c0.7-3-1.6-5.7-4.6-5.7H29.1
			c-2.5,0-5,2.1-5.5,4.6V97.5z"/>
		<path class="st0" d="M54.9,58c3.2,0,6.4-2.6,7-5.7c0.6-3.2-1.4-5.7-4.6-5.7H6.9c-3.1,0-6.1,2.5-6.8,5.7C-0.5,55.5,1.5,58,4.7,58
			H54.9z"/>
	</g>
</g>
</svg>
