<?xml version="1.0" encoding="utf-8"?>
<!-- Generator: Adobe Illustrator 22.1.0, SVG Export Plug-In . SVG Version: 6.00 Build 0)  -->
<svg version="1.2" baseProfile="tiny" id="Слой_1"
	 xmlns="http://www.w3.org/2000/svg" xmlns:xlink="http://www.w3.org/1999/xlink" x="0px" y="0px" width="79.6px" height="128px"
	 viewBox="0 0 79.6 128" xml:space="preserve">
<g>
	<path fill="#87BD44" d="M33.6,119.5H45c0.9,0,1.7-0.9,1.7-1.7c0-0.9-0.7-1.7-1.7-1.7H33.6c-0.9,0-1.7,0.7-1.7,1.7
		C31.9,118.7,32.8,119.5,33.6,119.5z"/>
	<path fill="#87BD44" d="M67.9,58.6l10.7-3.1V9c0-4.6-3.9-8.5-8.5-8.5H8.5C3.9,0.5,0,4.4,0,9v111c0,4.8,3.9,8.5,8.5,8.5h61.6
		c4.6,0,8.5-3.7,8.5-8.5V56.2l-10.7,5.9v44.8H10.7V75.2L67.9,58.6z M10.7,19.5c4.2-0.9,7.4-4.2,8.3-8.3h40.6
		c0.9,4.2,4.2,7.4,8.3,8.3V54l-9.8,2.8c-2-8.7-9.6-15.3-18.8-15.3c-10.7,0-19.4,8.7-19.4,19.4c0,2.4,0.4,4.6,1.1,6.6l-10.3,3.1
		C10.7,70.6,10.7,19.5,10.7,19.5z M33.6,111.9H45c3.3,0,5.9,2.6,5.9,5.9s-2.6,5.9-5.9,5.9H33.6c-3.3,0-5.9-2.6-5.9-5.9
		S30.4,111.9,33.6,111.9z"/>
</g>
</svg>
