<?xml version="1.0" encoding="utf-8"?>
<!-- Generator: Adobe Illustrator 22.1.0, SVG Export Plug-In . SVG Version: 6.00 Build 0)  -->
<svg version="1.2" baseProfile="tiny" id="Слой_1"
	 xmlns="http://www.w3.org/2000/svg" xmlns:xlink="http://www.w3.org/1999/xlink" x="0px" y="0px" width="187.7px" height="128px"
	 viewBox="0 0 187.7 128" xml:space="preserve">
<g>
	<g>
		<path fill="#42793F" d="M12.9,102.5c-19-25.1-17.1-60.8,5.8-83.9c24.9-24.9,65.4-24.9,90.6,0c24.9,24.9,24.9,65.4,0,90.6
			C86.4,132.1,50.6,134,25.4,115l-20.5,8.1L12.9,102.5z"/>
		<path fill="#87BD44" d="M174.7,102.5c19-25.1,17.1-60.8-5.8-83.9c-24.9-24.9-65.4-24.9-90.6,0c-24.9,24.9-24.9,65.4,0,90.6
			c22.8,22.8,58.7,24.8,83.9,5.8l20.5,8.1L174.7,102.5z"/>
		<g>
			<path fill="#FCFCFC" d="M106.4,41.9c0-5.2,1-9.2,3.1-12.3s5.2-5.2,9.4-6.1v-5.6h9.8v5.6c4.2,1,7.5,2.9,9.6,5.9
				c2.1,3.1,3.3,7.3,3.3,12.5v2.3h-11.3v-3.1c0-2.7-0.6-4.6-1.5-5.8c-1-1.2-2.5-1.7-4.4-1.7s-3.3,0.6-4.4,1.7
				c-1,1.2-1.5,3.1-1.5,5.8s0.6,4.8,1.7,6.7s2.7,3.6,4.4,5.2c1.7,1.5,3.6,3.3,5.6,4.8s3.8,3.3,5.6,5.2s3.3,4.2,4.4,6.7
				c1.2,2.5,1.7,5.6,1.7,9.2c0,5.2-1.2,9.4-3.3,12.5c-2.1,3.3-5.4,5.2-9.6,6.1v5.6h-10v-5.6c-4.4-1-7.5-2.9-9.6-6.1
				s-3.3-7.3-3.3-12.5v-5.2h11.3v5.9c0,2.7,0.6,4.6,1.7,5.8s2.7,1.5,4.4,1.5c1.9,0,3.5-0.6,4.4-1.5c1.2-1.2,1.7-3.1,1.7-5.8
				c0-2.7-0.6-4.8-1.7-6.7c-1.2-1.9-2.7-3.6-4.4-5.2c-1.7-1.5-3.6-3.3-5.6-4.8c-1.9-1.5-3.8-3.3-5.6-5.2c-1.7-1.9-3.3-4.2-4.4-6.7
				C107,48.6,106.4,45.5,106.4,41.9z"/>
		</g>
	</g>
</g>
</svg>
