<?xml version="1.0" encoding="utf-8"?>
<!-- Generator: Adobe Illustrator 22.1.0, SVG Export Plug-In . SVG Version: 6.00 Build 0)  -->
<svg version="1.2" baseProfile="tiny" id="Слой_1"
	 xmlns="http://www.w3.org/2000/svg" xmlns:xlink="http://www.w3.org/1999/xlink" x="0px" y="0px" width="113.8px" height="128px"
	 viewBox="0 0 113.8 128" xml:space="preserve">
<g>
	<g>
		<path fill="#89BE45" d="M72.7,63.3c0,8.7-6.9,15.6-15.6,15.6S41.5,72,41.5,63.3s6.9-15.6,15.6-15.6C65.8,47.7,72.7,54.8,72.7,63.3
			z"/>
		<g>
			<path fill="#FDFDFD" d="M54.6,53.4v-1.4h2.3v1.4c2.1,0.4,3.2,2,3.2,4.4v0.7h-2.7v-0.7c0-1.2-0.5-1.8-1.4-1.8s-1.4,0.5-1.4,1.8
				c0,3.7,5.7,3.9,5.7,9.2c0,2.5-1.1,4.1-3.2,4.6V73h-2.3v-1.4c-2.1-0.4-3.2-2-3.2-4.6v-1.2h2.7v1.4c0,1.2,0.5,1.8,1.4,1.8
				c0.9,0,1.4-0.5,1.4-1.8c0-3.7-5.7-3.9-5.7-9.2C51.6,55.5,52.5,53.9,54.6,53.4z"/>
		</g>
	</g>
	<g>
		<path fill="#89BE45" d="M56.8,128c-15.2,0-23.4-33-23.4-64S41.7,0,56.8,0C72,0,80.2,33,80.2,64S72,128,56.8,128z M56.8,5.7
			C48.4,5.7,39,29.6,39,64.2c0,34.4,9.4,58.5,17.7,58.5s17.7-23.9,17.7-58.5C74.7,29.6,65.3,5.7,56.8,5.7z"/>
	</g>
	<g>
		<path fill="#89BE45" d="M97.5,102.3c-13.3,0-32.8-6.7-52.5-17.9C30.7,76.1,18.1,66.3,10,56.9c-9-10.3-12.1-18.8-8.5-24.8
			c1.6-2.8,5.5-6.2,14.7-6.2c13.3,0,32.8,6.7,52.5,17.9c26.9,15.6,51.4,39.2,43.8,52.3C110.7,98.9,106.8,102.3,97.5,102.3z
			 M16.2,31.4c-5.1,0-8.7,1.2-9.9,3.4c-2,3.5,0.9,10.5,8,18.3c7.8,8.9,19.9,18.3,33.9,26.2c18.4,10.6,37.4,17.2,49.6,17.2
			c5.1,0,8.7-1.2,9.9-3.4c4.3-7.3-11.9-27.5-41.7-44.7C47.4,37.9,28.2,31.4,16.2,31.4z"/>
	</g>
	<g>
		<path fill="#89BE45" d="M16.2,102.3c-9.2,0-13.1-3.4-14.7-6.2C-6.2,83,18.3,59.4,45.2,43.8c19.5-11.3,39.2-17.9,52.5-17.9
			c9.2,0,13.1,3.4,14.7,6.2c3.4,6,0.5,14.5-8.5,24.8c-8.3,9.4-20.7,19.1-35.1,27.5C49,95.6,29.5,102.3,16.2,102.3z M97.5,31.4
			c-12.2,0-31.2,6.6-49.6,17.2C18.1,65.8,2,86,6.2,93.3c1.2,2.1,4.8,3.4,9.9,3.4c12.2,0,31.2-6.6,49.6-17.2
			c13.8-8,25.9-17.4,33.9-26.2c7.1-8,9.9-14.7,8-18.3C106.2,32.6,102.7,31.4,97.5,31.4z"/>
	</g>
	
		<circle fill="#89BE45" stroke="#89BE45" stroke-width="2" stroke-linecap="round" stroke-linejoin="round" stroke-miterlimit="10" cx="102.7" cy="74.3" r="5.1"/>
	
		<path fill="#89BE45" stroke="#89BE45" stroke-width="2" stroke-linecap="round" stroke-linejoin="round" stroke-miterlimit="10" d="
		M41.3,14c2.5-1.4,5.5-0.5,6.9,1.8c1.4,2.5,0.5,5.5-1.8,6.9c-2.5,1.4-5.5,0.5-6.9-1.8C38.1,18.4,38.9,15.4,41.3,14z"/>
	
		<path fill="#89BE45" stroke="#89BE45" stroke-width="2" stroke-linecap="round" stroke-linejoin="round" stroke-miterlimit="10" d="
		M22.4,101.8c-2.5-1.4-3.2-4.4-1.8-6.9s4.4-3.2,6.9-1.8s3.2,4.4,1.8,6.9C27.9,102.3,24.7,103,22.4,101.8z"/>
</g>
</svg>
